<svg width="368" height="289" viewBox="0 0 368 289" fill="none" xmlns="http://www.w3.org/2000/svg">
<g clip-path="url(#clip0)">
<path d="M166.926 243.926C166.82 247.232 166.45 250.523 165.819 253.769C163.233 267.428 159.848 278.382 156.783 286.505C156.783 286.505 156.783 286.519 156.783 286.525C152.483 297.922 148.802 303.765 148.802 303.765C148.802 303.765 127.853 310.3 116.395 299.516L112.139 229.918C112.139 229.918 115.741 206.062 145.857 212.599C145.851 212.597 167.72 216.419 166.926 243.926Z" fill="#739CF3"/>
<path d="M95.4622 139.735C95.9975 136.866 94.8213 134.241 92.835 133.871C90.8486 133.502 88.8044 135.529 88.2691 138.398C87.7338 141.267 88.91 143.893 90.8964 144.262C92.8827 144.631 94.9269 142.605 95.4622 139.735Z" fill="#9D663A"/>
<path d="M208.852 148.6C210.871 148.513 212.404 146.078 212.277 143.162C212.15 140.246 210.411 137.953 208.392 138.041C206.374 138.129 204.841 140.563 204.968 143.479C205.095 146.395 206.834 148.688 208.852 148.6Z" fill="#9D663A"/>
<path d="M114.415 240.369C114.415 240.369 77.7601 205.078 88.563 142.013L93.5936 143.356C93.5936 143.356 100.509 212.202 129.063 212.234C157.616 212.267 114.415 240.369 114.415 240.369Z" fill="#739CF3"/>
<path d="M155.421 216.975C155.421 216.975 160.241 218.968 163.296 217.07C174.848 209.891 200.196 185.815 206.41 147.566H211.321C211.321 147.566 216.23 209.98 164.577 246.283L155.421 216.975Z" fill="#739CF3"/>
<path d="M150.656 208.19C150.34 210.288 150.138 212.843 150.433 215.209C150.433 215.209 143.532 217.653 139.454 211.607C139.454 211.607 143.427 207.654 144.175 202.151L144.193 202.007C144.24 201.655 144.272 201.289 144.284 200.923C144.454 196.89 147.545 199.379 149.647 201.57C150.748 202.713 151.579 203.771 151.579 203.771C151.182 205.224 150.874 206.7 150.656 208.19Z" fill="#9D663A"/>
<path d="M151.579 203.768C151.182 205.221 150.874 206.696 150.656 208.186C148.63 207.088 143.996 204.316 144.171 202.147L144.189 202.004C144.458 200.547 147.142 200.899 149.643 201.566C150.748 202.714 151.579 203.768 151.579 203.768Z" fill="#9D663A"/>
<path d="M159.435 175.505C159.435 175.505 164.345 202.149 151.579 203.767C138.812 205.386 136.684 178.117 136.684 178.117L159.435 175.505Z" fill="#9D663A"/>
<path d="M159.599 185.474C158.136 186.406 156.801 187.523 155.624 188.796C155.559 188.86 155.488 188.927 155.421 188.998C155.245 189.2 155.063 189.403 154.884 189.605C154.86 189.626 154.838 189.649 154.819 189.676C154.781 189.722 154.749 189.767 154.708 189.807C154.538 190.01 154.368 190.212 154.205 190.414C150.31 195.126 147.655 200.897 146.439 202.687C144.71 205.218 140.291 204.263 139.46 198.774C139.161 196.997 138.654 195.261 137.948 193.603C137.062 191.457 135.986 189.395 134.734 187.44C127.533 175.024 148.536 168.325 148.536 168.325C148.536 168.325 156.34 164.566 162.886 170.285C169.433 176.005 159.599 185.474 159.599 185.474Z" fill="#303233"/>
<path d="M154.205 190.414C150.31 195.126 147.655 200.897 146.439 202.687C144.71 205.218 140.291 204.263 139.46 198.774C139.161 196.997 138.654 195.261 137.948 193.603C138.183 193.872 144.835 201.137 154.205 190.414Z" fill="#303233"/>
<path d="M166.926 243.926C166.82 247.231 166.449 250.523 165.819 253.769C163.233 267.428 159.848 278.381 156.783 286.505C162.813 263.474 160.365 248.416 160.365 248.416C162.716 247.548 166.729 244.096 166.926 243.926Z" fill="#739CF3"/>
<g opacity="0.67">
<g opacity="0.97">
<path opacity="0.97" d="M258.075 39.3774L199.338 63.1987L255.615 34.0361C256.304 33.7255 257.086 33.6905 257.8 33.9386C258.514 34.1867 259.105 34.6988 259.452 35.3694C259.799 36.0399 259.874 36.8178 259.664 37.5424C259.453 38.2671 258.971 38.8834 258.318 39.2641C258.243 39.3046 258.158 39.345 258.075 39.3774Z" fill="#FFC700"/>
</g>
<g opacity="0.97">
<path opacity="0.97" d="M229.189 29.6192L200.119 58.6705L224.734 25.7711C225.211 25.1673 225.906 24.7734 226.67 24.6733C227.434 24.5732 228.206 24.7748 228.823 25.2351C229.44 25.6955 229.853 26.3782 229.973 27.1378C230.093 27.8973 229.912 28.6737 229.467 29.3016C229.381 29.4134 229.289 29.5195 229.189 29.6192Z" fill="#FFC700"/>
</g>
<g opacity="0.97">
<path opacity="0.97" d="M239.692 97.1015L198.374 66.8423L242.898 92.1668C243.565 92.5605 244.049 93.1996 244.248 93.9465C244.446 94.6935 244.343 95.4883 243.96 96.1598C243.576 96.8313 242.944 97.3256 242.2 97.5362C241.455 97.7468 240.657 97.6568 239.978 97.2856C239.879 97.2294 239.784 97.168 239.692 97.1015Z" fill="#FFC700"/>
</g>
<g opacity="0.97">
<path opacity="0.97" d="M222.324 127.361L199.904 74.8198L227.62 124.779C227.819 125.118 227.947 125.493 227.998 125.882C228.049 126.272 228.022 126.667 227.917 127.045C227.813 127.424 227.634 127.778 227.391 128.086C227.148 128.395 226.845 128.651 226.501 128.842C226.157 129.032 225.779 129.151 225.388 129.193C224.997 129.235 224.601 129.199 224.225 129.086C223.848 128.973 223.498 128.787 223.194 128.537C222.891 128.287 222.641 127.979 222.458 127.632C222.409 127.545 222.365 127.452 222.324 127.361Z" fill="#FFC700"/>
</g>
<g opacity="0.97">
<path opacity="0.97" d="M190.495 110.036L195.068 72.0562L196.381 110.295C196.4 110.685 196.341 111.076 196.208 111.443C196.074 111.81 195.869 112.148 195.604 112.435C195.338 112.723 195.019 112.955 194.663 113.118C194.307 113.281 193.922 113.372 193.531 113.385C193.14 113.399 192.75 113.334 192.383 113.196C192.017 113.058 191.682 112.848 191.398 112.579C191.114 112.311 190.886 111.988 190.727 111.631C190.569 111.273 190.483 110.888 190.475 110.497C190.471 110.343 190.478 110.189 190.495 110.036Z" fill="#FFC700"/>
</g>
<g opacity="0.97">
<path opacity="0.97" d="M168.275 105.269L190.665 75.002L173.273 108.385C173.086 108.746 172.825 109.065 172.508 109.321C172.191 109.577 171.824 109.764 171.43 109.872C171.037 109.979 170.626 110.004 170.222 109.945C169.819 109.886 169.432 109.744 169.086 109.529C168.74 109.313 168.442 109.029 168.212 108.693C167.982 108.357 167.823 107.977 167.747 107.577C167.671 107.177 167.679 106.766 167.77 106.369C167.861 105.972 168.033 105.598 168.275 105.271V105.269Z" fill="#FFC700"/>
</g>
<g opacity="0.97">
<path opacity="0.97" d="M133.009 46.6931L181.855 61.8894L131.59 52.4006C131.205 52.3336 130.837 52.1907 130.507 51.9804C130.178 51.7702 129.893 51.4966 129.671 51.1756C129.448 50.8547 129.292 50.4927 129.21 50.1109C129.129 49.729 129.124 49.3348 129.197 48.9512C129.27 48.5676 129.418 48.2022 129.633 47.8764C129.849 47.5505 130.127 47.2706 130.452 47.053C130.776 46.8353 131.141 46.6843 131.525 46.6086C131.908 46.5329 132.303 46.5341 132.687 46.6122C132.796 46.6328 132.903 46.6598 133.009 46.6931Z" fill="#FFC700"/>
</g>
<g opacity="0.97">
<path opacity="0.97" d="M154.503 33.3661L191.328 62.0533L151.177 38.2218C150.537 37.8072 150.083 37.1612 149.91 36.4195C149.737 35.6777 149.858 34.8979 150.249 34.2436C150.639 33.5892 151.268 33.1113 152.004 32.91C152.74 32.7086 153.525 32.7996 154.195 33.1638C154.301 33.2254 154.404 33.293 154.503 33.3661Z" fill="#FFC700"/>
</g>
<g opacity="0.97">
<path opacity="0.97" d="M182.951 2.7997L193.304 54.2277L177.246 4.27867C177.118 3.908 177.066 3.51561 177.092 3.12448C177.118 2.73334 177.222 2.35134 177.398 2.00084C177.574 1.65035 177.818 1.33842 178.116 1.08333C178.414 0.82824 178.76 0.63512 179.134 0.515287C179.508 0.395454 179.902 0.351318 180.293 0.385466C180.685 0.419614 181.065 0.531358 181.412 0.71415C181.76 0.896943 182.067 1.14711 182.316 1.44999C182.566 1.75286 182.752 2.10236 182.864 2.47801C182.9 2.58331 182.929 2.69075 182.951 2.7997Z" fill="#FFC700"/>
</g>
<g opacity="0.97">
<path opacity="0.97" d="M228.914 6.45965L211.189 35.252L223.642 3.82948C223.785 3.46893 223.997 3.13999 224.267 2.86144C224.537 2.58289 224.86 2.36019 225.216 2.20604C225.573 2.05189 225.956 1.96931 226.344 1.96303C226.733 1.95675 227.118 2.02689 227.48 2.16943C227.841 2.31197 228.17 2.52414 228.449 2.7938C228.728 3.06347 228.952 3.38536 229.106 3.7411C229.26 4.09684 229.343 4.47945 229.349 4.8671C229.356 5.25475 229.285 5.63984 229.143 6.00038C229.078 6.15909 229.002 6.31263 228.914 6.45965Z" fill="#04BEFE"/>
</g>
<g opacity="0.97">
<path opacity="0.97" d="M208.23 27.4259L196.318 58.7129L202.559 25.8276C202.631 25.4466 202.778 25.0835 202.991 24.7591C203.204 24.4347 203.478 24.1554 203.799 23.937C204.12 23.7186 204.481 23.5654 204.862 23.4863C205.242 23.4071 205.634 23.4035 206.016 23.4756C206.397 23.5477 206.761 23.6942 207.086 23.9067C207.411 24.1191 207.691 24.3934 207.91 24.7138C208.128 25.0342 208.282 25.3945 208.361 25.7741C208.44 26.1537 208.444 26.5452 208.372 26.9262C208.338 27.0964 208.291 27.2635 208.23 27.4259Z" fill="#04BEFE"/>
</g>
<g opacity="0.97">
<path opacity="0.97" d="M244.208 70.4943L196.983 64.7727L244.554 64.625C245.324 64.6426 246.057 64.9596 246.596 65.5084C247.134 66.0572 247.437 66.7944 247.44 67.5629C247.442 68.3315 247.144 69.0705 246.608 69.6227C246.073 70.1748 245.342 70.4963 244.573 70.5186C244.451 70.5167 244.329 70.5086 244.208 70.4943Z" fill="#04BEFE"/>
</g>
<g opacity="0.97">
<path opacity="0.97" d="M244.905 120.747L221.907 91.1069L249.269 116.802C249.566 117.08 249.802 117.418 249.963 117.792C250.123 118.166 250.204 118.57 250.201 118.977C250.198 119.384 250.11 119.786 249.943 120.158C249.776 120.529 249.534 120.862 249.232 121.136C248.93 121.41 248.575 121.618 248.188 121.748C247.802 121.878 247.393 121.926 246.986 121.891C246.58 121.855 246.185 121.735 245.828 121.54C245.47 121.345 245.156 121.077 244.907 120.755L244.905 120.747Z" fill="#04BEFE"/>
</g>
<g opacity="0.97">
<path opacity="0.97" d="M160.719 5.5106L184.466 46.1387L155.825 8.78618C155.355 8.1649 155.15 7.38329 155.255 6.61192C155.361 5.84056 155.767 5.14208 156.387 4.66894C157.006 4.1958 157.788 3.98641 158.561 4.08648C159.334 4.18655 160.037 4.58795 160.515 5.20307C160.589 5.30177 160.657 5.40444 160.719 5.5106Z" fill="#04BEFE"/>
</g>
<g opacity="0.97">
<path opacity="0.97" d="M129.077 79.8495L189.259 65.9399L130.684 85.5105C129.942 85.7592 129.132 85.7036 128.431 85.3558C127.731 85.0081 127.197 84.3967 126.948 83.6562C126.699 82.9157 126.754 82.1067 127.103 81.4073C127.451 80.7078 128.064 80.1751 128.805 79.9264C128.894 79.8961 128.985 79.8705 129.077 79.8495Z" fill="#04BEFE"/>
</g>
<g opacity="0.97">
<path opacity="0.97" d="M173.446 129.265L186.036 96.6101L179.05 131.084C178.894 131.853 178.439 132.528 177.784 132.962C177.129 133.396 176.328 133.552 175.558 133.396C174.787 133.241 174.111 132.786 173.676 132.132C173.242 131.478 173.085 130.679 173.241 129.91C173.273 129.753 173.318 129.599 173.375 129.449L173.446 129.265Z" fill="#04BEFE"/>
</g>
</g>
<rect x="61.8151" y="92.1624" width="24.0302" height="9.89478" rx="2.82708" transform="rotate(-31.8893 61.8151 92.1624)" fill="#4E5683"/>
<rect x="122.742" y="122.818" width="24.0302" height="9.89478" rx="2.82708" transform="rotate(-7.61943 122.742 122.818)" fill="#AFEAFE"/>
<rect x="290.136" y="30.5232" width="24.0302" height="9.89478" rx="2.82708" transform="rotate(-7.61943 290.136 30.5232)" fill="#6C96F1"/>
<rect x="87.4456" y="20.1545" width="24.0302" height="9.89478" rx="2.82708" transform="rotate(-7.61943 87.4456 20.1545)" fill="#3C92E9"/>
<rect x="43.5654" y="175.611" width="24.0302" height="9.89478" rx="2.82708" transform="rotate(5.67662 43.5654 175.611)" fill="#89BEF4"/>
<rect x="254.174" y="173.312" width="24.0302" height="9.89478" rx="2.82708" transform="rotate(42.0577 254.174 173.312)" fill="#739CF3"/>
<rect x="286.3" y="104.292" width="24.0302" height="9.89478" rx="2.82708" transform="rotate(9.05319 286.3 104.292)" fill="#317EF6"/>
</g>
<defs>
<clipPath id="clip0">
<rect width="368" height="288" fill="white" transform="translate(0 0.5)"/>
</clipPath>
</defs>
</svg>
