<svg fill="none" xmlns="http://www.w3.org/2000/svg" viewBox="0 0 320 252">
  <path d="M.113 158.348c.448 9.461 2.245 18.434 5.554 26.577 19.78 48.683 93.318 67.953 161.532 66.432 68.214-1.775 131.356-24.595 148.092-69.221 2.764-7.412 4.269-15.418 4.626-23.788H.113z" fill="#9ED9F0"/>
  <path d="M3.615 179.155a70.203 70.203 0 002.052 5.77c19.78 48.683 93.319 67.953 161.532 66.432 68.214-1.775 131.356-24.595 148.093-69.221.366-.984.711-1.978 1.034-2.981H3.615z" fill="#FFE0B3"/>
  <path d="M117.082 164.254l-9.483-.903-6.05 4.786-2.306 8.904 2.848 6.087-6.232-2.618-14.496 16.24-2.641 13.818 4.875 3.453h42.06l6.096-19.912-.205-16.254-14.466-13.601z" fill="#D2E4FF"/>
  <path opacity=".5" d="M95.86 180.509s5.508 7.225 6.683 7.498c1.175.273 4.784-.27 4.696-.812-.088-.542-5.148-4.064-5.148-4.064l-6.232-2.622zM81.363 196.75l7.669 5.734a2.09 2.09 0 01.799 2.089c-.341 1.692-.968 4.439-1.468 4.564-.72.181-7-12.387-7-12.387zM130.313 195.591s-10.972 5.688-11.377 6.638c-.405.95 3.387 8.67 4.876 7.585 1.49-1.085 6.501-14.223 6.501-14.223z" fill="#AED3FF"/>
  <path d="M103.987 165.247s-7.856-2.077-8.579-1.715c-.723.362-4.335 5.327-3.974 6.231.36.904 12.553-4.516 12.553-4.516z" fill="#D2E4FF"/>
  <path d="M104.529 160.371l-.542 4.876 3.342-2.973s-1.264-2.445-2.8-1.903z" fill="#C0DBFF"/>
  <path d="M105.048 165.608c0-.067-.112-1.084-.293-1.034-.181.049-1.4.79-1.4.925 0 .136-.225 1.152.248 1.107.473-.045 1.445-.998 1.445-.998z" fill="#C0DBFF"/>
  <path opacity=".5" d="M104.619 166.144s-1.174 4.245-.993 4.607c.181.362 2.62 3.115 2.935 2.973.316-.142-1.942-7.58-1.942-7.58zM104.981 165.925s1.354 4.244 1.716 4.199c.362-.045 2.257-3.386 1.987-3.658-.27-.271-3.703-.541-3.703-.541zM105.177 165.7l1.154-.592a.2.2 0 01.086-.023.2.2 0 01.087.015l.481.199a.112.112 0 01.054.047.11.11 0 01-.019.133.113.113 0 01-.065.031l-1.778.19zM104.245 166.307l-.659.661a.251.251 0 00-.052.08.231.231 0 00.012.187.256.256 0 00.062.073l.224.171a.132.132 0 00.121.015.13.13 0 00.08-.092l.212-1.095z" fill="#AED3FF"/>
  <path d="M104.101 165.247c-.102-.033-5.08-.541-5.487-.338-.406.203-2.269 1.93-1.524 2.032.745.102 7.011-1.694 7.011-1.694z" fill="#C0DBFF"/>
  <path d="M83.597 214.021s17.501-2.626 19.307-1.994c1.806.632 8.037 1.897 8.037 1.897s7.767-1.987 8.579-1.536c.812.451 1.897 1.626 1.897 1.626l-37.82.007z" fill="#AED3FF"/>
  <path d="M169.893 208.887c-.357 1.202-2.004 2.004-2.226 3.474-.185 1.219-.83 1.978-1.503 2.198h-4.266c-.102-.237-.333-1.014.869-1.276 1.422-.312 1.963-2.039 1.873-3.642a21.34 21.34 0 01.013-2.102c.045-.918.12-1.64.12-1.64l3.029-.712.318.408.306.388s1.824 1.702 1.467 2.904zM145.68 214.568h-10.343c.108-.372.457-1.009 1.601-1.195 1.596-.259 4.363-1.187 4.98-3.232.019-.066.037-.129.053-.202.49-2.182 4.053.669 4.053.669l.025.236c.079.795.289 3.351-.369 3.724z" fill="#233862"/>
  <path d="M137.358 156.199s.542 6.751 1.178 14.867c.863 11.024 1.903 24.563 2.006 27.131.179 4.455.891 11.581.891 11.581s1.692 1.692 5.078.98c0 0 3.018-10.173 3.879-20.936l.04-.531c.801-10.957 2.049-34.028 2.049-34.028l-15.121.936z" fill="#2B478B"/>
  <path d="M137.358 156.199s.542 6.751 1.178 14.867l11.854 18.756.04-.531c.801-10.957 2.049-34.028 2.049-34.028l-15.121.936z" fill="#233862"/>
  <path d="M139.83 157s9.753 24.451 16.16 35.94c6.407 11.489 8.419 14.697 8.419 14.697s3.674-1.47 4.007-2.472c0 0-2.456-22.183-6.747-27.591-2.426-3.056-5.278-12.226-5.411-15.432-.133-3.206-.869-9.554-.869-9.554L139.83 157z" fill="#2B478B"/>
  <path d="M152.661 119.319s-6.593 3.232-10.403 2.034a9.023 9.023 0 012.575-2.093 34.523 34.523 0 01-.293-2.02 18.825 18.825 0 01-.16-2.068l2.545-2.034 2.415-1.947c-.189 5.479 3.321 8.128 3.321 8.128z" fill="#FFB27D"/>
  <path d="M156.141 153.843c.015.41-.849.878-1.229 1.054-2.825 1.258-5.458 2.136-8.443 2.429-3.527.366-7.698-.439-9.131-.41a.589.589 0 01-.396-.161c-.102-.073-.176-4.396-.102-9.825 0-.219 0-.439.014-.658v-.074c.03-2.122.102-4.345.206-6.57.204-4.887.584-9.599 1.228-12.204.776-3.073 2.532-5.107 4.126-6.586l1.318-1.163a6.237 6.237 0 004.097-.498c1.523-.746 3.186-1.584 3.45-1.378 1.991 1.478 3.311 4.831 4.027 9.075.427 2.661.628 5.353.6 8.048 0 1.054-.028 2.137-.086 3.205-.352 5.796 0 10.828.204 13.741.058.848.102 1.507.117 1.975z" fill="#A8D29F"/>
  <path d="M156.023 151.867c-31.974-.044-5.898-23.838-5.898-23.838l5.18-1.156c.427 2.661.628 5.353.6 8.048 0 1.053-.029 2.137-.087 3.205-.35 5.797.002 10.829.205 13.741z" fill="#82B378"/>
  <path d="M141.802 136.21l-.102 2.429-.104 2.253-.322 7.698-4.535 7.858s-3.395 3.6-12.131 3.6c-10.887 0-12.497-6-12.497-6l.13-9.717 3.994-5.721-1.991-5.722 4.913-8.791 6.527-3.453 4.127 1.068 3.467-.804 5.459 2.531 3.065 12.771z" fill="#699FF0"/>
  <path d="M129.542 120.898l-.981-3.14a.554.554 0 00-.559-.388c-.88.045-2.809.163-2.809.335 0 .219 4.349 3.193 4.349 3.193zM130.075 121.031l.142-2.162a.445.445 0 01.562-.4l.887.243a.75.75 0 01.155 1.389l-1.746.93z" fill="#4A75CB"/>
  <path d="M128.745 121.08c.069-.129.14-.259.197-.358a.483.483 0 01.419-.248l1.248-.017a.485.485 0 01.388.195l.193.259a.476.476 0 01.092.368l-.031.19a.486.486 0 01-.503.407l-1.608-.077a.481.481 0 01-.396-.25.483.483 0 01.001-.469zM119.167 124.1l2.607 6.852a.469.469 0 00.426.303.472.472 0 00.445-.275l1.06-2.327a.946.946 0 00-.268-1.127l-4.27-3.426zM116.451 138.886s3.196 3.891 2.574 4.512c-.622.62-6.38.937-6.38.937l3.806-5.449zM141.266 148.595s-11.871 3.945-11.221 5.365c.65 1.419 6.695 2.49 6.695 2.49l4.526-7.855zM141.698 138.639l-.103 2.253-11.033 1.069a.415.415 0 01-.259-.761l6.82-4.331a1.45 1.45 0 011.478-.03l3.097 1.8zM128.522 122.318l-2.981.762a.753.753 0 00-.517.455.747.747 0 00-.049.35c.011.12.05.234.114.335l.353.554a.59.59 0 00.191.184.565.565 0 00.514.036.573.573 0 00.215-.156l2.16-2.52zM130.075 122.229l2.981-.517a.74.74 0 01.552.129l1.189.859a.257.257 0 01.076.306.262.262 0 01-.112.123.267.267 0 01-.164.029l-4.522-.929z" fill="#4A75CB"/>
  <path d="M133.583 142.066l-1.183-.38s-.828-2.741-3.629-1.514c0 0-1.136.603-.636 1.316.501.714.41.338 1.094 1.365.684 1.028 1.767 1.514 2.63 1.126l.983.029.741-1.942z" fill="#AB7041"/>
  <path d="M152.661 119.311s7.24 11.515-.473 24.822c-2.407 4.154-20.593.206-20.593.206s-.708-1.28 1.189-2.63c0 0 12.107-2.049 13.552-2.393 1.279-.305.426-12.072 1.89-15.486 1.463-3.414 4.435-4.519 4.435-4.519z" fill="#A8D29F"/>
  <path d="M149.385 113.29s-1.668 3.087-4.844 3.95a18.825 18.825 0 01-.16-2.068l2.545-2.034 2.459.152z" fill="#ED985F"/>
  <path d="M143.224 115.088s6.296 1.046 6.886-2.884c.591-3.931 1.801-6.444-2.197-7.278-3.999-.833-5.002.549-5.519 1.81-.517 1.262-.797 7.978.83 8.352z" fill="#FFB27D"/>
  <path d="M150.065 112.475s-.129-5.265-5.864-6.111c-3.929-.579-1.551-3.862-1.1-4.381 0 0 3.003.572 6.076 1.247 6.458 1.416 1.57 8.462.888 9.245z" fill="#233862"/>
  <path d="M48.462 193.587c-1.014 9.089-1.529 16.289-1.529 16.289l-2.26 2.469s-2.68-11.597-3.175-18.762c1.284.463 3.642.928 6.964.004zM62.27 210.182l-1.666 2.552s-5.237-12.443-6.745-19.63c2.447.393 4.957.011 7.176-1.093.39 10.275 1.235 18.171 1.235 18.171zM75.31 154.556s-9.58 8.186-11.332 9.154c-1.752.968-9.46 7.904-9.46 7.904-.875-.022-1.647 1.119-1.647 1.119-.841.694-.98 1.674-.949 2.38a.338.338 0 00.595.2c.846-.992 2.54-2.395 2.54-2.395s8.445-3.893 10.552-5.336c2.108-1.443 12.023-6.955 12.023-6.955l-2.323-6.071z" fill="#FFB27D"/>
  <path d="M95.569 150.412s2.585-1.577.427-5.429c0 0 .864 1.897.272 2.677 0 0 .23-1.789-.676-2.586-.906-.796-2.974-.325-3.544.012-.57.337-2.06 1.991-1.837 2.715.224.724 1.117 1.369 1.117 1.369l4.24 1.242z" fill="#942E2A"/>
  <path d="M94.983 158.734s4.654-7.18-.228-8.694c0 0-1.5-1.797-5.243-1.449-3.822.355-5.802 3.586-4.746 4.609.679.655-.517 1.68-.517 1.68l10.734 3.854z" fill="#942E2A"/>
  <path d="M80.701 161.382c0 .023-1.614-1.603-1.67-3.188-.053-1.49-.13-3.373-.13-3.362.298.546 2.731.896 6.161-.186l.03.28.501 4.691s-1.422.334-2.733.738c-1.097.347-2.12.739-2.159 1.027z" fill="#FFB27D"/>
  <path d="M85.597 159.624s-1.422.333-2.733.738c-.7-2.494 1.148-4.504 2.232-5.43l.501 4.692z" fill="#ED985F"/>
  <path d="M85.436 154.323s1.644-1.939 3.297-2.79c1.182-.611 6.015-1.422 6.798 3.446.161.978.102 1.98-.175 2.933-.368 1.223-1.388 3.141-5.946 2.769h-1.497l-2.477-6.358z" fill="#942E2A"/>
  <path d="M84.615 160.836s-1.92-5.817 1.723-6.96c3.643-1.143 5.85-2.658 7.23 1.011 1.379 3.669.215 4.828-.906 5.504-1.12.677-7.455 1.931-8.047.445z" fill="#FFB27D"/>
  <path d="M94.485 157.523s-4.774-.269-6.173-2.532c-1.399-2.262-1.072-3.533-1.072-3.533 1.626.243 3.236.575 4.824.996 1.359.358 4.081 3.227 2.421 5.069z" fill="#942E2A"/>
  <path d="M92.814 191.335s-2.68-4.097-4.976-7.844c-1.464-2.385-2.766-4.623-3.117-5.546-.905-2.385-9.511-15.935-9.511-15.935l8.077-1.829s4.097 13.565 5.546 16.477c.517 1.053 1.422 3.204 2.341 5.531 1.64 4.097 3.38 8.707 3.38 8.707s-1.93 1.536-1.74.439z" fill="#FFB27D"/>
  <path d="M83.66 160.981s-1.99-5.14-3.642-5.766l-.034-.009a3.81 3.81 0 00-1.19-.975c-4.862-2.715-13.243-4.103-22.098-3.308 0 0-8.11.668-13.094 5.43-2.155 2.055 7.93 3.19 7.93 3.19.42.13.831.267 1.236.419 1.774.669 3.42 1.558 5.064 2.393 1.475.747 2.951 1.449 4.525 1.908.598.176 1.208.31 1.825.402 1.726.259 3.193.446 4.384.593a9.356 9.356 0 006.935-1.947c.418.469.892 1.034 1.422 1.7 0-.006 3.508-3.347 6.738-4.03z" fill="#FFB93E"/>
  <path d="M74.018 161.861s-1.837-2.398-6.524-1.66c-3.727.587-11.308 1.314-9.662 2.148 0 0 .477.24.716.358l.258.129.202.097c.13.065.267.129.401.189l.146.067.438.198.118.05c.154.068.309.13.464.196l.096.038c.161.065.324.13.487.19l.076.028c.171.062.34.129.517.181l.056.018c.173.057.347.111.517.163l.023.007a13.7 13.7 0 001.835.408c1.726.258 3.193.446 4.384.592a9.333 9.333 0 006.951-1.96l-1.5-1.437z" fill="#E28D05"/>
  <path d="M54.936 160.116a28.603 28.603 0 00-1.164 3.091 58.973 58.973 0 00-1.093 3.948c-.814 3.322-1.543 7.192-2.185 11.224a283.89 283.89 0 00-1.144 7.947c0 .046-.012.091-.017.13-.317 2.438-.603 4.84-.856 7.124v.046c-3.264.835-5.616.434-6.954 0v-.046c-.212-3.075-.113-5.733.609-7.043 1.347-2.456-2.745-21.848.151-28.183 2.896-6.335 10.692-3.232 10.692-3.232l1.96 4.994z" fill="#739CF3"/>
  <path d="M53.772 163.207a58.973 58.973 0 00-.954 3.383c-.046.188-.094.375-.14.565-.813 3.322-1.542 7.192-2.184 11.225-.418 2.616-.8 5.3-1.145 7.946 0 .046-.011.091-.016.13-6.53-24.273-1.43-24.376-1.43-24.376l5.87 1.127z" fill="#6488D3"/>
  <path d="M60.904 178.369c-.103 4.776-.027 9.438.13 13.648v.129a14.027 14.027 0 01-7.173 1.013c0-.017-.006-.033-.01-.049-.535-2.558-.733-4.771-.283-6.077.59-1.718-1.466-6.809-2.88-14.321l-2.39-3.491c-2.07-4.046-2.262-5.894-1.564-8.23.776-2.621 5.16-5.042 6.222-5.855l1.782.776c4.256 1.89 6.795 6.232 6.557 10.881a439.688 439.688 0 00-.39 11.576z" fill="#739CF3"/>
  <path d="M44.202 214.549h1.292c.432-.067.751-.192 1.195-.25.672-.088.982.187 1.044.25l.012.013h5.48c.139-.196 0-.646-.13-.987a.78.78 0 00-.517-.47c-.58-.168-1.725-.318-2.775-1.268-.59-.534-2.85-1.961-2.85-1.961h-.012c-.05 0-.287.072-1.315.941-.531.447-1.438-.632-1.438-.632a1.367 1.367 0 00-.415 1.244c.083.493-.18 1.411-.387 2.032-.13.376-.236.646-.236.646s-.058.304 1.052.442z" fill="#D8716B"/>
  <path d="M43.9 210.584c.308.218.959.647 1.39.701.582.076 1.67-1.409 1.67-1.409h-.01c-.051 0-.288.072-1.316.941-.531.447-1.437-.632-1.437-.632a1.297 1.297 0 00-.298.399zM44.202 214.549h1.292c.432-.067.751-.192 1.195-.25.672-.088.982.187 1.044.25l.012.013h5.48c.139-.196 0-.646-.13-.987-.164-.149-.212.646-.304.768-.092.121-4.47.046-4.724-.137-.253-.184-1.011-.507-2.069-.259-.921.22-2.277-.344-2.612-.494-.13.376-.236.647-.236.647s-.058.311 1.052.449z" fill="#AA3F3A"/>
  <path d="M59.56 214.549h1.293c.432-.067.751-.192 1.195-.25.673-.088.982.187 1.044.25l.012.013h5.481c.139-.196 0-.646-.129-.987a.779.779 0 00-.517-.47c-.582-.168-1.727-.318-2.777-1.268-.59-.534-2.85-1.961-2.85-1.961H62.3c-.05 0-.286.072-1.315.941-.531.447-1.436-.632-1.436-.632-.125.113-.226.25-.298.402a1.36 1.36 0 00-.117.842c.081.493-.183 1.411-.388 2.032-.13.376-.235.646-.235.646s-.061.304 1.05.442z" fill="#D8716B"/>
  <path d="M59.258 210.584c.307.218.957.647 1.39.701.581.076 1.67-1.409 1.67-1.409h-.012c-.05 0-.286.072-1.315.941-.531.447-1.436-.632-1.436-.632a1.27 1.27 0 00-.297.399zM59.56 214.549h1.293c.432-.067.751-.192 1.194-.25.674-.088.983.187 1.045.25l.012.013h5.481c.139-.196 0-.646-.13-.987-.166-.149-.212.646-.304.768-.092.121-4.472.046-4.725-.137-.254-.184-1.011-.507-2.069-.259-.92.22-2.276-.344-2.613-.494-.129.376-.235.647-.235.647s-.06.311 1.051.449z" fill="#AA3F3A"/>
  <path d="M94.97 195.735c-.905-.088.275-.995-.457-2.197 0 0-1.89-1.108-1.7-2.206 0 0-2.678-4.097-4.976-7.843a9.04 9.04 0 003.337-1.302c1.64 4.097 3.38 8.707 3.38 8.707s.959 1.355 1.88 2.734c.304.46-1.083 2.136-1.464 2.107z" fill="#D8716B"/>
  <path d="M275.64 165.958c-.394.966-3.014.702-5.033-.673-2.019-1.376-4.888-2.62-6.527-3.761-1.229-.834-2.502-3.995-3.468-5.947a11.116 11.116 0 00-.673-1.2c-1.186-.351-1.112-1.581-2.21-1.975-1.301-.454-.905-1.186-.905-1.186a4.67 4.67 0 012.078-.278c.41.059 1.229 1.244 1.713 1.99.454.336.994.79 1.58 1.317 1.581 1.406 3.361 3.22 4.082 4.112.834 1.034 6.234 2.181 7.698 3.38 2.602 2.153 1.665 4.221 1.665 4.221zM266.298 180.825l5.661 31.431 1.961.129s1.541-13.688.221-18.413c-1.319-4.725 2.278-10.701 1.267-14.799-1.011-4.098-9.11 1.652-9.11 1.652z" fill="#ED985F"/>
  <path d="M272.805 163.462l-4.944-.804c-.235-.803-.302-1.907-.306-2.882 0-1.213.093-2.226.093-2.226l3.99-.388 1.771-.172c-.974 1.858-.604 6.472-.604 6.472z" fill="#FFB27D"/>
  <path d="M272.951 157.969s-2.641 2.252-5.396 1.81c0-1.213.093-2.226.093-2.226l3.99-.388 1.313.804z" fill="#ED985F"/>
  <path d="M270.06 188.568c-1 2.783-1.899 5.62-1.449 7.946.134.7.221 1.41.258 2.122.037.666.038 1.342.011 2.02-.22 5.48-2.307 11.065-2.63 11.893l-.041.108-1.736-.185-.746-32.979s7.925-3.201 8.367.996c.226 2.176-.962 5.098-2.034 8.079z" fill="#FFB27D"/>
  <path d="M274.798 190.437s-.507.073-1.259.154c-1.412.155-3.687.339-5.094.122-.671-.102-1.046-1.209-1.223-2.697-.387-3.295.194-8.452.726-8.681.775-.332 7.619-.052 7.619-.052s1.495 3.698-.769 11.154z" fill="#B84C42"/>
  <path d="M273.65 190.591c-1.411.155-3.688.339-5.095.122-.669-.102.925-7.195 2.53-8.838.529-.54 2.817-1.104 2.817-1.104s1.132 4.709-.252 9.82z" fill="#AA3E39"/>
  <path d="M263.695 179.389s-1.473 6.518-1.252 11.674c0 0 3.351.663 6.776 0 0 0 5.671-8.249 5.192-10.899-.48-2.651-9.276-1.622-10.716-.775z" fill="#B84C42"/>
  <path d="M266.389 156.756s4.609 3.654 6.84.749 4.328-4.396 1.48-6.846c-2.848-2.45-4.278-1.792-5.259-1.003-.981.789-4.203 6.075-3.061 7.1z" fill="#FFB27D"/>
  <path d="M278.779 151.75c-.18-.05-.37-.05-.55 0 .373-.687.093-1.754.093-1.754.093.584-.433 1.273-.433 1.273-.031-2.168-5.393-3.51-5.888-3.647-.495-.137-.435-.964-.435-.964-1.022.207-2.107 1.514-2.076 2.787.031 1.274 1.085 3.716 1.766 3.749.681.034.372.585-.093 1.342-.466.758.14 2.813.976 3.536.675.582 1.028.095 1.422-.12.098-.054.203-.094.312-.119 1.563-.349 3.19-1.894 4-3.864.244-.625.368-1.29.364-1.961.171-.105.352-.192.542-.258z" fill="#2C3A64"/>
  <path d="M268.884 200.656c-.22 5.48-2.306 11.065-2.63 11.893l-1.292-.077c.165-.221 2.705-11.656 3.921-11.821l.001.005z" fill="#ED985F"/>
  <path d="M274.184 214.553h-1.093c-.367-.051-.638-.144-1.014-.188-.571-.066-.834.14-.887.188l-.009.009h-4.654c-.116-.147 0-.49.106-.74a.63.63 0 01.435-.352c.493-.129 1.466-.239 2.355-.952.502-.4 2.419-1.471 2.419-1.471h.01c.042 0 .242.056 1.115.706.451.336 1.219-.474 1.219-.474.103.083.189.186.252.302a.913.913 0 01.099.631c-.068.371.155 1.059.334 1.524.108.283.199.484.199.484s.052.229-.886.333z" fill="#739CF3"/>
  <path d="M274.443 211.579c-.259.162-.813.483-1.179.526-.494.057-1.422-1.058-1.422-1.058h.01c.042 0 .242.056 1.115.706.451.336 1.219-.474 1.219-.474a.977.977 0 01.257.3zM274.184 214.553h-1.093c-.367-.051-.638-.144-1.014-.188-.571-.066-.834.14-.887.188l-.009.009h-4.654c-.116-.147 0-.49.106-.74.141-.112.181.482.259.576.077.095 3.793.035 4.007-.103.215-.139.859-.38 1.756-.19.776.165 1.931-.259 2.216-.371.108.283.199.483.199.483s.052.232-.886.336z" fill="#415DA5"/>
  <path d="M266.699 214.553h-1.094c-.367-.051-.637-.144-1.013-.188-.572-.066-.834.14-.887.188l-.011.009h-4.654c-.117-.147 0-.49.105-.74a.644.644 0 01.436-.352c.492-.129 1.464-.239 2.355-.952.5-.4 2.418-1.471 2.418-1.471h.01c.043 0 .243.056 1.116.706.451.336 1.219-.474 1.219-.474a1 1 0 01.258.302.914.914 0 01.1.631c-.07.371.154 1.059.333 1.524.109.283.199.484.199.484s.052.229-.89.333z" fill="#739CF3"/>
  <path d="M266.956 211.579c-.258.162-.813.483-1.179.526-.494.057-1.422-1.058-1.422-1.058h.01c.043 0 .243.056 1.116.706.451.336 1.219-.474 1.219-.474.104.082.191.184.256.3zM266.699 214.553h-1.094c-.367-.051-.637-.144-1.013-.188-.572-.066-.834.14-.887.188l-.011.009h-4.654c-.117-.147 0-.49.105-.74.142-.112.181.482.259.576.077.095 3.793.035 4.007-.103.215-.139.857-.38 1.755-.19.775.165 1.931-.259 2.217-.371.108.283.199.483.199.483s.059.232-.883.336z" fill="#415DA5"/>
  <path d="M275.701 179.646s-3.475 1.422-8.866.505a23.876 23.876 0 01-3.141-.762l.697-12.517.335-6.006s1.86-.57 2.761-.624c0 0 3.775.449 5.239.063 0 0 1.768.746 2.456 1.713.688.967 1.806 10.117.519 17.628z" fill="#739CF3"/>
  <path d="M266.799 180.157c-.984-.196-2-.366-3.103-.768l.732-14.394 2.197-.288s1.901 9.338.174 15.45z" fill="#6488D3"/>
  <path d="M267.782 165.958c-.41.966-3.029.702-5.034-.673-.174-.117-.35-.234-.54-.351-1.961-1.229-4.508-2.371-6-3.41-1.405-.966-2.883-4.989-3.879-6.723a3.745 3.745 0 00-.258-.424c-1.171-.365-1.098-1.581-2.198-1.975-1.303-.454-.922-1.186-.922-1.186a4.727 4.727 0 012.078-.278c.424.059 1.244 1.244 1.712 1.99.321.25.717.556 1.127.893 1.668 1.448 3.761 3.556 4.536 4.536.6.747 3.556 1.551 5.721 2.371.849.337 1.581.673 1.991 1.009 2.604 2.153 1.666 4.221 1.666 4.221z" fill="#FFB27D"/>
  <path d="M267.782 165.958c-.41.966-3.029.702-5.034-.673-.174-.117-.35-.234-.54-.351 2.068-1.537 2.019-3.468 1.916-4.2.849.337 1.581.674 1.991 1.01 2.604 2.146 1.667 4.214 1.667 4.214z" fill="#739CF3"/>
  <path d="M262.192 154.256c-.176.482-.614 1.034-1.58 1.331a11.007 11.007 0 00-.673-1.199c-1.186-.352-1.112-1.581-2.21-1.976-1.301-.453-.905-1.185-.905-1.185a4.67 4.67 0 012.078-.278c.41.058 1.229 1.244 1.713 1.989.451.337.991.79 1.577 1.318z" fill="#FFA412"/>
  <path d="M258.913 153.41c-.558.432-2.047 1.94-2.047 1.94l-3.434-4.439s1.756-1.109 2.343-1.551c.531-.409 2.097-1.876 2.097-1.876l3.432 4.438s-1.833 1.057-2.391 1.488z" fill="#B84C42"/>
  <path d="M258.912 153.41c-.557.432-2.046 1.94-2.046 1.94l-2.419-3.126s1.756-1.11 2.343-1.552c.531-.408 2.097-1.876 2.097-1.876l2.417 3.126s-1.833 1.057-2.392 1.488z" fill="#AA3E39"/>
  <path d="M261.249 151.041l-3.423-4.434-.355.274 3.424 4.433.354-.273zM256.845 155.353l-3.434-4.439-.355.274 3.434 4.439.355-.274z" fill="#B84C42"/>
  <path opacity=".5" d="M254.247 151.528l-3.638 4.458a1.245 1.245 0 01-1.743.175l-1.831-1.49a1.313 1.313 0 01-.186-1.842l3.593-4.404a2.383 2.383 0 012.476-.784.274.274 0 00.304-.115.575.575 0 01.06-.086l.193-.235 1.357 1.108-.192.235a.659.659 0 01-.082.085.242.242 0 00-.055.286 2.388 2.388 0 01-.256 2.609z" fill="#AED3FF"/>
  <path opacity=".3" d="M254.247 151.528l-3.638 4.458a1.245 1.245 0 01-1.743.175l-1.148-.936a1.313 1.313 0 01-.186-1.843l3.593-4.396a2.39 2.39 0 012.475-.786c.043.01.087.01.13 0a.257.257 0 00.176-.119.83.83 0 01.06-.086l.193-.235.679.554-.193.235a.735.735 0 01-.081.086.235.235 0 00-.056.285 2.389 2.389 0 01-.261 2.608z" fill="#CED4EA"/>
  <path opacity=".3" d="M253.499 150.914l-3.638 4.458a1.242 1.242 0 01-1.742.175l-.396-.321a1.318 1.318 0 01-.186-1.844l3.593-4.396a2.39 2.39 0 012.475-.786c.043.01.087.01.13 0a.206.206 0 00.026.106 2.388 2.388 0 01-.262 2.608z" fill="#CED4EA"/>
  <path d="M250.135 148.809L248 151.425l3.801 3.102 2.135-2.616-3.801-3.102zM253.705 146.766l-.291.358 1.512 1.229.291-.358-1.512-1.229z" fill="#2C3A64"/>
  <path d="M253.867 153.832c-.259.388-.732.746-1.538.98a3.659 3.659 0 00-.258-.424c-1.171-.366-1.098-1.581-2.198-1.976-1.303-.454-.922-1.185-.922-1.185a4.699 4.699 0 012.078-.278c.424.058 1.244 1.243 1.712 1.989.32.25.716.556 1.126.894z" fill="#FFA412"/>
  <path d="M237.514 150.003c-.548 0-11.34-.549-11.34-.549l7.498 7.998 16.466 3.506-12.624-10.955z" fill="#4A75CB"/>
  <path d="M244.98 160.239c-.358 1.094-.988 4.496-.988 4.496l-8.707-2.844s1.356-3.103 1.736-4.252c.346-1.034 1.114-4.455 1.114-4.455l8.707 2.844s-1.504 3.116-1.862 4.211z" fill="#F0D170"/>
  <path opacity=".3" d="M244.98 160.239c-.358 1.094-.988 4.496-.988 4.496l-6.135-2.009s1.354-3.102 1.736-4.25c.345-1.035 1.113-4.457 1.113-4.457l6.133 2.008s-1.501 3.117-1.859 4.212z" fill="#DC8D39"/>
  <path d="M238.351 152.47l-.228.696 8.706 2.849.228-.696-8.706-2.849zM235.273 161.871l-.228.697 8.707 2.847.228-.696-8.707-2.848z" fill="#DC8D39"/>
  <path d="M246.629 157.794l3.144 4.818a1.244 1.244 0 01-.361 1.715l-1.975 1.293a1.316 1.316 0 01-1.81-.382l-3.103-4.76a2.382 2.382 0 010-2.596.267.267 0 00-.017-.324.836.836 0 01-.063-.084l-.166-.259 1.468-.958.165.259a.69.69 0 01.057.103c.021.049.058.09.105.115a.234.234 0 00.153.026 2.378 2.378 0 012.403 1.034z" fill="#ECF2FD"/>
  <path d="M246.628 157.794l3.144 4.819a1.244 1.244 0 01-.36 1.714l-1.243.81a1.312 1.312 0 01-1.81-.387l-3.102-4.761a2.373 2.373 0 010-2.596.282.282 0 00.035-.229.253.253 0 00-.052-.095.836.836 0 01-.063-.084l-.167-.259.734-.479.166.258a.8.8 0 01.056.104.25.25 0 00.105.115.249.249 0 00.154.026 2.377 2.377 0 012.403 1.044z" fill="#E5EAF5"/>
  <path opacity=".3" d="M245.814 158.331l3.144 4.818a1.244 1.244 0 01-.361 1.714l-.428.28a1.314 1.314 0 01-1.81-.388l-3.102-4.76a2.378 2.378 0 010-2.596.314.314 0 00.044-.122.208.208 0 00.108.008 2.38 2.38 0 012.405 1.046z" fill="#CED4EA"/>
  <path d="M246.897 158.197l-4.11 2.681 1.846 2.828 4.109-2.68-1.845-2.829z" fill="#D3652C"/>
  <path d="M244.92 155.811l-1.637 1.072.254.387 1.637-1.071-.254-.388z" fill="#F0D170"/>
  <path d="M235.796 155.754l1.164 5.634a1.247 1.247 0 01-.962 1.465l-2.309.478a1.315 1.315 0 01-1.552-1.017l-1.153-5.559a2.382 2.382 0 01.952-2.415.28.28 0 00.103-.137.273.273 0 00-.001-.172.885.885 0 01-.027-.101l-.062-.299 1.715-.354.062.298a.645.645 0 01.014.116.246.246 0 00.056.144c.034.04.08.068.132.08a2.39 2.39 0 011.868 1.839z" fill="#ECF2FD"/>
  <path d="M235.796 155.754l1.164 5.634a1.247 1.247 0 01-.962 1.465l-1.451.3a1.314 1.314 0 01-1.551-1.016l-1.152-5.559a2.382 2.382 0 01.95-2.417.277.277 0 00.117-.199.261.261 0 00-.013-.108.975.975 0 01-.029-.102l-.061-.298.857-.177.063.298a.896.896 0 01.014.116.238.238 0 00.187.224 2.378 2.378 0 011.867 1.839z" fill="#E5EAF5"/>
  <path opacity=".3" d="M234.844 155.952l1.164 5.634a1.24 1.24 0 01-.962 1.463l-.499.104a1.314 1.314 0 01-1.551-1.016l-1.152-5.559a2.382 2.382 0 01.95-2.416.29.29 0 00.085-.096.23.23 0 00.099.046 2.385 2.385 0 011.866 1.84z" fill="#CED4EA"/>
  <path d="M235.895 156.236l-4.805.995.685 3.307 4.804-.995-.684-3.307zM233.661 152.791l-1.907.398.094.452 1.907-.399-.094-.451z" fill="#F0D170"/>
  <path d="M255.784 192.924l-1.859 11.818-.542 3.409-1.068 6.834h-14.458s-1.903-1.163-4.376-2.707c-4.215-2.649-10.039-6.335-10.623-6.994-.382-.425-1.035-3.62-1.681-7.214-.905-5.136-1.785-11.136-1.785-11.136l5.3-9.893-4.566-10.93 6.03-16.662 7.491 7.999 16.477 3.49 5.66 31.986z" fill="#699FF0"/>
  <path d="M234.291 190.746l-1.647 9.329 12.348-8.597-10.701-.732zM253.901 204.742l-1.609 10.243h-14.457s-1.902-1.163-4.375-2.707l-1.2-3.527 13.901-6.306 1.668-.088 6.072 2.385z" fill="#5286D8"/>
  <path d="M255.784 192.923l-1.859 11.819-.542 3.409c-.936-.468-7.462-3.833-7.199-5.706.278-2 9.6-9.522 9.6-9.522zM222.86 205.289s8.779 2.652 9.419 3.475c.64.824 2.47 4.299 2.47 4.299l-11.889-7.774z" fill="#4A75CB"/>
  <path d="M232.644 200.075l-.366 8.689 13.905-6.314 9.599-9.527-8.779-11.596-4.207 11.157-10.152 7.591z" fill="#5286D8"/>
  <path d="M234.291 190.746s6.95-2.011 7.59-2.925c.64-.914 5.122-6.494 5.122-6.494s-1.189 9.05-2.011 10.151c-.822 1.102-10.701-.732-10.701-.732z" fill="#4A75CB"/>
  <path d="M228.595 184.187l-7.416 13.888c-.905-5.136-1.785-11.136-1.785-11.136l4.2-4.946 5.001 2.194z" fill="#5286D8"/>
  <path d="M228.595 184.187s-4.025-1.581-9.205 2.751l5.301-9.893 3.904 7.142zM220.122 166.116l12.248 3.2 5.122 7.804-17.37-11.004z" fill="#4A75CB"/>
  <path d="M212.448 106.951c-.01-.259-.215-3.103-4.539-3.251 0 0 2.127.258 2.494 1.188 0 0-1.448-1.155-2.627-.784-1.179.371-1.872 2.438-1.879 3.117-.006.679.647 2.871 1.396 3.058.299.06.607.06.905 0-.213.333-.407.678-.58 1.034-1.726 3.542.054 7.004 1.515 6.622.937-.246 1.202 1.353 1.202 1.353l9.103-7.369s-3.342-6.915-6.99-4.968z" fill="#2C3A64"/>
  <path d="M237.872 147.88c-.439-.438-3.087-.336-3.087-.336s-1.463-.586-3.263-1.376c-2.503-1.112-5.65-2.605-6.335-3.361-1.594-1.77-3.511-7.712-5.311-11.635a33.413 33.413 0 00-.483-1.054.369.369 0 00-.058-.102c-.088-.162-.162-.308-.234-.44 0-.014-.016-.029-.03-.044a6.67 6.67 0 00-1.01-1.491v-.016c-.395-.424-.775-.6-1.126-.454a5.09 5.09 0 00-1.391 1.186c-.08.072-.149.156-.204.249a6.115 6.115 0 00-1.083 2.166 7.552 7.552 0 00-.249 2.399c.059 1.508.805 3.395 1.874 5.301.042.089.091.176.146.258 2.048 3.586 5.194 7.171 7.11 8.341 1.258.776 4.419 1.244 7.082 1.508 1.771.19 3.337.278 3.981.322.278.307 2.297 2.619 3.058 1.947.833-.719 1.053-2.929.613-3.368z" fill="#ED985F"/>
  <path d="M216.267 137.394c-.166.902-.441 1.78-.82 2.615-.292.667-.627 1.293-.969 1.96-1.007 1.939-3.241 2.827-3.457 6.619-.074 1.306.09 2.957.627 5.112 2.644 10.624-18.24 1.573-17.065-1.179 2.347-5.469 5.524-8.562 5.631-13.135a573.097 573.097 0 01-.009-8.172v-.106c.009-.663 0-1.144-.014-1.271 1.714-6.233 5.116-6.133 6.275-6.069.429.023.881.068 1.25.114.745-.388 2.08-2.276 2.854-5.43l.258.129 4.387 2.062s-.467 1.422-.81 2.793c-.269 1.067-.461 2.099-.3 2.389.346.141.552.228.552.228.075.178 2.506 6.366 1.61 11.341z" fill="#FFB27D"/>
  <path d="M215.443 140.009c-.292.667-.627 1.293-.969 1.96-1.008 1.939-3.241 2.828-3.457 6.619l-.206.011c-8.176.332-10.601-9.248-10.601-9.248-.01-.222-.018-.816-.023-1.602l14.709.576c.216.55.398 1.112.547 1.684z" fill="#ED985F"/>
  <path d="M215.62 211.594l-1.605.837s-8.727-12.038-9.759-22.287c-.185-1.829-.13-3.602.274-5.238l-.467-2.686c-.272-1.564-.647-3.705-1.077-6.14-.989-5.61-2.269-12.78-3.264-18.05l.517-.169 11.189-3.61s3.611 10.517 1.588 26.414a81.806 81.806 0 01-.737 4.654c-.22 1.172-.259 2.767-.162 4.599.425 8.378 3.503 21.676 3.503 21.676z" fill="#FFB27D"/>
  <path d="M204.3 183.596c6.067-17.276 5.171-21.795 5.171-21.795l-7.369 2.305c.94 8.085.606 10.05 1.97 18.191l.228 1.299z" fill="#ED985F"/>
  <path d="M213.197 161.801c.016.177.013.46-.166.457a28.565 28.565 0 00-3.559.092c-.485.049-.999.118-1.528.206-.699.116-3.078.324-3.939.397l-.314.027 3.351-10.644 4.197-1.104s1.116 1.769 1.958 10.569z" fill="#A8D29F"/>
  <path d="M209.472 162.35c-.485.049-.999.118-1.528.206-.7.116-3.078.324-3.939.396l3.808-5.257c.843 1.312 1.672 3.02 1.659 4.655z" fill="#82B378"/>
  <path d="M208.103 154.363s-.402 3.729-1.127 8.791c-.814 5.678-2.035 13.033-3.553 18.688-.804 2.99-1.688 5.504-2.643 7.043-.325.529-.682 1.412-1.054 2.536-2.198 6.631-4.892 21.64-4.892 21.64l-1.231.497s-4.743-13.488-.634-24.434a20.873 20.873 0 011.552-3.25.634.634 0 00.102-.388c-.054-.456-.186-1.599-.338-3.205-.418-4.429-.985-12.377-.477-19.133.033-.42.068-.838.109-1.249.366-3.717 1.098-6.959 2.415-8.88l11.771 1.344z" fill="#FFB27D"/>
  <path d="M201.039 161.986s-.031.356-.098.983c-.34 3.177-1.601 13.305-4.436 19.414-.566 1.219-1.193 2.277-1.889 3.09-.054-.456-.186-1.599-.337-3.205-.419-4.429-.985-12.377-.477-19.133.032-.42.067-.838.108-1.249l7.129.1z" fill="#ED985F"/>
  <path d="M209.195 151.748l.211 1.81-2.255 9.605c-.027-.008-10.531-.478-13.515 0-1.034.167-.177-.291-.397-3.812-.45-7.217 2.974-10.228 2.974-10.228s9.453 3.563 12.982 2.625z" fill="#A8D29F"/>
  <path d="M215.216 120.635s-.466 1.422-.809 2.793c-2.564-.715-3.342-3.411-3.576-4.855l4.385 2.062z" fill="#ED985F"/>
  <path d="M219.887 131.163c-.221-.664-1.698-3.232-1.698-3.232s-.929-.858-3.532-1.879c.043.153 1.148 4.162.745 5.016-.403.855-8.18-1.939-8.604-2.579-.34-.517-.35-3.232-.34-4.295v-.424s-2.901-.388-4.524.268c.413.941.709 1.928.881 2.941.022.145.04.292.055.44.032.307.04.617.023.925-.045.776-.765 1.369-1.729 2.069-.301.218-.625.447-.96.694v.106c-.026 2.185-.03 7.369.009 8.137v.035c1.391-.014 4.622.023 7.895.554a26.64 26.64 0 013.121.686c1.134.306 2.223.758 3.242 1.343l.115.068s1.402-2.765 2.94-6.076c.055-.12.106-.24.151-.361.494-1.308.411-2.654.245-3.859.871-.619 1.965-.577 1.965-.577z" fill="#739CF3"/>
  <path d="M215.756 122.145s-6.133-1.422-5.19-5.225c.942-3.804.786-6.552 4.742-5.807 3.956.744 4.353 2.385 4.347 3.732-.005 1.347-2.279 7.57-3.899 7.3z" fill="#FFB27D"/>
  <path d="M214.586 142.042l-.115-.069a13.7 13.7 0 00-3.242-1.343 26.435 26.435 0 00-3.121-.685c-3.273-.532-6.504-.569-7.895-.555v-.035c-.039-.765-.035-5.947-.009-8.137v-.106c.335-.247.659-.476.96-.694 3.93 2.089 11.306 6.556 13.422 11.624z" fill="#6488D3"/>
  <path d="M220 112.685c-.659-1.38-1.434-1.306-1.921-1.062-2.881-2.666-5.707-.487-5.707-.487a7.492 7.492 0 01-3.447 3.701s.943.965 3.673.944c.835 0 1.673-.388 2.436-.917a14.646 14.646 0 01-3.198 2.384c3.419-.654 5.711-4.611 5.947-5.031.29.428.843 1.338.89 2.107.063 1.045-.296 3.073.302 3.149-.001.005 2.014-2.72 1.025-4.788z" fill="#2C3A64"/>
  <path d="M192.609 214.549h1.325c.443-.069.776-.197 1.227-.258.691-.091 1.009.192 1.073.258l.011.013h5.629c.143-.201 0-.669-.129-1.014a.804.804 0 00-.527-.483c-.598-.172-1.774-.325-2.852-1.302-.605-.548-2.927-2.014-2.927-2.014h-.013c-.051 0-.294.075-1.35.967-.545.459-1.476-.646-1.476-.646a1.324 1.324 0 00-.305.414 1.39 1.39 0 00-.121.863c.084.508-.187 1.451-.403 2.088-.129.388-.242.661-.242.661s-.059.311 1.08.453z" fill="#B84C42"/>
  <path d="M192.298 210.477c.317.222.985.662 1.422.72.599.078 1.717-1.448 1.717-1.448h-.013c-.05 0-.293.075-1.349.967-.546.459-1.477-.646-1.477-.646a1.323 1.323 0 00-.3.407zM192.609 214.55h1.325c.443-.07.776-.198 1.227-.259.691-.091 1.009.193 1.073.259l.011.012h5.629c.143-.201 0-.669-.129-1.014-.171-.153-.22.66-.314.789-.094.13-4.592.047-4.852-.142-.26-.188-1.034-.517-2.124-.258-.946.226-2.339-.353-2.684-.507-.129.388-.242.661-.242.661s-.059.316 1.08.459z" fill="#AA3E39"/>
  <path d="M228.901 151.304s-2.428-1.741-3.878-1.405c-1.293.294-4.039-.292-4.581-.41-.646-.35-1.422-.775-2.239-1.243-1.975-1.112-4.243-2.473-5.794-3.599-.893-.647-1.566-1.216-1.8-1.626-.366-.629-.775-1.623-1.229-2.853a81.33 81.33 0 01-.732-2.093c-.439-1.228-.878-2.56-1.331-3.891-.82-2.429-1.698-4.874-2.532-6.761-.541-1.186-1.069-2.166-1.565-2.766-.396-.483-3.395-.044-3.425 4.199-.009.249-.004.499.014.747.057.893.189 1.779.396 2.649a40.02 40.02 0 001.668 5.559c.205.527.409 1.068.629 1.61 1.58 3.921 3.62 7.58 5.327 8.823.065.054.133.103.205.146.716.454 1.77.905 2.985 1.332 1.726.586 3.775 1.113 5.604 1.551h.015c1.068.234 2.049.454 2.868.616 0 0 .175.044.483.102a32.6 32.6 0 013.878 1.185c2.107.834 3.423-.541 4.361-.937.937-.395.673-.935.673-.935z" fill="#FFB27D"/>
  <path d="M212.426 214.549h1.325c.443-.069.776-.197 1.227-.258.692-.091 1.01.192 1.073.258l.013.013h5.633c.141-.201 0-.669-.13-1.014a.792.792 0 00-.527-.483c-.596-.172-1.774-.325-2.851-1.302-.606-.548-2.928-2.014-2.928-2.014h-.012c-.051 0-.294.075-1.349.967-.547.459-1.477-.646-1.477-.646a1.34 1.34 0 00-.305.414c-.131.267-.174.57-.121.863.084.508-.187 1.451-.404 2.088-.129.388-.241.661-.241.661s-.066.311 1.074.453z" fill="#B84C42"/>
  <path d="M212.116 210.477c.315.222.983.662 1.422.72.597.078 1.715-1.448 1.715-1.448h-.011c-.052 0-.295.075-1.35.967-.547.459-1.476-.646-1.476-.646a1.307 1.307 0 00-.3.407zM212.426 214.55h1.325c.443-.07.776-.198 1.227-.259.692-.091 1.01.193 1.073.259l.013.012h5.633c.141-.201 0-.669-.13-1.014-.17-.153-.218.66-.314.789-.095.13-4.591.047-4.85-.142-.26-.188-1.035-.517-2.126-.258-.945.226-2.339-.353-2.684-.507-.129.388-.241.661-.241.661s-.066.316 1.074.459z" fill="#AA3E39"/>
  <path d="M204.875 127.433c-2.87-.776-5.083 1.422-5.083 1.422.036-4.238 2.143-4.817 2.143-4.817.865-.354 1.906 1.116 2.94 3.395z" fill="#739CF3"/>
  <path d="M228.406 152.323c-.95.402-2.288 1.81-4.427.955a33.27 33.27 0 00-3.938-1.21c-.312-.059-.49-.104-.49-.104-.831-.164-1.828-.388-2.912-.627.891-1.106 1.397-2.508 1.589-3.091.833.478 1.62.905 2.274 1.269.55.119 3.343.716 4.654.418 1.472-.343 3.938 1.433 3.938 1.433s.264.568-.688.957zM237.258 151.246c-.761.672-2.781-1.639-3.059-1.947-.646-.044-2.209-.129-3.98-.322.556-.905 1.068-2.209 1.303-2.809 1.799.79 3.263 1.376 3.263 1.376s2.648-.102 3.087.336c.44.438.22 2.649-.614 3.366z" fill="#D8716B"/>
  <path opacity=".5" d="M105.012 206.767l-3.336 5.395a1.374 1.374 0 01-1.88.442l-2.21-1.368a1.447 1.447 0 01-.47-1.987l3.296-5.329a2.63 2.63 0 012.593-1.213.3.3 0 00.316-.169.838.838 0 01.055-.102l.175-.285 1.644 1.017-.176.284a.885.885 0 01-.077.105.261.261 0 00-.02.322 2.621 2.621 0 01.09 2.888z" fill="#89BEF4"/>
  <path opacity=".3" d="M105.012 206.767l-3.337 5.395a1.369 1.369 0 01-1.88.442l-1.39-.86a1.448 1.448 0 01-.467-1.987l3.295-5.329a2.63 2.63 0 012.594-1.213.297.297 0 00.315-.169.994.994 0 01.054-.102l.177-.286.821.51-.175.284a.885.885 0 01-.077.105.255.255 0 00-.066.157.255.255 0 00.046.165 2.621 2.621 0 01.09 2.888z" fill="#CED4EA"/>
  <path opacity=".3" d="M104.01 203.32a.24.24 0 01-.042-.112.338.338 0 01-.141.013 2.625 2.625 0 00-2.594 1.212l-3.295 5.329a1.448 1.448 0 00.468 1.987l.478.296a1.367 1.367 0 001.88-.442l3.337-5.395a2.624 2.624 0 00-.091-2.888z" fill="#CED4EA"/>
  <path d="M100.623 205.306l-1.973 3.165 4.598 2.866 1.973-3.164-4.598-2.867zM103.737 201.626l-.266.433 1.828 1.126.267-.433-1.829-1.126z" fill="#2C3A64"/>
</svg>