<svg width="350" height="404" viewBox="0 0 350 404" fill="none" xmlns="http://www.w3.org/2000/svg">
<g clip-path="url(#clip0)">
<path d="M329.946 42.9482L109.87 42.5648C98.7747 42.5455 89.7646 51.5088 89.7452 62.585L89.1841 383.543C89.1647 394.62 98.1435 403.614 109.239 403.634L329.315 404.017C340.41 404.036 349.42 395.073 349.44 383.997L350.001 63.0385C350.02 51.9623 341.041 42.9676 329.946 42.9482Z" fill="#095CAD"/>
<path d="M323.263 60.0607L116.494 59.7004C109.925 59.689 104.59 64.9957 104.579 71.5533L104.049 374.646C104.037 381.203 109.353 386.528 115.922 386.54L322.692 386.9C329.261 386.912 334.595 381.605 334.607 375.047L335.137 71.955C335.148 65.3974 329.832 60.0721 323.263 60.0607Z" fill="#550DBA"/>
<path d="M286.888 40.5558V51.6873L154.381 51.4647V40.3332C154.383 38.0333 154.839 35.7563 155.723 33.6324C156.607 31.5085 157.902 29.5792 159.532 27.9546C161.163 26.3301 163.099 25.0421 165.228 24.1642C167.357 23.2863 169.639 22.8357 171.943 22.8381H209.577C209.568 22.9183 209.568 22.9992 209.577 23.0793C209.853 25.8253 211.141 28.371 213.191 30.2225C215.241 32.0739 217.907 33.0991 220.671 33.0991C223.436 33.0991 226.102 32.0739 228.152 30.2225C230.202 28.371 231.49 25.8253 231.766 23.0793C231.775 22.9992 231.775 22.9183 231.766 22.8381H269.381C271.699 22.8429 273.993 23.3062 276.131 24.2012C278.269 25.0963 280.207 26.4054 281.835 28.0529C283.463 29.7003 284.748 31.6535 285.615 33.7996C286.482 35.9456 286.915 38.2419 286.888 40.5558Z" fill="#070119"/>
<path d="M220.689 3.29044e-05C214.581 -0.00534952 208.717 2.39304 204.368 6.67518C200.02 10.9573 197.537 16.7781 197.459 22.8753V23.1165C197.459 29.267 199.906 35.1657 204.263 39.5148C208.62 43.8639 214.528 46.3072 220.689 46.3072C226.851 46.3072 232.759 43.8639 237.116 39.5148C241.472 35.1657 243.92 29.267 243.92 23.1165V22.8568C243.842 16.7612 241.359 10.9424 237.009 6.66322C232.66 2.38404 226.796 -0.0102373 220.689 3.29044e-05ZM220.689 34.2295C217.732 34.2295 214.896 33.0567 212.805 30.9691C210.714 28.8815 209.539 26.0502 209.539 23.0979C209.53 23.0178 209.53 22.9369 209.539 22.8568C209.854 20.1449 211.157 17.6433 213.199 15.8275C215.241 14.0117 217.88 13.0084 220.615 13.0084C223.35 13.0084 225.989 14.0117 228.031 15.8275C230.074 17.6433 231.376 20.1449 231.691 22.8568C231.7 22.9369 231.7 23.0178 231.691 23.0979C231.692 26.0342 230.53 28.8516 228.458 30.9365C226.387 33.0214 223.575 34.205 220.634 34.2295H220.689Z" fill="#070119"/>
<path d="M153.99 42.0771V51.5389H286.497V42.0771H153.99Z" fill="#550DBA"/>
<path d="M138.277 101L111.144 100.952C109.091 100.949 107.424 102.607 107.42 104.656L107.373 131.743C107.369 133.792 109.031 135.456 111.083 135.46L138.216 135.507C140.269 135.511 141.936 133.852 141.94 131.803L141.987 104.717C141.991 102.667 140.33 101.003 138.277 101Z" fill="#550DBA"/>
<path d="M288.058 115.174L170.642 115.026C169.737 115.026 168.842 114.848 168.006 114.501C167.171 114.155 166.412 113.648 165.773 113.009C165.134 112.369 164.628 111.61 164.284 110.775C163.939 109.94 163.763 109.046 163.766 108.143C163.775 106.324 164.506 104.582 165.798 103.3C167.09 102.017 168.838 101.297 170.66 101.297L288.132 101.501C289.035 101.501 289.928 101.679 290.761 102.024C291.594 102.369 292.351 102.875 292.988 103.513C293.625 104.15 294.13 104.907 294.473 105.74C294.817 106.573 294.993 107.465 294.99 108.365C294.983 109.267 294.798 110.158 294.445 110.988C294.093 111.818 293.58 112.571 292.937 113.203C292.293 113.835 291.531 114.335 290.694 114.673C289.857 115.011 288.961 115.181 288.058 115.174Z" fill="#550DBA"/>
<path d="M241.374 134.543L170.605 134.413C168.781 134.413 167.032 133.69 165.743 132.403C164.453 131.115 163.729 129.369 163.729 127.549C163.733 125.726 164.462 123.981 165.755 122.694C167.047 121.407 168.798 120.684 170.623 120.684L241.393 120.814C242.297 120.814 243.193 120.992 244.028 121.338C244.864 121.685 245.623 122.192 246.262 122.831C246.9 123.471 247.406 124.23 247.751 125.065C248.095 125.9 248.271 126.794 248.269 127.697C248.259 129.516 247.528 131.257 246.236 132.54C244.944 133.823 243.196 134.543 241.374 134.543Z" fill="#550DBA"/>
<path d="M138.155 171.017L111.022 170.969C108.969 170.966 107.302 172.624 107.298 174.673L107.251 201.76C107.247 203.809 108.908 205.473 110.961 205.477L138.094 205.524C140.147 205.528 141.814 203.869 141.818 201.82L141.865 174.733C141.869 172.684 140.208 171.02 138.155 171.017Z" fill="#550DBA"/>
<path d="M288.058 185.191L170.586 184.987C169.676 184.997 168.774 184.826 167.931 184.484C167.088 184.142 166.321 183.636 165.676 182.996C165.031 182.355 164.52 181.593 164.173 180.753C163.826 179.913 163.649 179.013 163.654 178.104C163.659 176.287 164.386 174.546 165.675 173.262C166.964 171.979 168.71 171.258 170.531 171.258L288.021 171.463C289.842 171.467 291.586 172.193 292.871 173.48C294.157 174.766 294.879 176.51 294.879 178.327C294.879 180.138 294.162 181.876 292.885 183.161C291.607 184.447 289.872 185.177 288.058 185.191Z" fill="#550DBA"/>
<path d="M241.244 204.56L170.475 204.43C168.654 204.426 166.91 203.7 165.625 202.413C164.339 201.127 163.617 199.383 163.617 197.566C163.617 196.663 163.796 195.769 164.142 194.935C164.489 194.101 164.997 193.343 165.638 192.706C166.278 192.068 167.038 191.563 167.875 191.219C168.711 190.875 169.607 190.699 170.512 190.702L241.281 190.831C242.184 190.831 243.077 191.009 243.91 191.354C244.743 191.7 245.5 192.205 246.137 192.843C246.774 193.481 247.279 194.238 247.622 195.07C247.966 195.903 248.141 196.795 248.139 197.696C248.139 198.599 247.961 199.493 247.614 200.327C247.267 201.161 246.759 201.919 246.118 202.556C245.478 203.194 244.718 203.699 243.881 204.043C243.045 204.387 242.149 204.563 241.244 204.56Z" fill="#550DBA"/>
<path d="M138.032 241.033L110.899 240.986C108.846 240.983 107.179 242.641 107.175 244.69L107.128 271.777C107.124 273.826 108.785 275.49 110.838 275.494L137.971 275.541C140.024 275.545 141.691 273.886 141.695 271.837L141.742 244.75C141.746 242.701 140.084 241.037 138.032 241.033Z" fill="#550DBA"/>
<path d="M287.873 255.209L170.401 255.005C168.575 255 166.826 254.272 165.537 252.982C164.248 251.692 163.524 249.944 163.524 248.122C163.527 247.22 163.707 246.328 164.055 245.496C164.403 244.664 164.911 243.909 165.552 243.273C166.192 242.638 166.951 242.134 167.786 241.791C168.622 241.448 169.516 241.273 170.419 241.276L287.891 241.48C289.715 241.48 291.464 242.203 292.753 243.49C294.043 244.778 294.767 246.524 294.767 248.344C294.763 250.167 294.034 251.912 292.741 253.199C291.449 254.486 289.698 255.209 287.873 255.209Z" fill="#550DBA"/>
<path d="M241.133 274.577L170.364 274.448C169.461 274.448 168.568 274.27 167.735 273.925C166.902 273.58 166.145 273.074 165.508 272.436C164.871 271.798 164.366 271.041 164.023 270.209C163.679 269.376 163.503 268.484 163.506 267.583C163.506 265.763 164.23 264.017 165.52 262.729C166.809 261.442 168.558 260.719 170.382 260.719L241.151 260.849C242.975 260.849 244.724 261.572 246.014 262.859C247.303 264.146 248.028 265.892 248.028 267.713C248.023 269.535 247.294 271.281 246.002 272.568C244.709 273.855 242.958 274.577 241.133 274.577Z" fill="#550DBA"/>
<path d="M137.91 311.05L110.776 311.003C108.724 310.999 107.057 312.658 107.053 314.707L107.006 341.794C107.002 343.843 108.663 345.507 110.716 345.511L137.849 345.558C139.902 345.562 141.569 343.903 141.573 341.854L141.62 314.767C141.624 312.718 139.962 311.054 137.91 311.05Z" fill="#550DBA"/>
<path d="M287.742 325.226L170.27 325.022C169.367 325.019 168.473 324.839 167.64 324.492C166.806 324.145 166.05 323.637 165.413 322.998C164.776 322.359 164.272 321.601 163.928 320.767C163.585 319.933 163.41 319.04 163.412 318.139C163.412 317.238 163.59 316.347 163.936 315.515C164.282 314.683 164.789 313.927 165.427 313.292C166.066 312.656 166.824 312.152 167.658 311.809C168.493 311.466 169.386 311.291 170.288 311.293L287.779 311.479C289.601 311.488 291.345 312.218 292.63 313.508C293.915 314.797 294.637 316.542 294.637 318.362C294.632 320.184 293.903 321.93 292.611 323.217C291.318 324.503 289.567 325.226 287.742 325.226Z" fill="#550DBA"/>
<path d="M241.022 344.595L170.234 344.465C168.423 344.46 166.687 343.742 165.403 342.468C164.119 341.193 163.391 339.464 163.376 337.656C163.378 336.755 163.559 335.862 163.907 335.031C164.254 334.199 164.763 333.443 165.403 332.808C166.043 332.172 166.803 331.668 167.638 331.326C168.473 330.983 169.368 330.808 170.271 330.81L241.04 330.94C241.942 330.94 242.836 331.118 243.669 331.463C244.502 331.808 245.259 332.314 245.896 332.952C246.533 333.589 247.038 334.346 247.381 335.179C247.725 336.012 247.9 336.904 247.898 337.805C247.878 339.612 247.145 341.339 245.858 342.61C244.57 343.882 242.832 344.595 241.022 344.595Z" fill="#550DBA"/>
<path d="M319.15 404L99.0731 403.629C93.7433 403.619 88.6354 401.497 84.8718 397.73C81.1083 393.962 78.997 388.857 79.002 383.536L79.5595 62.5777C79.5644 59.944 80.0888 57.337 81.103 54.9057C82.1171 52.4743 83.601 50.2662 85.4699 48.4073C87.3389 46.5484 89.5563 45.0753 91.9956 44.0719C94.4348 43.0685 97.0482 42.5546 99.6864 42.5595L319.763 42.9305C322.406 42.9354 325.022 43.4608 327.461 44.4766C329.9 45.4925 332.115 46.9788 333.977 48.8505C335.84 50.7221 337.315 52.9423 338.316 55.3838C339.318 57.8254 339.828 60.4402 339.815 63.0786L339.276 384.037C339.252 389.347 337.119 394.43 333.346 398.172C329.573 401.914 324.468 404.01 319.15 404Z" fill="#23A1F5"/>
<path d="M313.08 60.0614L106.31 59.7011C99.7411 59.6897 94.4067 64.9964 94.3953 71.554L93.8654 374.646C93.8539 381.204 99.1697 386.529 105.739 386.541L312.508 386.901C319.077 386.912 324.412 381.606 324.423 375.048L324.953 71.9557C324.964 65.3981 319.649 60.0729 313.08 60.0614Z" fill="white"/>
<path d="M276.722 40.5558V51.6873L144.215 51.4647V40.3332C144.22 35.7043 146.06 31.2656 149.334 27.9873C152.607 24.709 157.047 22.8578 161.684 22.8381H199.336C199.328 22.9183 199.328 22.9992 199.336 23.0793C199.167 24.6333 199.328 26.2054 199.808 27.6932C200.288 29.181 201.077 30.5512 202.123 31.7145C203.169 32.8779 204.448 33.8083 205.878 34.4453C207.308 35.0822 208.856 35.4114 210.422 35.4114C211.988 35.4114 213.536 35.0822 214.966 34.4453C216.396 33.8083 217.675 32.8779 218.721 31.7145C219.767 30.5512 220.555 29.181 221.035 27.6932C221.515 26.2054 221.676 24.6333 221.507 23.0793C221.516 22.9992 221.516 22.9183 221.507 22.8381H259.122C261.447 22.8356 263.749 23.2932 265.895 24.1845C268.041 25.0759 269.989 26.3832 271.625 28.0309C273.262 29.6786 274.555 31.634 275.43 33.7839C276.305 35.9337 276.744 38.2355 276.722 40.5558Z" fill="#110133"/>
<path d="M210.505 9.25773e-06C204.398 -0.000554553 198.537 2.3994 194.189 6.68051C189.842 10.9616 187.357 16.7796 187.274 22.8753V23.1165C187.274 29.267 189.722 35.1657 194.078 39.5147C198.435 43.8638 204.344 46.3071 210.505 46.3071C216.666 46.3071 222.575 43.8638 226.931 39.5147C231.288 35.1657 233.735 29.267 233.735 23.1165V22.8567C233.652 16.7627 231.168 10.9467 226.819 6.66856C222.471 2.39041 216.61 -0.00543484 210.505 9.25773e-06ZM210.505 34.2294C207.564 34.205 204.751 33.0214 202.68 30.9365C200.609 28.8516 199.447 26.0342 199.447 23.0979C199.439 23.0177 199.439 22.9369 199.447 22.8567C199.78 20.1605 201.089 17.6788 203.127 15.8791C205.166 14.0794 207.793 13.086 210.514 13.086C213.235 13.086 215.863 14.0794 217.901 15.8791C219.94 17.6788 221.249 20.1605 221.581 22.8567C221.59 22.9369 221.59 23.0177 221.581 23.0979C221.581 26.047 220.409 28.8755 218.322 30.9625C216.235 33.0496 213.403 34.2245 210.449 34.2294H210.505Z" fill="#110133"/>
<path d="M144.2 42.0625L144.184 51.5242L276.69 51.7551L276.707 42.2933L144.2 42.0625Z" fill="#110133"/>
<path d="M146.677 100.996L119.544 100.948C117.491 100.945 115.824 102.603 115.821 104.652L115.773 131.739C115.77 133.788 117.431 135.452 119.484 135.456L146.617 135.503C148.67 135.507 150.337 133.849 150.34 131.799L150.388 104.713C150.391 102.663 148.73 100.999 146.677 100.996Z" fill="#C4EAF8"/>
<path d="M296.514 115.174L179.042 115.026C178.138 115.026 177.242 114.848 176.407 114.501C175.571 114.155 174.812 113.648 174.173 113.009C173.535 112.369 173.029 111.61 172.684 110.775C172.34 109.94 172.164 109.046 172.166 108.143C172.176 106.324 172.907 104.582 174.199 103.3C175.491 102.017 177.239 101.297 179.061 101.297L296.533 101.501C298.357 101.501 300.106 102.224 301.395 103.511C302.685 104.799 303.409 106.545 303.409 108.365C303.389 110.178 302.654 111.91 301.364 113.184C300.073 114.459 298.33 115.174 296.514 115.174Z" fill="#C4EAF8"/>
<path d="M249.774 134.543L179.005 134.413C178.103 134.413 177.21 134.236 176.377 133.89C175.543 133.545 174.787 133.039 174.149 132.402C173.512 131.764 173.008 131.007 172.664 130.174C172.321 129.342 172.145 128.449 172.147 127.549C172.147 125.728 172.872 123.982 174.161 122.695C175.451 121.408 177.2 120.684 179.024 120.684L249.793 120.814C250.698 120.814 251.593 120.992 252.429 121.338C253.264 121.685 254.023 122.192 254.662 122.831C255.301 123.471 255.807 124.23 256.151 125.065C256.496 125.9 256.672 126.794 256.669 127.697C256.667 128.599 256.487 129.491 256.139 130.323C255.791 131.155 255.282 131.91 254.642 132.546C254.002 133.181 253.243 133.685 252.407 134.028C251.572 134.37 250.677 134.545 249.774 134.543Z" fill="#C4EAF8"/>
<path d="M146.554 171.013L119.421 170.965C117.368 170.962 115.701 172.62 115.698 174.669L115.65 201.756C115.647 203.805 117.308 205.469 119.361 205.473L146.494 205.52C148.547 205.524 150.214 203.866 150.217 201.816L150.265 174.73C150.268 172.68 148.607 171.016 146.554 171.013Z" fill="#C4EAF8"/>
<path d="M296.403 185.191L178.912 184.987C178.009 184.985 177.116 184.805 176.282 184.458C175.449 184.11 174.692 183.603 174.056 182.964C173.419 182.324 172.914 181.566 172.571 180.733C172.228 179.899 172.052 179.006 172.055 178.104C172.057 177.203 172.237 176.311 172.585 175.479C172.933 174.647 173.442 173.892 174.082 173.256C174.722 172.62 175.481 172.117 176.317 171.774C177.152 171.431 178.047 171.256 178.95 171.258L296.422 171.462C297.324 171.462 298.217 171.64 299.05 171.985C299.883 172.331 300.64 172.836 301.277 173.474C301.914 174.112 302.419 174.869 302.762 175.701C303.106 176.534 303.282 177.426 303.279 178.327C303.279 180.147 302.555 181.893 301.265 183.181C299.976 184.468 298.227 185.191 296.403 185.191Z" fill="#C4EAF8"/>
<path d="M249.662 204.56L178.893 204.43C177.069 204.43 175.32 203.707 174.031 202.42C172.741 201.133 172.017 199.387 172.017 197.566C172.022 195.744 172.75 193.998 174.043 192.711C175.335 191.424 177.086 190.702 178.911 190.702L249.681 190.831C250.583 190.831 251.476 191.009 252.309 191.354C253.143 191.699 253.899 192.205 254.536 192.843C255.174 193.481 255.678 194.238 256.022 195.07C256.365 195.903 256.541 196.795 256.538 197.696C256.538 199.516 255.814 201.262 254.524 202.55C253.235 203.837 251.486 204.56 249.662 204.56Z" fill="#C4EAF8"/>
<path d="M146.432 241.029L119.299 240.982C117.246 240.979 115.579 242.637 115.576 244.686L115.528 271.773C115.525 273.822 117.186 275.486 119.239 275.49L146.372 275.537C148.425 275.541 150.092 273.882 150.095 271.833L150.142 244.746C150.146 242.697 148.485 241.033 146.432 241.029Z" fill="#C4EAF8"/>
<path d="M296.272 255.209L178.8 255.005C177.897 255.002 177.003 254.822 176.17 254.475C175.337 254.128 174.58 253.62 173.943 252.981C173.306 252.342 172.802 251.584 172.459 250.75C172.115 249.916 171.94 249.023 171.942 248.122C171.942 247.221 172.12 246.329 172.466 245.498C172.812 244.666 173.319 243.91 173.958 243.274C174.596 242.638 175.354 242.134 176.189 241.792C177.023 241.449 177.917 241.273 178.819 241.276L296.291 241.48C298.114 241.48 299.863 242.203 301.153 243.49C302.442 244.778 303.167 246.524 303.167 248.344C303.162 250.167 302.433 251.912 301.141 253.199C299.848 254.486 298.097 255.209 296.272 255.209Z" fill="#C4EAF8"/>
<path d="M249.532 274.577L178.763 274.448C177.861 274.448 176.968 274.27 176.134 273.925C175.301 273.58 174.544 273.074 173.907 272.436C173.27 271.798 172.765 271.041 172.422 270.209C172.078 269.376 171.903 268.484 171.905 267.583C171.905 265.763 172.63 264.017 173.919 262.729C175.209 261.442 176.958 260.719 178.782 260.719L249.551 260.849C251.375 260.849 253.124 261.572 254.413 262.859C255.703 264.146 256.427 265.892 256.427 267.713C256.427 268.616 256.249 269.51 255.902 270.344C255.555 271.178 255.047 271.936 254.407 272.574C253.766 273.211 253.006 273.716 252.169 274.06C251.333 274.404 250.437 274.58 249.532 274.577Z" fill="#C4EAF8"/>
<path d="M146.31 311.046L119.177 310.999C117.124 310.996 115.457 312.654 115.453 314.703L115.406 341.79C115.403 343.839 117.064 345.503 119.117 345.507L146.25 345.554C148.302 345.558 149.969 343.899 149.973 341.85L150.02 314.763C150.024 312.714 148.363 311.05 146.31 311.046Z" fill="#C4EAF8"/>
<path d="M296.161 325.226L178.67 325.022C176.848 325.012 175.104 324.283 173.819 322.993C172.534 321.703 171.812 319.958 171.813 318.139C171.812 317.237 171.991 316.343 172.338 315.51C172.685 314.677 173.193 313.921 173.834 313.285C174.475 312.649 175.235 312.145 176.072 311.803C176.908 311.462 177.804 311.288 178.707 311.293L296.179 311.478C297.082 311.481 297.976 311.661 298.809 312.008C299.643 312.355 300.399 312.863 301.036 313.502C301.673 314.141 302.177 314.899 302.521 315.733C302.864 316.567 303.039 317.46 303.037 318.361C303.037 320.182 302.312 321.928 301.023 323.215C299.733 324.503 297.984 325.226 296.161 325.226Z" fill="#C4EAF8"/>
<path d="M249.421 344.595L178.652 344.465C177.747 344.465 176.851 344.287 176.016 343.941C175.18 343.594 174.422 343.087 173.783 342.448C173.144 341.808 172.638 341.05 172.293 340.215C171.949 339.38 171.773 338.485 171.775 337.582C171.785 335.763 172.516 334.022 173.808 332.739C175.1 331.456 176.848 330.736 178.67 330.736L249.44 330.866C250.342 330.866 251.235 331.044 252.068 331.389C252.901 331.734 253.658 332.24 254.295 332.878C254.932 333.515 255.437 334.272 255.781 335.105C256.124 335.938 256.3 336.83 256.297 337.73C256.297 339.551 255.573 341.297 254.283 342.584C252.994 343.872 251.245 344.595 249.421 344.595Z" fill="#C4EAF8"/>
<path d="M132.823 132.391L110.206 115.248C109.787 114.935 109.435 114.541 109.17 114.091C108.905 113.64 108.732 113.142 108.661 112.624C108.591 112.107 108.623 111.58 108.758 111.075C108.892 110.57 109.125 110.097 109.444 109.683C109.758 109.264 110.152 108.913 110.604 108.648C111.056 108.384 111.556 108.212 112.075 108.143C112.594 108.074 113.122 108.109 113.628 108.246C114.133 108.383 114.606 108.619 115.019 108.94L131.949 121.797L157.15 94.1726C157.856 93.4029 158.839 92.9436 159.884 92.8949C160.928 92.8463 161.95 93.2122 162.725 93.9129C163.109 94.2608 163.42 94.681 163.641 95.1493C163.862 95.6176 163.989 96.1248 164.013 96.6419C164.037 97.1589 163.959 97.6757 163.782 98.1625C163.606 98.6493 163.335 99.0966 162.985 99.4787L132.823 132.391Z" fill="#0E5A9F"/>
<path d="M4.66418 277.694L40.5878 276.21L42.1489 214.857L39.6772 199.458L23.0813 193.373L12.3953 195.414C9.45793 195.974 6.81842 197.566 4.95397 199.9C3.08952 202.234 2.12317 205.157 2.22962 208.141L6.11376 251.554L4.66418 277.694Z" fill="#DEC6A0"/>
<path d="M19.0859 185.822V198.141C21.8195 199.366 24.8126 199.901 27.802 199.7C31.0915 199.7 31.8348 198.141 31.8348 198.141V193.577L19.0859 185.822Z" fill="#DEC6A0"/>
<path d="M17.6374 176.62C17.6374 177.065 17.6374 177.474 17.6374 177.882C17.6374 178.29 17.6374 178.179 17.6374 178.327C17.34 185.637 22.0419 193.484 29.1225 194.542H29.2898H29.5314C31.0553 194.727 36.5377 195.173 38.5448 192.965C41.1017 189.986 42.6555 186.28 42.9865 182.371C42.9031 180.586 42.7045 178.807 42.3918 177.047C42.3918 176.026 42.9307 172.817 42.9493 171.481C42.9493 164.969 38.6006 158.494 30.7765 158.494C19.1055 158.476 17.3214 168.828 17.6374 176.62Z" fill="#DEC6A0"/>
<path d="M54.3042 224.096C56.2927 220.386 36.0357 206.972 27.0037 201.833C17.9717 196.694 9.98038 194.412 7.54582 198.846C5.11126 203.28 11.5415 208.697 20.7407 213.447C29.94 218.196 52.3156 227.751 54.3042 224.096Z" fill="#DEC6A0"/>
<path d="M92.5136 206.1C91.3056 202.612 65.2317 210.423 57.9466 212.909C50.6616 215.395 43.1906 218.475 44.5287 222.445C45.8668 226.415 53.728 224.3 60.9945 221.814C68.261 219.328 93.703 209.644 92.5136 206.1Z" fill="#DEC6A0"/>
<path d="M86.0642 208.697C87.1793 212.909 94.4086 210.126 96.8432 209.087C100.802 207.399 103.255 201.796 102.623 200.237C101.991 198.679 93.3307 203.206 92.8475 202.983C92.3643 202.761 97.2892 200.794 96.5644 199.403C95.8396 198.011 89.9855 200.683 88.0899 202.631C87.1685 203.311 86.4796 204.259 86.1172 205.345C85.7547 206.43 85.7362 207.601 86.0642 208.697Z" fill="#DEC6A0"/>
<path d="M30.0505 272.908C26.2407 273.186 22.6167 278.065 22.3565 283.464C22.0555 289.089 22.3545 294.73 23.2486 300.291C25.8876 317.49 25.423 339.252 30.4965 340.736C35.57 342.22 40.8852 330.235 40.8852 312.369C40.7923 296.303 42.4277 275.765 39.0267 273.706C37.1683 272.722 33.4514 272.722 30.0505 272.908Z" fill="#DEC6A0"/>
<path d="M34.5854 336.561C20.2568 332.183 26.7428 382.72 31.5561 395.002C36.3695 407.284 38.1722 393.147 38.9899 371.978C39.8076 350.81 40.235 338.287 34.5854 336.561Z" fill="#DEC6A0"/>
<path d="M11.4479 272.908C7.61955 273.186 4.1071 278.065 3.75399 283.464C3.45292 289.089 3.75195 294.73 4.64604 300.291C7.28503 317.49 6.80183 339.252 11.894 340.736C16.9861 342.22 22.3012 330.235 22.3012 312.369C22.2083 296.303 23.8437 275.765 20.4428 273.706C18.5843 272.722 14.8675 272.722 11.4479 272.908Z" fill="#DEC6A0"/>
<path d="M15.9824 336.561C1.65385 332.183 8.13981 382.72 13.0089 395.002C17.878 407.284 19.625 393.147 20.4427 371.978C21.2604 350.81 21.6321 338.287 15.9824 336.561Z" fill="#DEC6A0"/>
<path d="M90.1524 226.193L47.1666 193.614C46.3767 193.025 45.7121 192.284 45.2116 191.436C44.7112 190.587 44.3849 189.648 44.2517 188.672C44.1185 187.697 44.1811 186.705 44.4359 185.753C44.6907 184.802 45.1325 183.911 45.7357 183.132C46.3262 182.343 47.068 181.68 47.9179 181.18C48.7677 180.681 49.7087 180.355 50.686 180.222C51.6632 180.089 52.6572 180.152 53.6101 180.406C54.5629 180.66 55.4555 181.101 56.2358 181.704L88.3311 206.044L136.39 153.559C137.049 152.829 137.847 152.236 138.737 151.815C139.628 151.395 140.593 151.155 141.577 151.11C142.56 151.066 143.543 151.216 144.468 151.554C145.393 151.891 146.242 152.409 146.965 153.077C147.696 153.736 148.288 154.533 148.707 155.423C149.127 156.312 149.365 157.276 149.408 158.258C149.452 159.24 149.299 160.221 148.959 161.144C148.62 162.067 148.1 162.913 147.429 163.633L90.1524 226.193Z" fill="#0E5A9F"/>
<path d="M40.8854 199.05C43.3758 201.369 45.3271 205.414 45.7917 213.67C46.8858 219.149 46.4486 224.823 44.528 230.07C39.7332 242.036 44.528 266.804 45.8475 272.741C45.8774 272.895 45.873 273.054 45.8348 273.207C45.7965 273.359 45.7253 273.501 45.6261 273.623C45.5269 273.745 45.4022 273.844 45.2606 273.913C45.1191 273.982 44.9641 274.018 44.8068 274.021L3.49364 274.745C3.19392 274.765 2.89334 274.72 2.61292 274.612C2.33249 274.505 2.07899 274.337 1.87013 274.122C1.66128 273.906 1.5021 273.648 1.40374 273.364C1.30538 273.081 1.27021 272.78 1.30068 272.481C1.96972 264.244 4.14409 235.914 3.04761 229.142C-0.780775 205.173 3.04761 197.455 9.77516 195.581C19.7922 192.761 38.3022 196.657 40.8854 199.05Z" fill="url(#paint0_linear)"/>
<path d="M22.06 300.978L20.4245 371.978L8.40044 371.663L5.31543 301.757L22.06 300.978Z" fill="#DEC6A0"/>
<path d="M40.477 300.978L38.8416 371.978L26.8175 371.663L23.7139 301.757L40.477 300.978Z" fill="#DEC6A0"/>
<path d="M1.46817 273.26L0 337.452C0 337.452 17.5623 339.604 23.4349 339.493C33.9537 339.289 46.461 337.749 46.461 337.749L45.0114 273.13L1.46817 273.26Z" fill="#110133"/>
<path d="M96.2676 220.478C94.4092 217.287 70.4911 229.755 63.875 233.465C57.259 237.176 50.5314 241.684 52.5571 245.246C54.5828 248.808 61.8493 245.339 68.484 241.535C75.1186 237.732 98.0889 223.651 96.2676 220.478Z" fill="#DEC6A0"/>
<path d="M57.6117 246.749C61.3286 244.986 53.1329 222.334 48.9142 212.983C44.6956 203.633 39.7149 197.028 35.1618 199.18C30.6086 201.332 32.5228 209.365 37.0202 218.567C41.5176 227.77 53.8948 248.456 57.6117 246.749Z" fill="#DEC6A0"/>
<path d="M99.8168 215.636C98.7622 219.087 97.0454 222.301 94.7619 225.098C92.4202 225.84 90.0414 225.933 89.1865 223.781C88.7199 222.754 88.5767 221.61 88.7758 220.5C88.9749 219.39 89.507 218.367 90.3016 217.566L90.6361 217.213C92.4946 215.043 97.3265 212.056 98.2 213.261C99.0734 214.467 96.3415 216.749 95.9698 217.491C95.9698 217.603 95.9698 217.696 95.9698 217.714C95.9698 217.733 96.23 217.714 96.546 217.51C97.1407 217.158 98.4973 216.397 99.8168 215.636Z" fill="#DEC6A0"/>
<path d="M45.2155 167.455C45.2155 167.826 45.1411 168.216 44.9924 168.624C44.3612 170.278 43.6096 171.884 42.7437 173.429C42.1109 175.431 41.6995 177.497 41.5172 179.589C40.7366 184.598 40.1791 189.625 39.6587 194.653C39.4543 198.364 40.1977 202.186 38.8038 205.785C36.722 210.982 33.6409 215.721 29.7346 219.736C28.1635 221.382 26.2372 222.648 24.1021 223.439C21.967 224.23 19.6794 224.525 17.4132 224.3C14.7675 223.977 12.2311 223.053 9.99864 221.6C7.76614 220.146 5.89686 218.201 4.5342 215.914C1.81649 211.245 0.578971 205.864 0.984584 200.479C1.84993 192.923 4.91954 185.788 9.81217 179.96C11.5794 178.001 13.0792 175.818 14.2724 173.466C15.4432 170.758 15.0158 167.771 15.7592 164.969C16.4008 162.189 18.0237 159.733 20.3309 158.049C24.9213 154.858 31.2772 155.285 36.3693 156.917C41.4614 158.55 45.996 161.685 45.2155 167.455Z" fill="#110133"/>
<path d="M37.2614 394.779C39.3131 396.725 41.5758 398.436 44.0075 399.881C48.6165 402.757 49.843 402.126 49.936 403.202C50.0289 404.278 30.7383 403.406 30.7383 403.406L31.0356 394.52C33.1142 394.486 35.1929 394.572 37.2614 394.779Z" fill="#110133"/>
<path d="M18.5851 394.742C19.6206 396.883 21.0519 398.809 22.8038 400.419C25.5729 403.11 26.6322 402.534 26.4092 403.481C26.1862 404.427 12.3594 403.815 12.3594 403.815L12.7496 394.538C14.6972 394.467 16.6474 394.535 18.5851 394.742Z" fill="#110133"/>
</g>
<defs>
<linearGradient id="paint0_linear" x1="1.30068" y1="234.653" x2="46.2935" y2="234.653" gradientUnits="userSpaceOnUse">
<stop stop-color="#E7AD47"/>
<stop offset="1" stop-color="#F7EC41"/>
</linearGradient>
<clipPath id="clip0">
<rect width="350" height="404" fill="white"/>
</clipPath>
</defs>
</svg>
