<svg width="368" height="288" viewBox="0 0 368 288" fill="none" xmlns="http://www.w3.org/2000/svg">
<path fill-rule="evenodd" clip-rule="evenodd" d="M144.042 111.684C131.757 110.469 145.217 91.3682 145.775 90.7069C146.334 90.0457 148.35 90.4603 150.323 90.5104C151.461 93.4126 152.052 96.9868 151.938 100.997C151.904 102.708 151.664 104.409 151.222 106.062C150.452 109.368 146.653 111.984 144.032 111.684" fill="#F0C8B9"/>
<path fill-rule="evenodd" clip-rule="evenodd" d="M141.729 101.794C142.138 103.878 140.408 107.023 141.579 110.562L140.637 118.979C137.185 117.528 133.531 116.608 129.802 116.252C127.568 116.037 125.359 115.894 123.164 115.894L123.88 108.982C125.898 109.711 128.004 110.171 130.143 110.351C136.48 111.012 138.736 108.989 139.069 108.206C139.402 107.424 136.942 105.086 137.812 101.873C138.682 98.6596 141.307 99.7283 141.719 101.801" fill="#F0C8B9"/>
<path fill-rule="evenodd" clip-rule="evenodd" d="M287.605 256.647C287.827 257.294 289.31 259.55 277.179 263.371C275.299 263.163 272.807 263.195 272.524 263.371C272.241 263.546 272.37 264.929 272.37 264.929C270.938 265.644 266.734 267.459 265.965 266.241C264.339 263.667 264.228 259.249 265.42 257.305L265.811 257.134C265.993 257.666 267.411 259.149 268.886 258.499C270.361 257.848 271.636 255.765 271.776 254.542C272.75 254.542 278.647 257.734 282.073 257.116C285.5 256.497 286.549 255.039 287.609 256.669" fill="#40327D"/>
<path fill-rule="evenodd" clip-rule="evenodd" d="M271.908 254.703L270.003 245.671L261.51 248.173L265.377 257.302C266.255 258.731 267.264 259.089 268.933 258.56C270.723 257.995 271.708 256.304 271.908 254.685" fill="#F0C8B9"/>
<path fill-rule="evenodd" clip-rule="evenodd" d="M328.08 249.613C328.528 250.132 330.741 251.676 320.919 259.718C319.097 260.225 316.794 261.176 316.59 261.44C316.386 261.705 317.027 262.942 317.027 262.942C315.953 264.135 312.73 267.381 311.567 266.516C309.1 264.729 307.352 260.668 307.732 258.409L308.029 258.106C308.387 258.531 310.263 259.385 311.395 258.231C312.526 257.076 312.931 254.674 312.609 253.488C313.507 253.13 320.171 253.902 323.125 252.058C326.079 250.214 326.508 248.484 328.098 249.592" fill="#40327D"/>
<path fill-rule="evenodd" clip-rule="evenodd" d="M312.781 253.624L307.653 245.95L300.707 251.44L307.693 258.481C309.039 259.485 310.102 259.435 311.459 258.331C312.92 257.141 313.2 255.211 312.781 253.631" fill="#F0C8B9"/>
<path fill-rule="evenodd" clip-rule="evenodd" d="M65.9644 259.782C67.479 261.297 69.903 265.837 67.3214 266.333C64.7398 266.83 59.2186 265.476 57.7255 265.261C56.2324 265.047 39.3034 267.699 39.3929 266.48C39.4824 265.261 49.4185 259.589 55.9817 259.049L65.9644 259.782Z" fill="#F0C8B9"/>
<path fill-rule="evenodd" clip-rule="evenodd" d="M270.716 247.065L256.376 251.808C251.531 238.03 246.554 239.834 245.738 238.255C244.922 236.675 246.848 232.99 246.397 231.771C245.946 230.552 240.324 228.079 239.282 226.031C238.24 223.983 240.958 218.664 240.052 217.131C239.146 215.598 221.154 192.826 215.722 192.469C210.29 192.111 185.799 259.75 146.717 252.845C107.635 245.939 130.247 216.659 130.247 216.659C144.734 202.201 189.659 165.548 211.096 166.22C240.07 168.232 250.221 185.41 270.705 247.083" fill="#6C96F1"/>
<path fill-rule="evenodd" clip-rule="evenodd" d="M190.662 127.561C192.305 119.662 202.166 110.186 190.891 106.14C186.902 106.355 185.434 120.759 183.801 127.761L190.662 127.561Z" fill="#F0C8B9"/>
<path fill-rule="evenodd" clip-rule="evenodd" d="M111.026 137.204C111.026 137.204 107.13 128.175 100.048 134.234C92.9654 140.292 60.8548 229.951 55.7883 259.231L66.018 260.136C70.5439 247.754 93.2805 207.595 99.2565 183.2L111.026 137.204Z" fill="#E4958D"/>
<path fill-rule="evenodd" clip-rule="evenodd" d="M177.088 178.915C184.045 172.528 190.88 137.272 191.822 125.373L183.651 123.49C181.832 127.629 167.116 162.091 165.032 169.894L177.088 178.915Z" fill="#E4958D"/>
<path fill-rule="evenodd" clip-rule="evenodd" d="M109.397 242.3L100.803 250.796C106.418 259.374 118.667 269.954 151.59 267.087C185.223 264.164 215.711 204.707 226.578 199.288C231.376 208.277 266.047 224.901 276.294 233.179C280.043 236.206 280.949 237.532 280.924 238.733C280.863 240.456 279.134 242.164 280.165 244.041C281.196 245.917 290.191 245.303 293.943 257.187C295.891 256.057 307.252 247.29 307.886 246.253C303.127 238.208 247.571 167.885 224.938 168.879C202.305 169.872 164.713 205.293 147.526 221.559L109.397 242.3Z" fill="#739CF3"/>
<path fill-rule="evenodd" clip-rule="evenodd" d="M125.506 114.14C122.301 114.097 119.591 114.297 117.797 114.751C112.576 116.07 103.446 128.133 100.048 134.234C99.969 134.377 99.8902 134.52 99.8186 134.656C97.3301 139.281 96.7035 175.044 95.4789 195.307C94.1971 216.538 96.2165 236.006 95.3035 253.842C107.721 246.976 131.954 232.336 132.183 232.164C136.426 229.001 142.334 226.152 147.884 225.344C137.662 165.769 158.357 161.806 152.367 147.705C151.676 119.061 149.112 115.262 125.495 114.14" fill="#E4958D"/>
<path fill-rule="evenodd" clip-rule="evenodd" d="M190.916 101.326H199.151C200.078 101.326 200.626 102.084 200.369 103.006L195.682 119.919C195.539 120.385 195.257 120.796 194.872 121.097C194.488 121.397 194.021 121.573 193.533 121.599H185.298C184.37 121.599 183.823 120.845 184.08 119.919L188.767 103.006C188.91 102.54 189.193 102.129 189.577 101.829C189.961 101.528 190.429 101.353 190.916 101.326Z" fill="#40327D"/>
<path fill-rule="evenodd" clip-rule="evenodd" d="M184.696 114.737C185.251 114.183 186.572 113.175 186.873 113.664C187.174 114.154 187.009 118.775 185.627 119.329C184.245 119.883 182.727 120.605 183.103 118.972C183.479 117.339 184.696 114.758 184.696 114.758" fill="#F0C8B9"/>
<path fill-rule="evenodd" clip-rule="evenodd" d="M195.112 114.061C194.593 112.795 192.248 109.975 193.179 109.414C194.11 108.853 197.866 111.709 198.138 113.028C198.41 114.347 195.989 115.833 195.989 115.833L195.112 114.061Z" fill="#F0C8B9"/>
<path fill-rule="evenodd" clip-rule="evenodd" d="M195.298 113.879C194.167 114.268 192.076 115.991 190.93 118.05C190.214 119.372 188.878 122.518 192.094 122.768C195.148 122.997 199.291 114.704 198.12 112.989L195.298 113.879Z" fill="#F0C8B9"/>
<path fill-rule="evenodd" clip-rule="evenodd" d="M144.032 146.229C151.408 155.94 159.904 168.168 165.873 175.023C169.651 179.358 174.083 181.414 177.521 178.579C181.667 175.159 180.779 168.214 178.305 163.825C174.126 157.595 166.468 141.665 159.106 130.434C158.748 130.395 145.385 109.775 138.138 121.395C134.174 127.754 142.7 144.91 144.021 146.229" fill="#E4958D"/>
<path fill-rule="evenodd" clip-rule="evenodd" d="M146.975 94.9711C147.301 97.3015 147.927 114.133 132.295 114.429C116.662 114.726 116.991 102.802 116.852 96.5081C116.712 90.2139 115.233 75.8955 128.059 74.2228C153.71 70.8809 154.401 90.414 146.975 94.9711Z" fill="#EAA67D"/>
<path fill-rule="evenodd" clip-rule="evenodd" d="M129.201 148.212C127.081 152.991 112.061 163.821 108.434 170.916C104.807 178.011 107.198 182.95 102.078 185.849C98.0822 188.111 91.4474 185.745 86.406 185.302C85.3136 185.176 84.2087 185.21 83.1262 185.402C78.0883 186.457 76.563 191.811 67.7297 192.611C55.0007 193.766 46.282 189.173 42.7659 181.485C37.4487 169.851 42.7086 152.43 53.4002 147.43C60.1031 143.855 65.4847 144.66 71.1563 139.331C78.8223 132.121 75.0054 121.259 81.1819 115.658C87.3584 110.058 101.623 113.66 109.132 108.321C116.64 102.981 117.575 98.3127 127.822 97.9553C140.286 98.6201 126.748 114.29 125.928 116.413C123.97 121.434 128.471 127.725 129.885 133.651C130.168 134.845 130.418 136.074 130.601 137.329C131.077 140.817 130.959 144.52 129.222 148.223" fill="#EAA67D"/>
<path fill-rule="evenodd" clip-rule="evenodd" d="M263.163 46.2053C261.694 46.7238 260.112 47.006 258.465 47.006C250.68 47.006 244.369 40.7061 244.369 32.9349C244.369 31.8602 244.489 30.8136 244.718 29.8079H216.177C210.987 29.8079 206.779 34.0152 206.779 39.2052V76.6946C206.779 81.8846 210.987 86.0919 216.177 86.0919H253.766C258.956 86.0919 263.163 81.8846 263.163 76.6946V46.2053Z" fill="#7B98FF"/>
<ellipse cx="258.398" cy="32.9434" rx="12.5323" ry="12.5101" fill="#FF3A46"/>
<path d="M253.932 38.2175H262.864V36.0517H257.603V35.9661L259.432 34.1735C262.008 31.8242 262.699 30.6495 262.699 29.224C262.699 27.0521 260.925 25.5164 258.239 25.5164C255.608 25.5164 253.803 27.0888 253.809 29.5482H256.324C256.318 28.3491 257.076 27.6149 258.22 27.6149C259.322 27.6149 260.142 28.3002 260.142 29.4014C260.142 30.3987 259.53 31.0839 258.392 32.179L253.932 36.3087V38.2175Z" fill="white"/>
</svg>
