<svg width="368" height="288" viewBox="0 0 368 288" fill="none" xmlns="http://www.w3.org/2000/svg">
<path d="M230.009 206.113L226.116 208.909C225.781 209.154 225.555 209.521 225.487 209.93C225.418 210.339 225.512 210.758 225.749 211.099L231.454 219.064C231.701 219.399 232.07 219.624 232.481 219.691C232.893 219.758 233.314 219.661 233.656 219.422L237.549 216.626C237.883 216.38 238.107 216.013 238.174 215.604C238.241 215.195 238.146 214.776 237.908 214.436L232.204 206.472C231.956 206.139 231.589 205.915 231.179 205.848C230.77 205.781 230.35 205.876 230.009 206.113ZM243.932 197.424L240.15 200.132C239.973 200.255 239.772 200.342 239.56 200.385C239.349 200.429 239.13 200.429 238.918 200.386C238.706 200.343 238.505 200.257 238.328 200.134C238.15 200.011 237.999 199.853 237.884 199.67L236.233 196.922C236.15 196.786 236.047 196.663 235.93 196.556L232.985 193.936C232.716 193.7 232.375 193.562 232.018 193.543C231.661 193.524 231.307 193.626 231.015 193.832C230.681 194.079 230.457 194.446 230.39 194.854C230.323 195.263 230.418 195.682 230.656 196.022L232.571 198.682C232.764 198.954 232.868 199.28 232.866 199.614L232.81 205.843C232.802 206.177 232.906 206.505 233.105 206.774L237.829 213.345C237.994 213.571 238.216 213.75 238.472 213.863C238.728 213.976 239.01 214.02 239.289 213.99L242.552 213.632C242.82 213.6 243.075 213.502 243.294 213.345L248.751 209.434C249.006 209.248 249.2 208.99 249.308 208.694C249.416 208.398 249.433 208.076 249.358 207.77L247.227 199.511C247.178 199.322 247.094 199.144 246.98 198.985L246.126 197.798C245.882 197.463 245.515 197.236 245.105 197.166C244.696 197.096 244.275 197.189 243.932 197.424Z" fill="#E7E4FF"/>
<path d="M94.723 153.826L90.8214 156.622C90.4879 156.869 90.2639 157.235 90.1969 157.644C90.1298 158.053 90.2251 158.472 90.4623 158.812L96.1671 166.777C96.4143 167.109 96.7817 167.333 97.1913 167.4C97.601 167.467 98.0206 167.372 98.3612 167.135L102.263 164.347C102.599 164.1 102.824 163.732 102.891 163.321C102.958 162.91 102.862 162.49 102.622 162.149L96.9171 154.185C96.6699 153.852 96.3025 153.628 95.8928 153.561C95.4832 153.494 95.0636 153.589 94.723 153.826ZM108.646 145.137L104.864 147.845C104.686 147.968 104.485 148.054 104.273 148.097C104.061 148.14 103.842 148.14 103.63 148.096C103.418 148.052 103.217 147.965 103.04 147.841C102.862 147.717 102.712 147.559 102.598 147.375L100.946 144.627C100.863 144.494 100.761 144.373 100.643 144.269L97.691 141.633C97.4218 141.397 97.081 141.259 96.7236 141.24C96.3662 141.221 96.0128 141.323 95.7203 141.529C95.3846 141.776 95.159 142.144 95.0919 142.555C95.0248 142.966 95.1215 143.387 95.3612 143.727L97.2761 146.379C97.4671 146.653 97.5701 146.978 97.5713 147.311L97.5075 153.54C97.508 153.874 97.6141 154.2 97.8107 154.471L102.534 161.05C102.699 161.276 102.921 161.455 103.177 161.568C103.434 161.681 103.715 161.725 103.994 161.695L107.257 161.329C107.524 161.3 107.78 161.204 107.999 161.05L113.457 157.139C113.713 156.953 113.908 156.694 114.016 156.396C114.124 156.098 114.14 155.774 114.063 155.467L111.941 147.208C111.891 147.019 111.808 146.841 111.694 146.682L110.84 145.495C110.593 145.162 110.225 144.939 109.816 144.872C109.406 144.805 108.986 144.9 108.646 145.137Z" fill="#FF9559" fill-opacity="0.08"/>
<path d="M209.736 78.1712L205.363 60.1316C205.772 58.8026 205.979 57.42 205.978 56.0299V38.7867C205.978 35.1049 204.513 31.5739 201.905 28.9705C199.297 26.3671 195.759 24.9045 192.071 24.9045H146.976C143.287 24.9045 139.75 26.3671 137.142 28.9705C134.534 31.5739 133.069 35.1049 133.069 38.7867V56.0378C133.069 57.8609 133.428 59.666 134.127 61.3503C134.826 63.0345 135.851 64.5649 137.142 65.854C138.433 67.1431 139.966 68.1656 141.654 68.8633C143.341 69.5609 145.149 69.92 146.976 69.92H188.688V70.0155L209.736 78.1712Z" fill="#D4E4FE"/>
<path d="M169.954 111.184L177.486 112.387C177.486 112.387 202.515 122.032 206.209 127.71C209.903 133.389 200.137 133.174 196.356 132.314C192.574 131.454 179.8 129.343 177.318 125.488C174.837 121.634 169.954 111.184 169.954 111.184Z" fill="#7B98FF"/>
<path d="M179.88 94.602C179.88 94.602 183.869 95.1037 183.829 95.3984C183.789 95.6931 181.491 108.643 181.236 108.699C180.981 108.755 176.449 107.751 176.449 107.751L178.587 93.2241L179.88 94.602Z" fill="#6E80FF"/>
<path d="M178.579 97.0393L179.592 95.2473L179.209 96.1234L183.318 96.8323L181.244 107.401L177.302 106.684L177.087 103.435L178.579 97.0393Z" fill="white"/>
<path d="M149.433 174.82C149.433 174.884 149.433 174.956 149.433 175.02C149.441 174.637 149.417 174.502 149.433 174.82Z" fill="#FEA086"/>
<path d="M147.414 171.054C145.069 169.389 144.734 171.508 144.734 171.508C145.643 179.982 148.867 181.24 149.281 178.907C149.48 177.626 149.541 176.329 149.465 175.036C149.465 174.972 149.465 174.9 149.465 174.837C149.465 174.502 149.465 174.638 149.465 175.036C149.625 175.632 149.955 176.169 150.414 176.581C151.531 175.012 147.414 171.054 147.414 171.054Z" fill="#FEA086"/>
<path d="M190.603 127.352C190.522 125.085 190.255 122.829 189.805 120.606C189.483 118.503 188.707 116.494 187.531 114.72C185.52 111.973 181.946 111.646 178.882 110.666C170.656 109.671 162.342 110.523 154.619 114.378C137.098 123.752 135.821 145.479 136.443 150.131C137.066 154.782 144.35 172.527 144.35 172.527C144.35 172.527 144.239 171.356 147.334 171.571C147.334 171.571 144.143 149.175 146.369 145.017C148.595 140.86 154.731 132.338 154.89 133.62C155.05 134.902 160.132 160.835 160.132 160.835C160.132 160.835 172.292 168.186 183.015 160.835C183.741 160.341 184.268 157.362 184.563 156.494C185.161 154.758 185.744 153.022 186.302 151.269C188.879 143.281 190.922 135.524 190.603 127.352Z" fill="#7B98FF"/>
<path d="M177.486 92.1251C175.994 89.8871 173.169 89.7994 170.744 90.134C169.313 90.2927 167.977 90.9299 166.955 91.942C165.932 92.9542 165.282 94.2818 165.111 95.7091C165.111 95.7091 163.938 94.3551 163.037 97.6923C162.135 101.029 164.568 102.383 165.566 102.383C165.566 102.383 165.638 105.49 167.106 107.114V111.224C171.167 113.932 173.704 111.224 173.704 111.224V108.261C174.079 108.182 174.446 108.102 174.781 107.998C176.696 107.425 177.494 104.542 178.044 102.861C178.119 102.628 178.191 102.389 178.26 102.144C178.866 99.9372 178.988 97.6254 178.619 95.3666C178.477 94.2178 178.091 93.1126 177.486 92.1251Z" fill="#FEA086"/>
<path d="M183.518 160.867C183.518 160.867 174.805 164.849 160.627 160.867C160.627 160.867 151.348 166.442 151.348 190.742C151.348 194.525 151.212 198.411 151.555 202.179C151.938 206.32 153.031 210.43 152.576 214.611C152.058 219.39 149.776 223.731 148.954 228.469C148.228 232.699 147.709 236.976 147.255 241.213C146.864 244.852 146.536 248.5 146.249 252.156C146.193 252.817 145.523 257.452 145.986 257.986C145.986 257.986 147.749 260.543 150.773 257.986C153.302 250.882 155.768 242.383 158.911 235.51C161.975 228.82 166.092 222.56 168.055 215.4C169.348 210.621 169.435 205.731 169.651 200.849C169.754 197.894 169.02 189.969 172.324 188.312C173.608 187.675 177.286 201.43 181.611 209.41C185.935 217.391 185.768 215.782 186.254 221.23C186.741 226.677 192.813 250.021 198.733 257.986C199.397 258.561 200.247 258.877 201.127 258.877C202.006 258.877 202.856 258.561 203.52 257.986C203.52 257.986 201.206 220.003 200.44 211.903C199.674 203.803 190.411 173.275 183.518 160.867Z" fill="#322D2F"/>
<path d="M203.536 258.018C203.536 258.018 200.975 259.611 198.749 258.018C198.749 258.018 198.214 261.466 198.749 263.593C199.284 265.72 200.241 264.23 203.536 265.082C206.831 265.935 210.9 264.23 210.15 262.637C209.4 261.044 203.656 260.041 203.536 258.018Z" fill="#414C96"/>
<path d="M150.805 258.018C150.805 258.018 148.244 259.611 146.018 258.018C146.018 258.018 145.483 261.466 146.018 263.593C146.553 265.72 147.518 264.23 150.805 265.082C154.092 265.935 158.17 264.23 157.42 262.637C156.67 261.044 150.933 260.041 150.805 258.018Z" fill="#414C96"/>
<path d="M183.358 88.0075C184.276 86.8208 183.526 87.0598 182.169 86.4146C180.813 85.7695 179.544 87.4659 179.082 86.9084C178.619 86.3509 179.696 83.2129 177.534 84.8217C175.372 86.4306 174.294 85.8969 171.805 84.9014C169.316 83.9058 168.997 86.3589 167.345 86.4943C166.443 86.566 165.199 87.4182 164.233 88.8836C162.302 90.4765 161.744 94.8809 162.638 99.6994C163.611 104.845 165.829 104.526 165.829 104.526C165.683 103.819 165.582 103.103 165.526 102.383C161.888 101.348 163.412 97.111 163.412 97.111C163.535 97.1354 163.663 97.1354 163.787 97.111C164.119 97.2059 164.42 97.386 164.661 97.6333C164.902 97.8806 165.073 98.1866 165.159 98.5207C165.622 99.7393 166.18 97.549 166.443 96.3384C167.927 96.1393 169.571 96.3384 170.433 96.0995C171.614 95.7809 172.196 92.8261 173.114 93.9331C174.031 95.0402 174.709 95.1756 176.305 95.98C177.901 96.7844 178.627 96.9915 178.699 99.4286C178.762 100.807 180.199 99.4286 180.199 99.4286C181.052 98.8233 180.59 96.3942 180.893 95.2314C181.196 94.0685 182.664 94.8013 183.382 93.4712C184.1 92.1411 182.584 91.6871 181.667 90.6757C180.749 89.6642 182.441 89.2102 183.358 88.0075Z" fill="#414C96"/>
<path d="M181.611 98.7513C182.353 98.0664 184.355 99.938 184.715 100.344C186.199 102.12 187.906 106.501 184.371 107.281C183.765 107.417 182.177 106.445 181.978 106.015C181.778 105.585 182.353 102.447 182.48 101.571C182.608 100.695 181.786 99.9778 181.347 99.4442C181.344 99.1883 181.438 98.9407 181.611 98.7513Z" fill="#FEA086"/>
<path d="M202.89 120.319C206.018 125.178 208.26 132.449 205.683 133.015C203.84 133.421 199.715 133.015 196.419 132.314C189.797 126.285 183.582 107.019 183.582 107.019L186.661 104.175C186.661 104.175 199.754 115.461 202.89 120.319Z" fill="#7B98FF"/>
<path d="M181.651 46.998H176.863L175.539 52.167H179.8V55.7669H174.661L173.249 61.3421H169.603L170.999 55.7669H167.01L165.614 61.3421H161.919L163.324 55.7669H159.255V52.167H164.233L165.518 47.0219H161.09V43.406H166.411L167.784 37.9822H171.486L170.121 43.406H174.111L175.475 37.9822H179.185L177.789 43.406H181.651V46.998ZM173.249 46.998H169.196L167.879 52.167H171.925L173.249 46.998Z" fill="white"/>
<path d="M78.6699 262.852C76.8348 263.083 73.0848 260.63 72.5343 260.519C71.9838 260.407 70.6194 258.973 70.771 258.328C70.9226 257.683 69.5263 257.237 69.1753 257.882C68.8242 258.527 65.2498 257.763 66.646 255.764C67.864 254.206 69.262 252.797 70.8109 251.566C71.144 252.185 71.6571 252.688 72.2824 253.009C72.9077 253.33 73.6159 253.455 74.3135 253.366C74.2011 254.525 74.2711 255.694 74.521 256.831C74.9439 258.671 80.513 262.629 78.6699 262.852Z" fill="#6E80FE"/>
<path d="M100.197 196.436C100.197 196.436 101.457 214.078 97.9705 220.218C94.4839 226.359 73.2925 254.187 73.2925 254.187L70.6835 251.973C70.6835 251.973 78.9893 224.894 86.7685 213.273C86.7685 213.273 87.5663 197.942 85.0451 194.867C85.0451 194.867 89.7685 194.533 100.197 196.436Z" fill="#FEB39E"/>
<path d="M76.6995 261.785C76.1171 261.873 74.3857 260.933 74.3059 260.272C74.2261 259.611 72.774 259.635 72.6623 260.352C72.5506 261.068 68.9044 261.49 69.5905 259.149C70.2462 257.286 71.1164 255.506 72.1836 253.844C72.6982 254.325 73.3464 254.638 74.0428 254.743C74.7393 254.848 75.4513 254.741 76.0852 254.434C76.3546 255.557 76.7959 256.631 77.3937 257.62C78.3671 259.213 84.9096 261.196 83.2421 262C81.5745 262.805 77.282 261.698 76.6995 261.785Z" fill="#7798FF"/>
<path d="M76.3803 113.908L76.1968 108.381L80.6888 108.436L80.9999 114.012C80.9999 114.012 79.0452 116.504 76.3803 113.908Z" fill="#FEA086"/>
<path d="M85.0451 194.867C85.0451 194.867 85.803 214.579 84.5344 216.993C83.2658 219.406 75.6941 249.647 76.085 254.426C76.085 254.426 74.6568 256.401 72.0957 254.044C72.0957 254.044 68.9042 222.831 71.1063 216.284C73.3084 209.737 68.0585 197.169 68.0585 197.169C68.0585 197.169 78.4547 194.565 85.0451 194.867Z" fill="#FEA086"/>
<path d="M65.7847 156.869C68.9363 148.171 73.899 144.364 74.7527 143.257L87.6622 143.393C91.8989 146.833 97.4361 157.323 98.9999 167.095C101.13 180.412 100.197 196.436 100.197 196.436C100.197 196.436 87.3192 196.715 68.0187 197.185C68.0187 197.185 62.2422 166.665 65.7847 156.869Z" fill="#6E80FF"/>
<path d="M81.0715 98.7036L73.6194 105.529C73.6194 105.529 74.0742 114.067 81.0715 113.295C88.0688 112.522 87.973 102.885 86.8161 100.44C85.6592 97.9948 81.0715 98.7036 81.0715 98.7036Z" fill="#F7B690"/>
<path d="M88.715 97.8913C87.3188 96.9913 85.6034 96.9116 84.247 95.9161C84.0475 95.8125 83.8401 95.717 83.6326 95.6294C83.4252 95.5418 83.2018 95.4541 82.9784 95.3825C82.755 95.3108 82.5475 95.1913 82.3241 95.1117C82.1007 95.032 82.0289 95.0002 81.8853 94.9603L81.4305 94.8249C80.2959 94.3438 79.0466 94.1984 77.8315 94.406C76.6164 94.6135 75.4867 95.1654 74.5769 95.9957C74.3694 96.1471 74.162 96.3063 73.9545 96.4816C73.4765 96.8595 73.103 97.3529 72.8694 97.9152C72.7885 98.1019 72.7192 98.2934 72.662 98.4886C72.4633 98.9165 72.3134 99.3653 72.2152 99.8267C72.1683 100.058 72.1337 100.292 72.1114 100.528C71.5529 102.375 72.0077 105.131 73.4439 105.816C73.6261 105.906 73.8238 105.96 74.0263 105.975C74.5039 105.968 74.9745 105.86 75.4066 105.657C75.9971 105.378 76.4838 104.964 77.0423 104.645C77.2386 104.528 77.423 104.392 77.5928 104.239C78.8853 103.1 79.7869 101.117 81.5263 100.575C83.2656 100.034 85.0927 101.874 85.9066 103.387C86.3135 104.135 86.489 107.098 88.1007 106.573C90.0874 105.912 89.6087 102.535 89.856 100.95C90.007 100.385 89.9783 99.7869 89.7739 99.2389C89.5695 98.691 89.1994 98.22 88.715 97.8913Z" fill="#FF75AA"/>
<path d="M69.0239 104.239C69.0877 104.478 73.8111 115.796 74.0425 115.796C74.2739 115.796 78.1994 113.972 78.1994 113.972L73.476 102.423C73.476 102.423 68.9521 103.992 69.0239 104.239Z" fill="#F7A60F"/>
<path d="M69.782 105.458L73.7793 114.649L77.5452 113.072L73.6197 103.889L69.782 105.458Z" fill="white"/>
<path d="M67.0771 88.9392C64.1888 90.6675 59.7686 92.0135 55.157 86.8286C50.5453 81.6437 44.5772 80.8313 39.5347 81.6995C34.4922 82.5676 37.6597 85.1481 42.8459 85.5862C48.032 86.0242 49.0533 96.8081 54.6703 98.3931C57.0639 99.0701 59.6809 98.5126 62.0186 97.8037C63.4947 97.3497 64.859 96.6011 66.3351 96.1471C68.5532 95.4701 70.9148 96.5613 73.1888 96.2347C73.8082 96.1467 74.4 95.9208 74.9201 95.5737C75.3121 95.3201 75.6494 94.9911 75.9123 94.6057C76.1752 94.2204 76.3585 93.7866 76.4514 93.3297C76.5443 92.8728 76.5449 92.402 76.4532 91.9449C76.3615 91.4878 76.1794 91.0535 75.9175 90.6675C73.9946 87.6967 69.9574 87.2109 67.0771 88.9392Z" fill="#FF75AA"/>
<path d="M121.037 111.781L120.75 110.34C120.462 108.898 110.529 128.658 108.782 128.809C107.034 128.961 96.0796 118.71 96.0796 118.71L97.2923 134.249C97.3641 135.181 109.197 138.104 110.489 138.072C113.345 137.993 115.579 127.925 116.329 125.727C117.423 122.541 118.484 119.284 119.521 116.05L120.774 115.373C122.026 114.704 127.404 110.595 126.359 109.719C125.313 108.842 121.037 111.781 121.037 111.781Z" fill="#F7B690"/>
<path d="M96.7177 119.117C95.2735 117.588 82.3561 115.796 82.3561 115.796C80.0742 118.113 77.7843 115.796 77.7843 115.796L70.1088 116.879C68.912 117.046 65.8243 123.25 65.1461 124.27C63.3828 126.906 61.6354 129.55 59.8562 132.171C63.662 129.614 67.9306 130.753 70.4599 134.52C71.6907 136.363 72.67 138.361 73.3721 140.462C74.2098 142.971 74.13 143.998 77.138 143.974C80.505 143.974 84.3188 144.181 87.6699 143.504C87.2949 143.576 90.3587 136.997 91.0129 136.336C93.0634 134.289 95.1299 132.895 97.7629 134.664C99.3028 134.345 102.55 125.154 102.175 124.198C101.8 123.242 98.1459 120.662 96.7177 119.117Z" fill="#FF95C3"/>
<path d="M77.8241 116.05C77.8241 116.05 80.5209 118.304 82.3959 116.05V111.781L77.8241 112.403V116.05Z" fill="#F7B690"/>
<path d="M70.811 107.122C69.4307 108.755 70.2844 113.454 69.4307 114.41C68.0664 116.003 65.96 117.149 64.3084 118.392C60.5106 121.219 55.6196 124.803 53.8564 129.375C53.1622 131.183 52.9069 134.416 55.2207 135.34C58.1249 136.503 59.3936 132.871 60.5425 131.294C60.6941 131.095 72.1913 115.294 73.0291 114.911C73.8669 114.529 73.5637 109.83 73.5637 108.197C73.5637 106.565 72.1914 105.529 70.811 107.122Z" fill="#F7B690"/>
<path d="M64.0692 24.6736C81.2952 24.6736 95.2659 36.7239 95.2659 51.5857C95.2556 56.1229 93.9552 60.5641 91.5159 64.3926V64.5599C91.5366 65.3627 91.7413 66.1501 92.1143 66.8616L98.4972 78.9597L82.7952 73.1138C77.2066 76.6803 70.7021 78.5532 64.0692 78.5057C46.8433 78.5057 32.8806 66.4554 32.8806 51.5857C32.8806 36.7159 46.8433 24.6736 64.0692 24.6736Z" fill="#7B98FF"/>
<path d="M63.7179 35.1072L68.3296 44.6646L78.654 46.2017L71.186 53.6326L72.9493 64.1378L63.7179 59.1839L54.4866 64.1378L56.2499 53.6326L48.7819 46.2017L59.0983 44.6646L63.7179 35.1072Z" fill="white"/>
<path d="M284.847 149.023C284.847 149.023 286.251 150.8 297.565 151.198C297.565 151.198 310.834 160.437 313.355 182.172C315.876 203.907 330.23 256.616 330.23 256.616H327.206C327.206 256.616 310.602 233.376 306.565 213.847C302.528 194.318 294.326 176.995 291.302 175.904C288.278 174.813 272.225 237.597 269.688 256.616H266.552C266.552 256.616 261.988 232.85 267.031 211.656C272.073 190.463 261.079 168.584 284.847 149.023Z" fill="#7798FF"/>
<path d="M254.528 132.091C254.528 132.091 255.023 131.605 261.948 123.704C268.874 115.804 265.706 116.895 271.754 114.043C277.802 111.192 291.924 110.969 297.86 111.463C303.796 111.957 311.831 116.457 311.831 116.457L291.924 102.121L293.448 99.5798C293.448 99.5798 327.717 113.653 326.233 124.517C325.554 129.503 303.557 126.858 303.557 126.858C303.557 126.858 301.961 133.572 301.164 138.638C300.118 142.325 298.395 147.303 297.398 150.999C293.36 156.359 286.004 153.555 284.041 151.986C282.9 151.078 282.278 149.422 281.648 148.139C280.148 144.954 278.456 135.643 275.592 133.286C275.328 133.07 275.028 132.903 274.706 132.792C274.632 132.727 274.555 132.666 274.475 132.609C272.001 131.127 257.624 141.417 255.645 141.417C253.666 141.417 221.959 128.372 221.959 128.372L224.185 126.635L254.528 132.091Z" fill="#FF95C3"/>
<path d="M298.371 103.952L291.972 107.775L287.217 98.863L291.725 93.4312L298.371 103.952Z" fill="#410C10"/>
<path d="M297.046 103.156L292.171 106.071L288.541 99.277L291.98 95.1355L297.046 103.156Z" fill="white"/>
<path d="M284.105 91.2569C285.271 91.0669 286.467 91.2601 287.513 91.8074C288.559 92.3546 289.399 93.2264 289.906 94.2914C291.884 98.1701 292.355 107.242 287.304 109.257C277.738 113.08 272.313 92.6268 284.105 91.2569Z" fill="#F49E87"/>
<path d="M288.381 112.833C288.381 112.833 286.594 115.334 283.371 112.833V107.122L288.381 106.406V112.833Z" fill="#F49E87"/>
<path d="M213.103 120.542C213.406 120.017 214.324 121.498 214.324 120.925C214.324 120.351 214.587 120.351 215.544 121.45C216.502 122.549 219.996 123.983 219.294 122.836C218.592 121.689 218.688 121.45 218.688 121.45C218.688 121.45 220.603 122.502 221.919 123.043C223.236 123.585 224.145 126.619 224.145 126.619C223.754 129.431 221.919 128.356 221.919 128.356C217.93 129.51 213.278 123.234 213.278 122.78C213.278 122.326 215.066 124.023 214.372 123.258C213.677 122.494 212.8 121.068 213.103 120.542Z" fill="#F49E87"/>
<path d="M249.382 99.2613C257.967 91.7587 260.831 89.9747 266.56 91.0419C272.288 92.1092 278.009 86.4066 284.448 88.1906C290.887 89.9747 293.392 92.8339 292.674 98.9029C291.956 104.972 290.456 105.896 290.456 105.896C290.909 104.049 290.81 102.111 290.169 100.321C290.169 100.321 290.528 99.9622 288.022 98.5365C285.517 97.1109 283.012 96.0357 282.653 93.8932C282.653 93.8932 281.584 93.5348 281.584 95.3189C281.584 97.1029 282.685 101.691 278.56 104.765C278.56 104.765 279.358 108.03 283.514 109.544C283.514 109.544 283.73 112.833 283.371 113.183C283.012 113.534 274.786 113.542 272.28 116.043C269.775 118.543 263.695 109.615 257.967 113.542C252.238 117.468 239.728 123.896 230.041 116.401C220.355 108.906 217.874 106.398 223.244 100.329C228.613 94.2596 240.797 106.756 249.382 99.2613Z" fill="#414C96"/>
<path d="M330.214 256.616C330.214 256.616 331.387 259.643 332.607 260.328C333.828 261.013 336.334 260.144 334.427 260.415C331.796 260.555 329.159 260.555 326.528 260.415C326.528 260.415 326.057 258.106 327.182 256.616H330.214Z" fill="#414C96"/>
<path d="M269.6 256.616C269.6 256.616 272.592 257.97 273.813 258.655C275.033 259.34 275.72 260.144 273.813 260.415C271.184 260.555 268.55 260.555 265.922 260.415C265.922 260.415 265.451 258.106 266.568 256.616H269.6Z" fill="#414C96"/>
<path d="M278.191 65.4437C294.09 65.4437 306.978 55.873 306.978 44.0669C306.978 32.2609 294.09 22.6902 278.191 22.6902C262.292 22.6902 249.404 32.2609 249.404 44.0669C249.404 55.873 262.292 65.4437 278.191 65.4437Z" fill="#FF95C3"/>
<path d="M305.574 71.4728C305.574 74.4994 302.27 76.9524 298.201 76.9524C294.132 76.9524 290.829 74.4994 290.829 71.4728C290.829 68.4463 294.124 66.0012 298.201 66.0012C302.278 66.0012 305.574 68.4543 305.574 71.4728Z" fill="#FF95C3"/>
<path d="M313.648 80.9825C313.648 82.8542 311.606 84.3674 309.084 84.3674C306.563 84.3674 304.521 82.8542 304.521 80.9825C304.521 79.1108 306.563 77.5896 309.084 77.5896C311.606 77.5896 313.648 79.1108 313.648 80.9825Z" fill="#FF95C3"/>
<path d="M268.449 39.9492C270.564 33.1475 276.93 39.3519 277.609 40.5227C278.295 39.3519 285.069 34.0475 286.776 39.9492C288.739 46.7429 277.744 54.5641 277.696 54.7552V54.8349L277.609 54.7951L277.521 54.8349V54.7552C275.981 53.9986 266.67 45.6598 268.449 39.9492Z" fill="white"/>
</svg>
