<svg width="494" height="264" viewBox="0 0 494 264" fill="none" xmlns="http://www.w3.org/2000/svg">
<path opacity="0.2" d="M494.001 247.729C494.001 256.674 383.499 263.926 246.986 263.926C110.473 263.926 -0.000976562 256.674 -0.000976562 247.729C-0.000976562 238.784 110.501 231.532 246.986 231.532C383.47 231.532 494.001 238.784 494.001 247.729Z" fill="#DEE7EE"/>
<path d="M178.786 95.9771C196.495 108.393 211.427 124.702 225.594 140.814C232.621 148.856 253.758 182.152 260.218 190.702C272.401 206.871 266.706 206.617 244.889 218.214C242.137 219.725 239.115 220.683 235.992 221.036C199.357 224.76 182.441 176.932 171.448 151.226C166.659 139.939 161.502 126.282 157.422 114.826C160.596 94.3969 178.786 95.9771 178.786 95.9771Z" fill="#071786"/>
<path d="M168.67 218.778C187.484 208.056 208.593 201.453 229.333 195.527C239.619 192.706 278.861 187.542 289.373 185.341C309.207 181.137 306.6 186.187 307.932 210.736C308.095 213.848 307.652 216.962 306.628 219.907C294.53 254.529 243.869 249.62 215.96 248.688C203.776 248.293 189.042 247.136 176.887 245.867C159.575 234.552 168.67 218.778 168.67 218.778Z" fill="#071786"/>
<path d="M161.502 226.594C161.418 224.743 161.123 222.906 160.624 221.12C160.624 220.584 159.774 215.618 159.83 215.082C160.539 207.237 165.072 185.962 165.072 185.962L143.425 182.576C143.425 182.576 143.822 201.707 139.175 212.26C128.833 216.182 110.699 220.725 110.699 220.725C110.699 220.725 90.8657 221.092 89.8173 221.374C87.3301 221.819 84.9648 222.78 82.8755 224.196C82.8755 224.196 79.9004 228.852 103.503 236.104C112.332 238.803 121.561 239.977 130.788 239.574L141.81 240.195C145.578 240.393 156.827 241.662 158.442 240.788C158.97 240.511 159.441 240.138 159.83 239.687C162.267 236.753 161.332 230.347 161.502 226.594Z" fill="#9D663A"/>
<path d="M160.511 221.12C160.511 220.81 160.171 219.032 159.972 217.452L157.337 218.383C147.421 221.684 137.504 219.766 127.927 216.267L127.502 216.041C119.002 218.609 110.813 220.697 110.813 220.697C110.813 220.697 90.9794 221.064 89.9311 221.346C87.4438 221.79 85.0785 222.752 82.9893 224.168C82.9893 224.168 80.0142 228.823 103.616 236.075C112.408 238.771 121.597 239.954 130.789 239.574L141.81 240.195C145.579 240.392 156.827 241.662 158.442 240.788C158.97 240.511 159.441 240.137 159.831 239.687C162.268 236.555 161.333 230.234 161.389 226.481C161.296 224.667 161.002 222.869 160.511 221.12V221.12Z" fill="url(#paint0_linear)"/>
<path d="M167.566 95.8069H167.396C162.641 95.6663 158.012 97.3411 154.456 100.489C150.901 103.636 148.688 108.018 148.271 112.737C145.976 136.581 142.604 171.993 140.904 192.084L163.174 196.288C169.682 176.317 174.674 155.886 178.106 135.17C179.551 126.197 180.94 111.411 181.421 102.325C181.421 100.66 178.588 97.7821 178.786 95.948C175.054 95.644 171.305 95.5969 167.566 95.8069Z" fill="#071786"/>
<path d="M220.691 41.772L224.799 54.2147L217.603 56.5848L220.691 41.772Z" fill="#9D663A"/>
<path d="M242.509 53.6785C242.736 57.7416 243.728 81.6124 243.728 81.6124C246.391 84.2083 258.404 84.434 263.107 79.6937C265.13 77.9978 266.517 75.6711 267.045 73.0912L262.937 38.3008L242.509 53.6785Z" fill="#9D663A"/>
<path d="M259.17 12.0586L261.408 24.3613L264.837 43.1257L265.828 48.4023C255.26 69.8474 235.369 73.5156 228.343 67.1668C221.316 60.8179 215.422 22.0193 215.422 22.0193L259.17 12.0586Z" fill="#9D663A"/>
<path d="M257.837 66.8003C257.837 66.8003 240.1 35.7614 235.17 33.504C230.24 31.2467 214.6 36.1565 205.164 24.1924C195.729 12.2283 200.433 5.51261 203.691 4.63788C206.949 3.76315 214.061 15.5297 224.46 7.45959C234.858 -0.610516 257.837 -2.52928 261.946 6.04874C261.946 6.04874 276.311 6.41556 274.668 25.9701C273.024 45.5246 269.001 62.2291 264.269 64.0068L257.837 66.8003Z" fill="#303233"/>
<path d="M245.881 32.5445C251.094 36.0997 251.746 47.4426 242.736 54.412L237.466 36.0997C237.67 35.2368 238.075 34.4338 238.649 33.756C239.223 33.0781 239.949 32.5444 240.768 32.1982C241.588 31.8519 242.478 31.7028 243.366 31.763C244.254 31.8232 245.116 32.0909 245.881 32.5445V32.5445Z" fill="#9D663A"/>
<path d="M265.516 73.7983C252.001 75.3784 230.722 79.4417 226.784 94.8765C224.903 103.228 224.807 111.881 226.5 120.272C227.662 126.847 228.739 133.421 229.504 140.024C230.835 151.311 232.337 163.811 229.334 174.844L216.64 197.982C216.64 197.982 278.21 225.127 308.839 189.291C308.839 189.291 306.912 100.04 292.603 79.2442C290.847 76.6764 286.483 75.5477 283.735 74.8705C277.776 73.4251 271.604 73.0619 265.516 73.7983V73.7983Z" fill="#E4E4E4"/>
<path d="M154.277 107.687C155.313 114.71 158.153 121.349 162.522 126.959C169.322 134.69 177.086 137.766 183.432 145.949C188.448 152.354 238.23 199.928 243.302 182.631C243.716 180.293 243.348 177.884 242.254 175.775C233.782 155.204 213.211 146.457 195.219 135.763L188.391 131.191C188.391 131.191 185.557 119.538 178.247 113.076L154.277 107.687Z" fill="#9D663A"/>
<path d="M152.039 78.9622L137.079 95.8925C136.826 96.1677 136.63 96.49 136.503 96.841C136.376 97.1919 136.32 97.5645 136.338 97.9371C136.357 98.3098 136.449 98.6751 136.61 99.0119C136.772 99.3487 136.998 99.6503 137.277 99.8993L167.679 127.27C167.957 127.531 168.284 127.733 168.642 127.865C169 127.996 169.381 128.055 169.762 128.036C170.143 128.018 170.516 127.923 170.859 127.757C171.203 127.592 171.509 127.359 171.76 127.072L186.436 110.96C186.691 110.687 186.889 110.366 187.019 110.016C187.148 109.666 187.206 109.294 187.191 108.922C187.175 108.549 187.085 108.183 186.926 107.846C186.768 107.508 186.543 107.205 186.266 106.954L156.148 78.7365C155.868 78.473 155.537 78.269 155.175 78.1371C154.814 78.0051 154.429 77.948 154.045 77.9691C153.66 77.9903 153.284 78.0892 152.939 78.26C152.594 78.4307 152.288 78.6696 152.039 78.9622Z" fill="url(#paint1_linear)"/>
<path d="M140.054 97.6692L165.978 121.06L179.861 105.795L154.362 81.6143L140.054 97.6692Z" fill="url(#paint2_linear)"/>
<path d="M169.719 127.184C169.719 127.184 171.986 125.829 171.051 121.541C170.116 117.252 168.217 107.122 168.217 107.122C168.217 107.122 168.217 103.482 169.691 104.301C171.289 105.315 172.632 106.683 173.615 108.298C174.597 109.913 175.193 111.731 175.357 113.612C175.859 116.01 176.759 118.309 178.02 120.412C181.161 123.41 183.163 127.397 183.687 131.698C183.687 131.698 173.487 134.971 169.719 127.184Z" fill="#9D663A"/>
<path d="M245.427 182.35C247.34 179.05 248.227 175.26 247.977 171.458C248.317 161.328 248.827 151.198 249.281 141.097C249.479 136.582 249.677 132.067 249.819 127.552C250.131 118.354 250.754 104.979 238.655 102.608C237.145 102.558 235.642 102.837 234.252 103.427C232.861 104.017 231.618 104.903 230.609 106.023C229.271 107.648 228.382 109.594 228.03 111.666C227.321 116.486 226.998 121.355 227.067 126.226C226.613 134.691 226.302 142.959 226.245 151.34C226.245 156.729 226.245 162.147 226.528 167.564C226.755 171.994 226.528 177.638 228.653 181.673C230.779 185.708 236.247 186.78 240.27 185.652C242.318 185.17 244.137 184.005 245.427 182.35V182.35Z" fill="#9D663A"/>
<path d="M255.005 145.724C253.333 133.224 255.005 88.3305 237.126 86.4682C217.264 84.3801 221.004 146.26 221.004 146.26L255.005 145.724Z" fill="#E9E9E9"/>
<path d="M39.8651 249.168C41.6801 248.763 43.4467 248.167 45.1352 247.39C45.6169 247.193 50.4053 245.612 50.9437 245.584C58.8772 245.048 80.8076 245.838 80.8076 245.838L80.4676 224.026C80.4676 224.026 61.5972 227.666 50.377 224.901C45.0652 216.935 39.074 209.439 32.47 202.497C32.47 202.497 28.3332 191.943 27.8515 190.956C27.3699 189.968 30.6849 187.485 28.0215 184.663C28.0215 184.663 27.4832 170.047 24.3098 194.455C24.3098 194.455 18.643 204.585 21.7031 221.374C22.0998 225.014 22.5248 228.654 22.9498 232.294C23.3748 235.934 24.0548 247.249 25.1882 248.688C25.5499 249.166 26.0023 249.569 26.5198 249.873C30.0332 251.764 36.125 249.76 39.8651 249.168Z" fill="#9D663A"/>
<path d="M45.0212 247.419C44.1645 242.023 44.0406 236.538 44.6529 231.109C44.9814 227.32 45.9389 223.61 47.4863 220.133C42.3862 210.652 36.9177 198.547 36.9177 198.547C36.9177 198.547 33.0643 184.692 32.5827 183.676C31.7178 181.31 30.3557 179.155 28.5876 177.355C28.5876 177.355 23.7708 169.596 20.5974 194.004C19.398 203.123 19.7717 212.38 21.7024 221.374C22.0991 225.014 22.5241 228.654 22.9491 232.294C23.3741 235.934 24.0541 247.249 25.1875 248.689C25.5492 249.167 26.0017 249.569 26.5192 249.874C30.0326 251.764 36.1244 249.874 39.8645 249.168C41.6418 248.772 43.3709 248.186 45.0212 247.419Z" fill="url(#paint3_linear)"/>
<path d="M70.2104 245.753C96.0226 249.337 152.719 254.218 184.708 243.355C189.751 241.634 195.135 236.555 195.701 231.052C195.953 228.631 195.63 226.185 194.759 223.911C193.888 221.637 192.493 219.599 190.686 217.959C187.655 215.815 177.568 215.138 174.054 215.138C164.109 215.589 100.613 220.781 70.6071 223.039L70.2104 245.753Z" fill="#071786"/>
<path d="M323.081 139.637C315.669 134.228 310.163 126.625 307.349 117.914C304.536 109.202 304.56 99.8279 307.416 91.1304C310.273 82.433 315.818 74.8573 323.257 69.4859C330.696 64.1144 339.65 61.2221 348.839 61.2221C358.028 61.2221 366.982 64.1144 374.421 69.4859C381.86 74.8573 387.405 82.433 390.262 91.1304C393.119 99.8279 393.142 109.202 390.329 117.914C387.516 126.625 382.009 134.228 374.597 139.637H393.625C400.282 131.264 404.436 121.192 405.609 110.575C406.783 99.9589 404.928 89.2282 400.258 79.6135C395.588 69.9987 388.292 61.8892 379.207 56.2146C370.121 50.5401 359.613 47.5303 348.889 47.5303C338.164 47.5303 327.657 50.5401 318.571 56.2146C309.485 61.8892 302.189 69.9987 297.519 79.6135C292.85 89.2282 290.995 99.9589 292.168 110.575C293.341 121.192 297.495 131.264 304.153 139.637H323.081Z" fill="#45BE93"/>
<path d="M407.543 118.193H288.407C287.274 118.193 286.153 118.416 285.107 118.848C284.062 119.28 283.112 119.913 282.312 120.712C281.512 121.51 280.878 122.457 280.447 123.5C280.016 124.542 279.795 125.659 279.797 126.787V239.136C279.795 240.264 280.016 241.381 280.447 242.423C280.878 243.466 281.512 244.413 282.312 245.211C283.112 246.01 284.062 246.643 285.107 247.075C286.153 247.507 287.274 247.729 288.407 247.729H407.543C408.675 247.729 409.796 247.507 410.842 247.075C411.888 246.643 412.838 246.01 413.638 245.211C414.437 244.413 415.071 243.466 415.503 242.423C415.934 241.381 416.155 240.264 416.152 239.136V126.787C416.155 125.659 415.934 124.542 415.503 123.5C415.071 122.457 414.437 121.51 413.638 120.712C412.838 119.913 411.888 119.28 410.842 118.848C409.796 118.416 408.675 118.193 407.543 118.193ZM357.22 177.714V210.108C357.22 211.263 356.759 212.371 355.939 213.188C355.119 214.005 354.006 214.464 352.846 214.464H344.893C343.733 214.464 342.62 214.005 341.8 213.188C340.98 212.371 340.519 211.263 340.519 210.108V177.714C337.776 176.25 335.482 174.075 333.879 171.419C332.276 168.763 331.424 165.725 331.413 162.626C331.485 158.128 333.282 153.828 336.435 150.607C339.588 147.385 343.859 145.487 348.372 145.3C350.713 145.232 353.044 145.631 355.227 146.476C357.41 147.321 359.4 148.593 361.08 150.218C362.76 151.843 364.095 153.788 365.007 155.936C365.918 158.084 366.387 160.393 366.386 162.725C366.351 165.813 365.482 168.835 363.869 171.473C362.256 174.11 359.959 176.266 357.22 177.714Z" fill="#45BE93"/>
<defs>
<linearGradient id="paint0_linear" x1="-254291" y1="-32078.3" x2="-252106" y2="-31807.1" gradientUnits="userSpaceOnUse">
<stop stop-color="#071786"/>
<stop offset="0.15" stop-color="#05136B"/>
<stop offset="0.32" stop-color="#041055"/>
<stop offset="0.51" stop-color="#030E45"/>
<stop offset="0.72" stop-color="#020C3B"/>
<stop offset="1" stop-color="#020C38"/>
</linearGradient>
<linearGradient id="paint1_linear" x1="136.812" y1="104.847" x2="186.536" y2="101.075" gradientUnits="userSpaceOnUse">
<stop stop-color="#18154B"/>
<stop offset="0.13" stop-color="#191650"/>
<stop offset="0.28" stop-color="#1C1A5F"/>
<stop offset="0.45" stop-color="#212078"/>
<stop offset="0.63" stop-color="#27299A"/>
<stop offset="0.82" stop-color="#2F34C5"/>
<stop offset="1" stop-color="#3941F7"/>
</linearGradient>
<linearGradient id="paint2_linear" x1="140.385" y1="102.879" x2="179.343" y2="99.9236" gradientUnits="userSpaceOnUse">
<stop offset="0.05" stop-color="#F8F2FA"/>
<stop offset="0.22" stop-color="#F4F1FA"/>
<stop offset="0.39" stop-color="#E9ECFA"/>
<stop offset="0.55" stop-color="#D5E5FB"/>
<stop offset="0.72" stop-color="#BADAFC"/>
<stop offset="0.88" stop-color="#97CDFD"/>
<stop offset="1" stop-color="#78C1FE"/>
</linearGradient>
<linearGradient id="paint3_linear" x1="94426.5" y1="-133750" x2="94308.2" y2="-133048" gradientUnits="userSpaceOnUse">
<stop stop-color="#071786"/>
<stop offset="0.15" stop-color="#05136B"/>
<stop offset="0.32" stop-color="#041055"/>
<stop offset="0.51" stop-color="#030E45"/>
<stop offset="0.72" stop-color="#020C3B"/>
<stop offset="1" stop-color="#020C38"/>
</linearGradient>
</defs>
</svg>
