<svg width="177" height="177" viewBox="0 0 177 177" fill="none" xmlns="http://www.w3.org/2000/svg">
<path opacity="0.296875" fill-rule="evenodd" clip-rule="evenodd" d="M88.8672 176.12C137.467 176.12 176.865 136.721 176.865 88.1201C176.865 39.519 137.467 0.120056 88.8672 0.120056C40.2672 0.120056 0.869141 39.519 0.869141 88.1201C0.869141 136.721 40.2672 176.12 88.8672 176.12Z" fill="#2B45C9"/>
<path d="M136.985 162.059C126.004 165.132 114.428 166.774 102.469 166.774C66.0243 166.774 33.1373 151.519 9.82617 127.037C24.1508 156.267 54.1635 176.389 88.8686 176.389C106.627 176.389 123.157 171.121 136.985 162.059Z" fill="#2B45C9"/>
<path d="M145.15 152.438C149.773 136.273 122.77 114.7 84.8376 104.254C46.9048 93.808 12.4067 98.4443 7.78376 114.609C3.16083 130.775 30.1637 152.347 68.0965 162.793C106.029 173.239 140.527 168.603 145.15 152.438Z" fill="#F0F6F7"/>
<path opacity="0.1" d="M73.2262 128.708L73.7218 128.824C90.2796 132.652 104.595 131.883 105.697 127.105C106.798 122.327 94.268 115.35 77.7101 111.521L76.7195 111.297C60.585 107.725 46.8147 108.558 45.7354 113.24C44.645 117.971 56.9147 124.856 73.2262 128.708Z" fill="#2B45C9"/>
<path d="M118.601 60.3874L76.7346 102.652L59.1378 84.888C56.7887 82.5166 52.9801 82.5166 50.631 84.888C49.5029 86.0268 48.8691 87.5714 48.8691 89.1819C48.8691 90.7924 49.5029 92.337 50.631 93.4758L73.4626 116.524C75.2543 118.333 78.159 118.334 79.9517 116.526L127.104 68.9753C128.233 67.8369 128.867 66.2924 128.867 64.6818C128.868 63.0711 128.234 61.5263 127.106 60.3874C124.757 58.0165 120.95 58.0166 118.601 60.3874Z" fill="url(#paint0_linear)"/>
<defs>
<linearGradient id="paint0_linear" x1="128.867" y1="58.6093" x2="72.1636" y2="135.141" gradientUnits="userSpaceOnUse">
<stop stop-color="#45BE93"/>
<stop offset="1" stop-color="#00ECBC"/>
</linearGradient>
</defs>
</svg>
