<svg width="130" height="46" viewBox="0 0 130 46" fill="none" xmlns="http://www.w3.org/2000/svg">
<g clip-path="url(#clip0)">
<path d="M37.0067 33.0308C36.9988 31.6349 37.2417 30.249 37.7239 28.939C38.1879 27.6749 38.8986 26.5156 39.8146 25.5285C41.8038 23.4318 44.3786 22.3823 47.5393 22.3799C50.6999 22.3775 53.2006 23.3685 55.0415 25.3528C56.8179 27.2392 57.7061 29.6945 57.7061 32.7188C57.7061 35.7432 56.7928 38.2451 54.9662 40.2247C53.0321 42.3238 50.4727 43.3734 47.2882 43.3734C43.9961 43.3734 41.4177 42.3429 39.5528 40.2821C37.853 38.4029 37.0043 35.9858 37.0067 33.0308ZM41.7225 32.9161C41.7212 33.7239 41.8595 34.5258 42.1313 35.2865C42.3806 36.0137 42.7774 36.6815 43.2968 37.2482C43.8322 37.8325 44.4884 38.2933 45.2197 38.5986C45.9511 38.9039 46.7401 39.0464 47.5321 39.0162C48.2624 39.0491 48.9903 38.9098 49.6568 38.6095C50.3234 38.3093 50.91 37.8564 51.3693 37.2876C52.2778 36.1711 52.732 34.7199 52.732 32.934C52.732 31.1481 52.2646 29.6837 51.3298 28.5409C50.3329 27.3455 48.9666 26.7479 47.2308 26.7479C45.4951 26.7479 44.1145 27.385 43.0888 28.6593C42.1609 29.8807 41.6788 31.3828 41.7225 32.9161Z" fill="white"/>
<path d="M66.8612 40.5936C66.8389 41.4249 66.8905 42.2566 67.0154 43.0788H62.1382V22.7667H66.8612V24.4988C68.573 23.0859 70.3995 22.3794 72.3409 22.3794C74.4687 22.3794 76.1661 23.0966 77.4332 24.5311C78.7003 25.9656 79.3351 27.8674 79.3375 30.2367V37.9864C79.3375 40.1764 79.371 41.4913 79.4379 41.9312C79.4533 42.2341 79.5432 42.5285 79.6997 42.7883C79.8073 42.9174 79.9041 43.0358 79.9794 43.1469L79.94 43.2223C78.8928 43.1326 78.1254 43.086 77.6484 43.086H76.2856C75.8732 43.086 75.3138 43.1075 74.6145 43.1469V32.5462C74.6145 28.7472 73.4621 26.849 71.1574 26.8514C69.448 26.8514 68.0135 27.7324 66.854 29.4944L66.8612 40.5936Z" fill="white"/>
<path d="M98.9492 41.9917C97.4499 42.8705 95.7487 43.3461 94.0111 43.3724C92.5392 43.4014 91.0763 43.1369 89.7078 42.5942C88.5213 42.1015 87.4493 41.369 86.5592 40.4425C84.7734 38.573 83.8792 36.15 83.8768 33.1735C83.8768 30.0895 84.9132 27.523 86.986 25.4742C89.0587 23.4253 91.728 22.3889 94.9937 22.365C95.9855 22.3641 96.9731 22.4943 97.9307 22.7523V14.1206H102.686V34.8948C102.686 36.6198 102.765 37.7637 102.93 38.2801C103.037 38.6986 103.22 39.0938 103.471 39.4456C103.694 39.7178 103.952 39.959 104.239 40.1628L100.584 43.3903C99.9432 43.05 99.3848 42.5724 98.9492 41.9917ZM94.9256 38.9005C95.9568 38.9122 96.9783 38.7005 97.92 38.2801V27.5218C96.9821 27.1401 95.9776 26.9487 94.965 26.9588C94.0372 26.9376 93.1131 27.0821 92.236 27.3856C91.5126 27.6484 90.8483 28.0518 90.2816 28.5726C89.716 29.099 89.2704 29.7412 88.9752 30.4553C88.68 31.1694 88.5422 31.9387 88.571 32.7109C88.571 34.5637 89.0886 36.0412 90.1238 37.1433C91.2403 38.3172 92.8409 38.9029 94.9256 38.9005Z" fill="white"/>
<path d="M107.308 33.0877C107.295 31.6454 107.558 30.2139 108.083 28.8704C108.585 27.6033 109.332 26.448 110.281 25.4707C112.304 23.4098 114.947 22.3794 118.21 22.3794C120.972 22.3794 123.188 23.2927 124.859 25.1192C126.504 26.8836 127.326 29.0999 127.326 31.768C127.369 32.4755 127.29 33.1849 127.093 33.8659C125.798 34.2293 123.161 34.411 119.182 34.411H112.34C112.495 35.0794 112.784 35.7096 113.188 36.2641C113.592 36.8187 114.104 37.2861 114.692 37.6386C115.924 38.4108 117.524 38.7969 119.494 38.7969C121.326 38.846 123.143 38.4666 124.802 37.6888C125.113 37.544 125.406 37.3622 125.673 37.1473C125.648 37.6924 125.616 38.2482 125.576 38.8184L125.365 41.8523C124.38 42.5409 122.785 43.0047 120.581 43.2438C119.962 43.3209 119.339 43.3604 118.716 43.3621C115.424 43.3621 112.703 42.4058 110.554 40.4932C109.5 39.575 108.662 38.4347 108.101 37.1543C107.54 35.8739 107.269 34.4851 107.308 33.0877ZM122.155 30.6419C121.624 27.8567 120.109 26.4629 117.608 26.4605C116.698 26.4294 115.796 26.6509 115.004 27.1002C114.211 27.5496 113.559 28.2094 113.118 29.0066C112.801 29.541 112.56 30.1167 112.401 30.7173C112.709 30.7173 113.093 30.7424 113.545 30.7567H114.979C115.46 30.7567 115.919 30.7567 116.36 30.7567H117.468C118.132 30.7567 118.777 30.7567 119.412 30.7567L121.011 30.6922C121.438 30.6922 121.818 30.667 122.155 30.6419Z" fill="white"/>
<path fill-rule="evenodd" clip-rule="evenodd" d="M18.7632 29.807C19.0029 30.5539 19.2525 31.3548 19.3242 32.1066C19.608 35.2267 15.953 35.5839 13.5929 33.9366C9.01314 32.0169 7.88449 26.9804 6.71345 22.7774C4.81824 24.6041 3.41559 27.2479 2.89204 29.9766C1.31814 38.1886 8.20091 44.096 15.3772 44.9588C24.9414 46.1005 31.1049 37.8298 29.2178 28.9376C27.078 18.8516 14.702 17.1733 18.7632 29.8135" fill="url(#paint0_linear)"/>
<path fill-rule="evenodd" clip-rule="evenodd" d="M2.96863 34.9248C4.29625 40.4946 9.74375 44.2801 15.3772 44.9586C18.6392 45.3484 21.5048 44.6422 23.7914 43.1906C25.8449 41.1225 27.5427 38.694 27.7906 36.3225C28.2033 32.3837 25.4567 28.4595 21.9321 34.4404C20.3011 37.2049 18.0895 40.8012 12.6909 40.8257C8.59553 40.8453 4.20981 39.118 2.96863 34.9313" fill="url(#paint1_linear)"/>
<path fill-rule="evenodd" clip-rule="evenodd" d="M16.1013 34.8776C13.557 34.6118 10.6538 32.2778 12.0125 28.5429C13.6108 24.1474 17.8465 21.7678 20.443 18.0736C25.1566 11.3604 21.5847 -0.0695263 12.6991 0.450759C16.3998 1.41304 14.7884 4.874 12.3077 9.42119C10.4125 12.887 8.00675 17.2499 7.01511 21.2817C6.63346 22.8328 6.44916 24.3676 6.65792 25.9643C7.06567 29.0811 8.87933 31.6515 11.7629 33.5158C13.0618 34.3495 14.5592 34.8223 16.1013 34.8858V34.8776Z" fill="url(#paint2_linear)"/>
<path fill-rule="evenodd" clip-rule="evenodd" d="M16.1012 34.8774C13.5569 34.6116 10.6537 32.2777 12.0124 28.5427C13.6107 24.1472 17.8464 21.7676 20.4429 18.0734C23.5549 13.6453 23.0525 7.15719 19.7905 3.40918C20.9926 4.82325 21.5716 6.73803 21.6743 8.70826C21.7715 10.6222 21.4434 12.5338 20.7137 14.3058C18.2036 20.2165 11.5606 23.2762 9.44682 28.6585C9.1047 29.4698 8.97882 30.356 9.08148 31.2306C9.86584 32.1101 10.7682 32.8769 11.7628 33.5091C13.0617 34.3428 14.5591 34.8156 16.1012 34.8791V34.8774Z" fill="url(#paint3_linear)"/>
<path fill-rule="evenodd" clip-rule="evenodd" d="M13.3238 34.3035C14.2119 34.6403 15.1477 34.8346 16.0964 34.8792C15.1544 34.7875 14.2248 34.595 13.3238 34.3051V34.3035ZM12.6991 0.450684C16.3998 1.41297 14.7884 4.87392 12.3077 9.42111C10.4125 12.887 8.00675 17.2499 7.01511 21.2817C6.63346 22.8327 6.44916 24.3675 6.65792 25.9642C7.00206 28.5901 8.34273 30.8295 10.4826 32.5828C9.3409 31.384 8.39841 31.4159 9.22999 28.3014C10.6997 22.797 18.3097 15.919 19.1105 8.96117C19.5753 4.90491 17.018 0.785036 12.6991 0.450684Z" fill="url(#paint4_linear)"/>
<path fill-rule="evenodd" clip-rule="evenodd" d="M12.6991 0.450684C16.3998 1.41297 14.7884 4.87392 12.3077 9.42111C10.4125 12.887 8.00675 17.2499 7.01511 21.2817C6.63346 22.8327 6.44916 24.3675 6.65792 25.9642C7.06567 29.081 8.87933 31.6515 11.7629 33.5157C12.4877 33.9841 13.2797 34.3394 14.1115 34.5693C14.2322 34.6003 14.3562 34.6313 14.4801 34.6574C13.6637 34.4278 12.8863 34.077 12.1739 33.6168C9.29034 31.7477 7.47831 29.1756 7.06893 26.0588C6.86017 24.4621 7.04447 22.9273 7.42612 21.3762C8.41776 17.3493 10.8202 12.9816 12.7187 9.51571C14.2958 6.63049 17.6214 1.67882 12.6991 0.450684Z" fill="url(#paint5_linear)"/>
</g>
<defs>
<linearGradient id="paint0_linear" x1="20.4726" y1="20.8506" x2="13.832" y2="45.4487" gradientUnits="userSpaceOnUse">
<stop stop-color="#4481EB"/>
<stop offset="1" stop-color="#04BEFE"/>
</linearGradient>
<linearGradient id="paint1_linear" x1="9.83913" y1="38.571" x2="31.9256" y2="40.4238" gradientUnits="userSpaceOnUse">
<stop stop-color="#86D1FB"/>
<stop offset="1" stop-color="#86D1FB" stop-opacity="0"/>
</linearGradient>
<linearGradient id="paint2_linear" x1="17.1375" y1="0.433594" x2="0.00874381" y2="26.8953" gradientUnits="userSpaceOnUse">
<stop stop-color="#4481EB"/>
<stop offset="1" stop-color="#04BEFE"/>
</linearGradient>
<linearGradient id="paint3_linear" x1="12.7716" y1="19.9584" x2="24.8256" y2="20.197" gradientUnits="userSpaceOnUse">
<stop stop-color="#86D1FB"/>
<stop offset="1" stop-color="#86D1FB" stop-opacity="0"/>
</linearGradient>
<linearGradient id="paint4_linear" x1="14.9101" y1="0.450684" x2="-3.48642" y2="22.8958" gradientUnits="userSpaceOnUse">
<stop stop-color="#4481EB"/>
<stop offset="1" stop-color="#04BEFE"/>
</linearGradient>
<linearGradient id="paint5_linear" x1="8.97948" y1="18.4391" x2="16.7764" y2="18.5309" gradientUnits="userSpaceOnUse">
<stop stop-color="#86D1FB"/>
<stop offset="1" stop-color="#86D1FB" stop-opacity="0"/>
</linearGradient>
<clipPath id="clip0">
<rect width="130" height="45.5" fill="white"/>
</clipPath>
</defs>
</svg>
