<svg width="128" height="45" fill="none" xmlns="http://www.w3.org/2000/svg">
  <path d="M36.437 32.668c-.007-1.38.232-2.751.707-4.047a10.055 10.055 0 012.058-3.373c1.959-2.073 4.494-3.111 7.606-3.114 3.112-.002 5.574.978 7.387 2.94 1.749 1.866 2.623 4.294 2.623 7.286 0 2.99-.899 5.465-2.697 7.423-1.905 2.076-4.425 3.114-7.56 3.114-3.242 0-5.78-1.02-7.617-3.057-1.673-1.859-2.509-4.25-2.507-7.172zm4.644-.113a6.962 6.962 0 00.402 2.344c.246.72.636 1.38 1.148 1.94a5.377 5.377 0 004.17 1.749 4.573 4.573 0 003.778-1.71c.895-1.104 1.342-2.54 1.342-4.306s-.46-3.214-1.38-4.344c-.982-1.183-2.328-1.774-4.037-1.774s-3.068.63-4.078 1.89a6.667 6.667 0 00-1.345 4.21zM65.832 40.148a13.94 13.94 0 00.152 2.457h-4.802V22.517h4.65v1.713c1.686-1.398 3.484-2.096 5.396-2.096 2.095 0 3.766.709 5.014 2.128 1.248 1.418 1.873 3.3 1.875 5.642v7.665c0 2.166.033 3.466.099 3.901.015.3.103.591.258.848.105.128.2.245.275.355l-.039.074c-1.031-.088-1.787-.135-2.256-.135h-1.342c-.406 0-.957.022-1.645.06V32.19c0-3.758-1.135-5.635-3.404-5.633-1.684 0-3.096.872-4.238 2.614l.007 10.977zM97.427 41.53a9.878 9.878 0 01-4.862 1.366c-1.45.029-2.89-.233-4.237-.77a9.18 9.18 0 01-3.1-2.128c-1.759-1.849-2.64-4.245-2.642-7.189 0-3.05 1.02-5.588 3.062-7.615 2.04-2.026 4.669-3.051 7.884-3.075.977 0 1.95.128 2.892.383v-8.536h4.682V34.51c0 1.706.078 2.838.24 3.348.106.414.286.805.533 1.153.22.27.474.508.756.71l-3.598 3.191a4.866 4.866 0 01-1.61-1.383zm-3.962-3.057a7.01 7.01 0 002.948-.614V27.22a7.488 7.488 0 00-2.909-.556 7.648 7.648 0 00-2.687.422 5.737 5.737 0 00-1.924 1.174 5.32 5.32 0 00-1.685 4.093c0 1.832.51 3.293 1.53 4.383 1.099 1.161 2.675 1.74 4.727 1.738zM105.658 32.724a11.24 11.24 0 01.762-4.17 10.235 10.235 0 012.165-3.363c1.991-2.038 4.594-3.057 7.807-3.057 2.719 0 4.901.903 6.546 2.71 1.62 1.744 2.43 3.936 2.43 6.575.041.7-.036 1.401-.23 2.075-1.276.36-3.872.539-7.789.539h-6.737a5.038 5.038 0 002.316 3.192c1.212.764 2.788 1.146 4.728 1.146a11.535 11.535 0 005.226-1.096c.306-.144.594-.323.858-.536-.025.54-.057 1.089-.095 1.653l-.209 3c-.97.681-2.54 1.14-4.71 1.377-.609.076-1.222.115-1.836.117-3.242 0-5.921-.946-8.037-2.838a9.388 9.388 0 01-3.195-7.324zm14.618-2.419c-.523-2.754-2.015-4.133-4.477-4.135a4.842 4.842 0 00-2.564.632 4.869 4.869 0 00-1.857 1.886 6.654 6.654 0 00-.706 1.692c.303 0 .681.025 1.126.039h5.777l1.575-.064c.42 0 .794-.025 1.126-.05z" fill="#001E3C"/>
  <path fill-rule="evenodd" clip-rule="evenodd" d="M18.474 29.48c.237.738.482 1.53.553 2.273.28 3.086-3.32 3.44-5.643 1.81-4.51-1.898-5.62-6.88-6.774-11.036-1.866 1.806-3.247 4.421-3.762 7.12-1.55 8.122 5.227 13.964 12.293 14.817 9.417 1.13 15.485-7.05 13.627-15.845-2.107-9.975-14.292-11.635-10.294.866" fill="url(#paint0_linear)"/>
  <path fill-rule="evenodd" clip-rule="evenodd" d="M2.923 34.54c1.307 5.51 6.67 9.253 12.218 9.925 3.211.385 6.033-.314 8.284-1.75 2.022-2.045 3.694-4.446 3.938-6.792.406-3.895-2.298-7.776-5.768-1.861-1.606 2.734-3.784 6.29-9.1 6.315-4.032.02-8.35-1.689-9.572-5.83" fill="url(#paint1_linear)"/>
  <path fill-rule="evenodd" clip-rule="evenodd" d="M15.854 34.494c-2.506-.263-5.364-2.571-4.026-6.265 1.573-4.347 5.744-6.7 8.3-10.354C24.77 11.235 21.253-.07 12.505.445c3.644.952 2.057 4.375-.386 8.872-1.866 3.428-4.234 7.743-5.21 11.73-.377 1.535-.558 3.052-.352 4.632.401 3.082 2.187 5.625 5.026 7.468a8.534 8.534 0 004.272 1.355v-.008z" fill="url(#paint2_linear)"/>
  <path fill-rule="evenodd" clip-rule="evenodd" d="M15.854 34.494c-2.506-.263-5.364-2.571-4.026-6.265 1.573-4.347 5.744-6.7 8.3-10.354 3.064-4.38 2.57-10.797-.642-14.503 1.184 1.398 1.754 3.292 1.855 5.24a12.88 12.88 0 01-.946 5.537c-2.471 5.845-9.012 8.871-11.093 14.194a5.057 5.057 0 00-.36 2.544c.772.87 1.66 1.629 2.64 2.254a8.533 8.533 0 004.272 1.355v-.002z" fill="url(#paint3_linear)"/>
  <path fill-rule="evenodd" clip-rule="evenodd" d="M13.119 33.926a8.84 8.84 0 002.73.57 12.989 12.989 0 01-2.73-.568v-.002zM12.504.446c3.644.951 2.057 4.374-.386 8.871-1.866 3.428-4.234 7.743-5.21 11.73-.377 1.535-.558 3.052-.352 4.632.338 2.597 1.658 4.811 3.765 6.546-1.124-1.186-2.052-1.155-1.233-4.235 1.447-5.444 8.94-12.246 9.729-19.128.457-4.011-2.06-8.086-6.313-8.416z" fill="url(#paint4_linear)"/>
  <path fill-rule="evenodd" clip-rule="evenodd" d="M12.504.446c3.644.951 2.057 4.374-.386 8.871-1.866 3.428-4.234 7.743-5.21 11.73-.377 1.535-.558 3.052-.352 4.632.401 3.082 2.187 5.624 5.026 7.468a8.348 8.348 0 002.312 1.042c.12.03.241.062.363.087a8.336 8.336 0 01-2.27-1.029c-2.84-1.848-4.624-4.392-5.027-7.475-.205-1.579-.024-3.097.352-4.63.976-3.983 3.342-8.303 5.211-11.731 1.553-2.854 4.827-7.75-.02-8.965z" fill="url(#paint5_linear)"/>
  <defs>
    <linearGradient id="paint0_linear" x1="20.158" y1="20.621" x2="13.565" y2="44.934" gradientUnits="userSpaceOnUse">
      <stop stop-color="#4481EB"/>
      <stop offset="1" stop-color="#04BEFE"/>
    </linearGradient>
    <linearGradient id="paint1_linear" x1="9.688" y1="38.147" x2="31.436" y2="39.963" gradientUnits="userSpaceOnUse">
      <stop stop-color="#86D1FB"/>
      <stop offset="1" stop-color="#86D1FB" stop-opacity="0"/>
    </linearGradient>
    <linearGradient id="paint2_linear" x1="16.874" y1=".429" x2="-.097" y2="26.53" gradientUnits="userSpaceOnUse">
      <stop stop-color="#4481EB"/>
      <stop offset="1" stop-color="#04BEFE"/>
    </linearGradient>
    <linearGradient id="paint3_linear" x1="12.575" y1="19.739" x2="24.444" y2="19.973" gradientUnits="userSpaceOnUse">
      <stop stop-color="#86D1FB"/>
      <stop offset="1" stop-color="#86D1FB" stop-opacity="0"/>
    </linearGradient>
    <linearGradient id="paint4_linear" x1="14.681" y1=".446" x2="-3.529" y2="22.564" gradientUnits="userSpaceOnUse">
      <stop stop-color="#4481EB"/>
      <stop offset="1" stop-color="#04BEFE"/>
    </linearGradient>
    <linearGradient id="paint5_linear" x1="8.841" y1="18.236" x2="16.518" y2="18.326" gradientUnits="userSpaceOnUse">
      <stop stop-color="#86D1FB"/>
      <stop offset="1" stop-color="#86D1FB" stop-opacity="0"/>
    </linearGradient>
  </defs>
</svg>
