<svg width="250" height="215" viewBox="0 0 250 215" fill="none" xmlns="http://www.w3.org/2000/svg">
<path d="M210.714 42.0625C232.582 67.4632 243.684 103.462 234.769 131.554C225.685 159.478 196.415 179.664 164.79 194.971C132.998 210.447 98.8495 221.213 71.7667 210.784C44.5156 200.186 24.3296 168.561 16.0869 133.741C8.01255 99.0879 11.8815 61.2391 31.8993 36.1749C51.9171 11.2788 87.7472 -1.16923 122.063 0.176506C156.38 1.52224 188.845 16.4935 210.714 42.0625Z" fill="#0E2A4A" fill-opacity="0.8"/>
<path d="M66.2644 164.253H104.125C104.708 178.885 121.973 182.309 121.973 182.309H83.1854C83.1854 182.309 66.8527 178.873 66.2644 164.253Z" fill="#4E5683"/>
<path d="M70.1028 164.253H116.917C117.499 178.885 134.769 182.309 134.769 182.309H90.571C90.571 182.309 70.6911 178.873 70.1028 164.253Z" fill="url(#paint0_linear)"/>
<path d="M19.6836 167.311H167.417C169.712 167.311 174.273 165.447 174.157 163.152L166.002 55.9761C165.93 54.8642 165.442 53.8202 164.634 53.0525C163.827 52.2849 162.759 51.85 161.645 51.8347H15.4082C13.1132 51.8347 9.89211 54.3452 10.0028 56.646L15.315 163.152C15.3826 164.269 15.8708 165.319 16.6814 166.091C17.4919 166.862 18.5646 167.298 19.6836 167.311V167.311Z" fill="#4E5683"/>
<path d="M21.7223 166.664H170.382C170.921 166.67 171.455 166.565 171.951 166.355C172.447 166.145 172.894 165.836 173.265 165.446C173.636 165.055 173.923 164.593 174.107 164.087C174.292 163.581 174.37 163.043 174.337 162.505L169.025 55.9933C168.957 54.8763 168.469 53.8264 167.659 53.0548C166.848 52.2831 165.775 51.8471 164.656 51.8345H15.9965C15.458 51.8287 14.9242 51.9338 14.4282 52.1435C13.9322 52.3531 13.4847 52.6627 13.1136 53.0529C12.7425 53.4431 12.4558 53.9056 12.2713 54.4115C12.0869 54.9174 12.0086 55.4559 12.0415 55.9933L17.3537 162.505C17.4213 163.622 17.9095 164.672 18.7201 165.444C19.5306 166.215 20.6033 166.651 21.7223 166.664V166.664Z" fill="#4E5683"/>
<path d="M21.7223 166.664H170.382C170.921 166.67 171.455 166.565 171.951 166.355C172.447 166.145 172.894 165.836 173.265 165.446C173.636 165.055 173.923 164.593 174.107 164.087C174.292 163.581 174.37 163.043 174.337 162.505L173.464 144.955H16.48L17.3537 162.505C17.4214 163.622 17.9096 164.672 18.7201 165.444C19.5306 166.215 20.6033 166.651 21.7223 166.664V166.664Z" fill="url(#paint1_linear)"/>
<path d="M167.755 139.923L163.631 57.2922H17.5632L21.6872 139.923H167.755Z" fill="white"/>
<path d="M137.257 81.0691H53.5955C52.5082 81.0691 51.6267 81.9505 51.6267 83.0379V92.4857C51.6267 93.573 52.5082 94.4544 53.5955 94.4544H137.257C138.344 94.4544 139.226 93.573 139.226 92.4857V83.0379C139.226 81.9505 138.344 81.0691 137.257 81.0691Z" fill="#4E5683" stroke="#4E5683" stroke-miterlimit="10"/>
<path opacity="0.3" d="M156.251 103.92C155.835 104.186 155.384 104.394 154.911 104.537C150.525 105.912 143.774 102.073 139.295 95.3396C134.816 88.6062 133.896 80.8883 136.86 77.3818C137.174 77.0013 137.538 76.666 137.944 76.3858C142.173 73.5724 149.937 77.5041 154.9 84.9657C159.863 92.4272 160.48 101.112 156.251 103.92Z" fill="white"/>
<path d="M166.439 113.641C165.46 112.226 164.726 112.476 164.156 112.313C163.585 112.15 162.437 112.995 162.216 113.845C161.995 114.695 161.814 114.713 161.919 115.354C162.024 115.994 163.765 115.936 164.581 115.889C165.701 115.965 166.814 116.119 167.912 116.35L170.312 113.664L166.439 113.641Z" fill="#FEC4AD"/>
<path d="M167.493 113.245C166.788 111.981 166.206 112.482 165.332 112.814C164.607 113.119 163.906 113.48 163.235 113.892C163.235 113.892 163.037 114.678 163.625 114.876C164.214 115.074 165.845 114.363 166.159 115.383C166.474 116.402 170.312 113.664 170.312 113.664L167.493 113.245Z" fill="#FEC4AD"/>
<path d="M192.912 96.1669C190.344 95.864 188.678 97.3318 187.303 103.867C186.625 107.024 185.475 110.06 183.89 112.872L168.105 113.14L167.091 116.297C167.091 116.297 182.783 119.291 186.126 118.843C190.745 118.219 193.151 110.321 195.446 104.17C197.03 99.8132 196.413 96.5804 192.912 96.1669Z" fill="#D2E4FF"/>
<path d="M174.995 89.4975C175.429 90.7202 175.946 91.9114 176.545 93.0622C177.098 93.9185 176.725 95.6193 176.51 96.3765C176.294 97.1337 177.96 96.959 177.96 96.959C178.812 97.6867 179.569 98.5183 180.214 99.4345C180.756 100.174 182.171 99.2307 183.127 98.9161C184.082 98.6016 184.496 97.4425 185.637 95.8406C186.779 94.2388 187.082 91.5886 187.082 91.5886L185.62 86.1307L179.265 85.6182L174.995 89.4975Z" fill="#FEC4AD"/>
<path d="M175.386 90.4584C173.516 90.8487 170.435 87.0975 174.885 85.6472C176.912 84.989 181.158 81.8552 183.243 82.7814C185.329 83.7075 185.573 85.321 185.573 85.321C185.573 85.321 186.767 84.9132 187.961 87.3305C189.155 89.7478 187.554 94.8212 187.787 96.1958L184.874 93.8659C184.874 93.8659 186.243 92.1709 185.602 90.7205C184.962 89.2702 182.69 89.2818 182.847 90.7963C183.005 92.3107 182.154 92.6078 182.154 92.6078C182.154 92.6078 180.844 91.3613 181.111 90.3885C181.612 88.577 178.578 86.8179 177.931 87.9712C177.285 89.1246 177.04 90.1148 175.386 90.4584Z" fill="#471A16"/>
<path d="M190.67 95.1708C190.488 95.1923 190.304 95.1923 190.122 95.1708C189.377 94.9844 184.705 93.4641 184.705 93.4641L183.826 98.7064C183.826 98.7064 190.14 103.296 192.382 104.421C191.695 101.38 191.078 98.2929 190.67 95.1708Z" fill="#FEC4AD"/>
<path d="M189.639 94.4717L187.332 103.046L189.406 104.426L191.864 94.8678L189.639 94.4717Z" fill="#D2E4FF"/>
<path d="M191.864 94.868C191.864 94.868 193.378 94.833 195.434 94.8039C198.842 94.7456 205.523 97.4949 209.385 100.46C215.577 105.207 222.089 117.835 222.089 117.835C220.191 119.493 218.003 120.787 215.635 121.65C213.033 122.564 210.337 123.184 207.597 123.497C207.597 123.497 201.265 113.798 196.262 112.692C193.152 111.953 190.333 110.304 188.165 107.956L191.864 94.868Z" fill="#D2E4FF"/>
<path d="M222.089 117.835C223.836 122.425 223.481 128.232 222.089 132.397C220.163 138.049 218.631 143.827 217.505 149.691C216.788 153.716 220.86 165.167 225.292 174.656L220.475 177.277C220.475 177.277 207.445 157.781 207.445 152.021C207.445 146.26 207.597 123.479 207.597 123.479L222.089 117.835Z" fill="#0F2E40"/>
<path d="M225.292 174.638L227.913 179.601L221.792 183.142H219.124L222.392 178.96L221.133 176.601L225.292 174.638Z" fill="#0F2E40"/>
<path d="M221.652 118.493C223.399 123.089 222.817 128.826 221.652 133.055C220.487 137.284 209.513 149.493 208.89 152.859C207.602 159.773 202.517 176.38 202.517 176.38H197.013C197.013 176.38 199.955 157.787 199.955 152.021C199.955 146.254 207.171 124.161 207.171 124.161L221.652 118.493Z" fill="#133A50"/>
<path d="M202.512 176.374L201.859 182.653L193.542 182.781L197.165 180.049L198.318 176.374H202.512Z" fill="#133A50"/>
<path d="M160.503 109.692L158.517 111.34L153.583 105.341L155.57 103.692L160.503 109.692Z" fill="#133A50"/>
<path d="M172.322 124.155L170.417 125.745C170.243 125.888 170.019 125.957 169.794 125.937C169.57 125.916 169.362 125.807 169.217 125.634L157.259 111.072C157.125 110.901 157.061 110.685 157.082 110.468C157.103 110.251 157.205 110.051 157.369 109.907L159.274 108.317C159.36 108.246 159.459 108.192 159.566 108.158C159.673 108.125 159.786 108.113 159.897 108.123C160.009 108.134 160.117 108.166 160.216 108.218C160.315 108.27 160.403 108.342 160.474 108.428L172.432 122.99C172.568 123.161 172.632 123.378 172.611 123.595C172.591 123.812 172.487 124.013 172.322 124.155V124.155Z" fill="#FF3A46"/>
<path d="M156.012 84.2261C150.304 75.5996 141.305 71.4757 135.969 75.023C130.634 78.5703 130.96 88.42 136.697 97.0639C142.435 105.708 151.405 109.814 156.74 106.273C162.076 102.731 161.75 92.8585 156.012 84.2261ZM156.251 103.92C155.835 104.186 155.384 104.394 154.911 104.537C150.525 105.912 143.775 102.073 139.295 95.3398C134.816 88.6064 133.896 80.8885 136.861 77.382C137.174 77.0015 137.538 76.6663 137.944 76.386C142.173 73.5726 149.937 77.5044 154.9 84.9659C159.863 92.4274 160.48 101.112 156.251 103.92V103.92Z" fill="#FF3A46"/>
<path d="M154.9 84.9657C149.937 77.5041 142.149 73.5724 137.944 76.3858C137.538 76.666 137.174 77.0013 136.861 77.3818C141.247 76.0014 147.998 79.8399 152.477 86.5791C156.956 93.3184 157.882 101.025 154.912 104.537C155.384 104.394 155.835 104.186 156.251 103.92C160.48 101.112 159.857 92.433 154.9 84.9657Z" fill="#133A50"/>
<path d="M136.697 97.0639C130.96 88.4374 130.634 78.5644 135.969 75.0229L133.302 76.7704C127.966 80.3177 128.292 90.1674 134.03 98.8172C139.767 107.467 148.737 111.568 154.073 108.02L156.74 106.273C151.405 109.814 142.435 105.696 136.697 97.0639Z" fill="#133A50"/>
<path d="M170.522 117.887C170.522 117.887 166.229 117.066 165.28 117.305C164.33 117.544 161.668 119.204 161.668 119.204L162.064 119.437L163.008 119.379L162.297 119.891L162.88 120.369L163.561 120.171L164.464 120.136L163.27 120.66L163.853 121.004L165.181 120.846L164.318 121.26L164.668 121.709L167.778 120.567L169.759 119.751L172.089 120.206L170.522 117.887Z" fill="#FEC4AD"/>
<path d="M192.481 96.8251C190.029 96.0096 188.235 97.9027 188.328 104.566C188.374 108.136 188.124 111.703 187.583 115.231L170.551 117.887L170.172 121.184C170.172 121.184 187.181 121.272 190.559 121.656C193.937 122.041 194.671 111.649 195.219 107.036C195.766 102.423 195.831 97.9376 192.481 96.8251Z" fill="#D2E4FF"/>
<path d="M85.6609 101.724H55.9487V103.681H85.6609V101.724Z" fill="#C9CDD8"/>
<path d="M53.5837 101.724H51.6033V103.681H53.5837V101.724Z" fill="#317EF6"/>
<path d="M53.5837 105.871H51.6033V107.828H53.5837V105.871Z" fill="#317EF6"/>
<path d="M53.5837 110.024H51.6033V111.981H53.5837V110.024Z" fill="#317EF6"/>
<path d="M81.0885 105.871H55.9487V107.828H81.0885V105.871Z" fill="#C9CDD8"/>
<path d="M92.8429 110.024H55.9487V111.981H92.8429V110.024Z" fill="#C9CDD8"/>
<path d="M89.5752 114.177H55.9487V116.134H89.5752V114.177Z" fill="#C9CDD8"/>
<path d="M84.1756 122.955H70.0039V123.934H84.1756V122.955Z" fill="#317EF6"/>
<path d="M121.827 121.976H112.356V123.933H121.827V121.976Z" fill="#317EF6"/>
<path d="M150.229 121.976H126.72V123.933H150.229V121.976Z" fill="#317EF6"/>
<defs>
<linearGradient id="paint0_linear" x1="102.436" y1="164.241" x2="102.436" y2="182.315" gradientUnits="userSpaceOnUse">
<stop stop-color="#EEF4FB"/>
<stop offset="0.31" stop-color="#E3EDF8"/>
<stop offset="1" stop-color="#CFE1F3"/>
</linearGradient>
<linearGradient id="paint1_linear" x1="38497.5" y1="3615.6" x2="38497.5" y2="4424.7" gradientUnits="userSpaceOnUse">
<stop stop-color="#EEF4FB"/>
<stop offset="0.31" stop-color="#E3EDF8"/>
<stop offset="1" stop-color="#CFE1F3"/>
</linearGradient>
</defs>
</svg>
