<svg width="71" height="71" viewBox="0 0 71 71" fill="none" xmlns="http://www.w3.org/2000/svg">
<circle cx="35.8725" cy="35.8956" r="25.6239" stroke="#808A9F" stroke-width="4.65971"/>
<path fill-rule="evenodd" clip-rule="evenodd" d="M39.3664 21.9188C39.3664 22.8455 38.9983 23.7343 38.343 24.3896C37.6877 25.0448 36.7989 25.413 35.8722 25.413C34.9455 25.413 34.0567 25.0448 33.4014 24.3896C32.7461 23.7343 32.378 22.8455 32.378 21.9188C32.378 20.9921 32.7461 20.1033 33.4014 19.448C34.0567 18.7927 34.9455 18.4246 35.8722 18.4246C36.7989 18.4246 37.6877 18.7927 38.343 19.448C38.9983 20.1033 39.3664 20.9921 39.3664 21.9188ZM32.378 32.4014C31.4513 32.4014 30.5625 32.7696 29.9072 33.4248C29.2519 34.0801 28.8838 34.9689 28.8838 35.8956C28.8838 36.8224 29.2519 37.7111 29.9072 38.3664C30.5625 39.0217 31.4513 39.3898 32.378 39.3898V49.8725C32.378 50.7992 32.7461 51.688 33.4014 52.3433C34.0567 52.9986 34.9455 53.3667 35.8722 53.3667H39.3664C40.2932 53.3667 41.1819 52.9986 41.8372 52.3433C42.4925 51.688 42.8606 50.7992 42.8606 49.8725C42.8606 48.9458 42.4925 48.057 41.8372 47.4017C41.1819 46.7464 40.2932 46.3783 39.3664 46.3783V35.8956C39.3664 34.9689 38.9983 34.0801 38.343 33.4248C37.6877 32.7696 36.7989 32.4014 35.8722 32.4014H32.378Z" fill="#808A9F"/>
</svg>
