<svg width="25" height="25" viewBox="0 0 25 25" fill="none" xmlns="http://www.w3.org/2000/svg">
<path d="M3.49628 17.4633V20.5038C3.49628 20.7838 3.71631 21.0039 3.99636 21.0039H7.03685C7.16687 21.0039 7.2969 20.9539 7.38691 20.8539L18.3087 9.94208L14.5581 6.19147L3.6463 17.1032C3.54629 17.2033 3.49628 17.3233 3.49628 17.4633ZM21.2092 7.04161C21.3019 6.94908 21.3754 6.83917 21.4256 6.71818C21.4758 6.59719 21.5016 6.46748 21.5016 6.33649C21.5016 6.2055 21.4758 6.0758 21.4256 5.95481C21.3754 5.83381 21.3019 5.72391 21.2092 5.63138L18.8688 3.291C18.7762 3.19828 18.6663 3.12472 18.5454 3.07453C18.4244 3.02434 18.2947 2.9985 18.1637 2.9985C18.0327 2.9985 17.903 3.02434 17.782 3.07453C17.661 3.12472 17.5511 3.19828 17.4585 3.291L15.6283 5.12129L19.3789 8.8719L21.2092 7.04161Z" fill="black"/>
</svg>
