<svg width="25" height="25" viewBox="0 0 25 25" fill="none" xmlns="http://www.w3.org/2000/svg">
<path d="M6.65898 20.8024H3.70165V17.8346L14.6745 6.86171L17.6421 9.82932L6.65898 20.8024ZM21.1985 6.27337L21.198 6.27388L19.7616 7.71031L16.7937 4.74246L18.2302 3.30603L18.2307 3.30553C18.2633 3.27284 18.3021 3.24691 18.3447 3.22921C18.3874 3.21152 18.4331 3.20241 18.4793 3.20241C18.5254 3.20241 18.5712 3.21152 18.6138 3.22921C18.6565 3.24691 18.6952 3.27284 18.7279 3.30553L18.7284 3.30603L21.198 5.7757L21.1985 5.77621C21.2312 5.80883 21.2571 5.84757 21.2748 5.89023C21.2925 5.93288 21.3016 5.97861 21.3016 6.02479C21.3016 6.07097 21.2925 6.1167 21.2748 6.15935C21.2571 6.20201 21.2312 6.24076 21.1985 6.27337Z" stroke="black" stroke-width="1.4"/>
</svg>
