<svg width="25" height="25" viewBox="0 0 25 25" fill="none" xmlns="http://www.w3.org/2000/svg">
<mask id="path-1-inside-1" fill="white">
<path fill-rule="evenodd" clip-rule="evenodd" d="M12.2203 2.22226C12.2685 2.60122 12.3266 2.96472 12.3935 3.31406C12.4869 3.80158 12.5974 4.26152 12.7218 4.69736C13.4057 7.09252 14.5117 8.7601 15.5205 10.2812C16.7506 12.136 17.8362 13.7731 17.8362 16.2458C17.8362 19.4255 15.165 22.0039 12.0021 22.0039C8.83809 22.0039 6.16689 19.4265 6.16689 16.2458C6.16689 13.7731 7.25276 12.1361 8.48309 10.2813C9.4921 8.76015 10.5983 7.09254 11.2823 4.69734C11.4067 4.2616 11.5172 3.80179 11.6106 3.31439C11.6775 2.96514 11.7356 2.60172 11.7838 2.22285L11.7839 2.22226L11.7906 2.16888C11.8177 1.94489 12.1854 1.94489 12.2136 2.16888L12.2201 2.22082L12.2203 2.22226ZM9.79205 10.8206C10.5325 9.70194 11.3433 8.44334 12.002 6.8484C12.6606 8.44328 13.4712 9.70185 14.2115 10.8205L14.2939 10.9449C15.5754 12.8806 16.4472 14.1974 16.4472 16.2458C16.4472 18.6322 14.4243 20.6149 12.0021 20.6149C9.57852 20.6149 7.5559 18.6329 7.5559 16.2458C7.5559 14.1975 8.42786 12.8807 9.70965 10.9451L9.79205 10.8206ZM11.1574 10.9547C11.2159 10.7474 11.2726 10.5467 11.3254 10.3506C11.3515 10.2537 11.3306 10.1474 11.2692 10.0641C11.1379 9.88696 10.8493 9.87863 10.742 10.0578C10.5076 10.4485 10.219 10.8413 9.91169 11.2559C8.93447 12.58 7.82807 14.0823 7.82807 16.3816C7.82738 16.5405 7.85799 16.6979 7.91814 16.8449C7.9783 16.9919 8.06681 17.1256 8.17865 17.2384C8.29048 17.3512 8.42344 17.4409 8.56992 17.5023C8.71641 17.5637 8.87356 17.5957 9.0324 17.5964C9.61373 17.5964 10.2367 17.2224 10.2367 16.168C10.2367 14.2238 10.7104 12.5418 11.128 11.0587L11.1285 11.0569C11.1382 11.0227 11.1478 10.9886 11.1574 10.9547Z"/>
</mask>
<path fill-rule="evenodd" clip-rule="evenodd" d="M12.2203 2.22226C12.2685 2.60122 12.3266 2.96472 12.3935 3.31406C12.4869 3.80158 12.5974 4.26152 12.7218 4.69736C13.4057 7.09252 14.5117 8.7601 15.5205 10.2812C16.7506 12.136 17.8362 13.7731 17.8362 16.2458C17.8362 19.4255 15.165 22.0039 12.0021 22.0039C8.83809 22.0039 6.16689 19.4265 6.16689 16.2458C6.16689 13.7731 7.25276 12.1361 8.48309 10.2813C9.4921 8.76015 10.5983 7.09254 11.2823 4.69734C11.4067 4.2616 11.5172 3.80179 11.6106 3.31439C11.6775 2.96514 11.7356 2.60172 11.7838 2.22285L11.7839 2.22226L11.7906 2.16888C11.8177 1.94489 12.1854 1.94489 12.2136 2.16888L12.2201 2.22082L12.2203 2.22226ZM9.79205 10.8206C10.5325 9.70194 11.3433 8.44334 12.002 6.8484C12.6606 8.44328 13.4712 9.70185 14.2115 10.8205L14.2939 10.9449C15.5754 12.8806 16.4472 14.1974 16.4472 16.2458C16.4472 18.6322 14.4243 20.6149 12.0021 20.6149C9.57852 20.6149 7.5559 18.6329 7.5559 16.2458C7.5559 14.1975 8.42786 12.8807 9.70965 10.9451L9.79205 10.8206ZM11.1574 10.9547C11.2159 10.7474 11.2726 10.5467 11.3254 10.3506C11.3515 10.2537 11.3306 10.1474 11.2692 10.0641C11.1379 9.88696 10.8493 9.87863 10.742 10.0578C10.5076 10.4485 10.219 10.8413 9.91169 11.2559C8.93447 12.58 7.82807 14.0823 7.82807 16.3816C7.82738 16.5405 7.85799 16.6979 7.91814 16.8449C7.9783 16.9919 8.06681 17.1256 8.17865 17.2384C8.29048 17.3512 8.42344 17.4409 8.56992 17.5023C8.71641 17.5637 8.87356 17.5957 9.0324 17.5964C9.61373 17.5964 10.2367 17.2224 10.2367 16.168C10.2367 14.2238 10.7104 12.5418 11.128 11.0587L11.1285 11.0569C11.1382 11.0227 11.1478 10.9886 11.1574 10.9547Z" fill="black"/>
<path d="M12.3935 3.31406L11.9672 3.39571L12.3935 3.31406ZM12.2203 2.22226L11.7897 2.27693L11.7897 2.27703L12.2203 2.22226ZM12.7218 4.69736L12.3044 4.81654L12.7218 4.69736ZM15.5205 10.2812L15.8822 10.0413V10.0413L15.5205 10.2812ZM8.48309 10.2813L8.84481 10.5212L8.48309 10.2813ZM11.2823 4.69734L10.8649 4.57814V4.57814L11.2823 4.69734ZM11.6106 3.31439L12.0369 3.39606V3.39606L11.6106 3.31439ZM11.7838 2.22285L12.2144 2.27763L12.2144 2.27733L11.7838 2.22285ZM11.7839 2.22226L12.2145 2.27675L12.2146 2.27641L11.7839 2.22226ZM11.7906 2.16888L12.2213 2.22302L12.2215 2.22099L11.7906 2.16888ZM12.2136 2.16888L11.7829 2.22296L11.7829 2.223L12.2136 2.16888ZM12.2201 2.22082L11.7894 2.27494L11.7895 2.27549L12.2201 2.22082ZM12.002 6.8484L12.4032 6.68273L12.002 5.71125L11.6008 6.6827L12.002 6.8484ZM9.79205 10.8206L10.154 11.0602L10.154 11.0602L9.79205 10.8206ZM14.2115 10.8205L13.8495 11.06L13.8496 11.0601L14.2115 10.8205ZM14.2939 10.9449L13.9319 11.1845L13.9319 11.1845L14.2939 10.9449ZM9.70965 10.9451L10.0716 11.1847L10.0716 11.1847L9.70965 10.9451ZM11.3254 10.3506L11.7446 10.4635L11.7446 10.4633L11.3254 10.3506ZM11.1574 10.9547L11.5751 11.0726L11.5751 11.0726L11.1574 10.9547ZM11.2692 10.0641L11.6185 9.80643L11.6179 9.8056L11.2692 10.0641ZM10.742 10.0578L11.1142 10.2811L11.1144 10.2808L10.742 10.0578ZM9.91169 11.2559L9.56297 10.9974L9.56244 10.9982L9.91169 11.2559ZM7.82807 16.3816L8.26213 16.3835V16.3816H7.82807ZM8.56992 17.5023L8.40209 17.9026H8.40209L8.56992 17.5023ZM9.0324 17.5964L9.03054 18.0304H9.0324V17.5964ZM11.128 11.0587L11.5458 11.1764L11.5459 11.1763L11.128 11.0587ZM11.1285 11.0569L10.7108 10.9391L10.7107 10.9393L11.1285 11.0569ZM12.8198 3.2324C12.7546 2.8921 12.6979 2.53757 12.6509 2.1675L11.7897 2.27703C11.839 2.66487 11.8986 3.03734 11.9672 3.39571L12.8198 3.2324ZM13.1392 4.57818C13.0183 4.1547 12.9108 3.70729 12.8198 3.2324L11.9672 3.39571C12.063 3.89588 12.1765 4.36834 12.3044 4.81654L13.1392 4.57818ZM15.8822 10.0413C14.874 8.521 13.8029 6.90254 13.1392 4.57818L12.3044 4.81654C13.0086 7.28249 14.1494 8.9992 15.1587 10.5211L15.8822 10.0413ZM18.2703 16.2458C18.2703 13.627 17.1078 11.8893 15.8822 10.0413L15.1587 10.5211C16.3933 12.3827 17.4022 13.9191 17.4022 16.2458H18.2703ZM12.0021 22.438C15.3965 22.438 18.2703 19.6733 18.2703 16.2458H17.4022C17.4022 19.1776 14.9335 21.5699 12.0021 21.5699V22.438ZM5.73282 16.2458C5.73282 19.6745 8.60671 22.438 12.0021 22.438V21.5699C9.06948 21.5699 6.60095 19.1785 6.60095 16.2458H5.73282ZM8.12137 10.0413C6.89557 11.8893 5.73282 13.627 5.73282 16.2458H6.60095C6.60095 13.9192 7.60996 12.3828 8.84481 10.5212L8.12137 10.0413ZM10.8649 4.57814C10.2011 6.90254 9.12985 8.52101 8.12137 10.0413L8.84481 10.5212C9.85435 8.99928 10.9954 7.28255 11.6997 4.81654L10.8649 4.57814ZM11.1843 3.23272C11.0933 3.70748 10.9858 4.15477 10.8649 4.57814L11.6997 4.81654C11.8276 4.36844 11.9411 3.8961 12.0369 3.39606L11.1843 3.23272ZM11.3532 2.16807C11.3061 2.53805 11.2494 2.8925 11.1843 3.23273L12.0369 3.39606C12.1055 3.03777 12.1651 2.66538 12.2144 2.27763L11.3532 2.16807ZM11.3532 2.16778L11.3532 2.16836L12.2144 2.27733L12.2145 2.27675L11.3532 2.16778ZM11.3599 2.11473L11.3532 2.16812L12.2146 2.27641L12.2213 2.22302L11.3599 2.11473ZM12.6442 2.11479C12.594 1.71456 12.2392 1.56682 12.0017 1.56682C11.7642 1.56682 11.4082 1.71498 11.3597 2.11677L12.2215 2.22099C12.2129 2.29222 12.1719 2.35604 12.1185 2.39464C12.0727 2.4277 12.0298 2.43495 12.0017 2.43495C11.9735 2.43495 11.931 2.42769 11.8857 2.39505C11.8328 2.35697 11.7918 2.29386 11.7829 2.22296L12.6442 2.11479ZM12.6508 2.16669L12.6442 2.11475L11.7829 2.223L11.7894 2.27494L12.6508 2.16669ZM12.6509 2.16759L12.6507 2.16615L11.7895 2.27549L11.7897 2.27693L12.6509 2.16759ZM11.6008 6.6827C10.9592 8.23622 10.1686 9.46528 9.43008 10.581L10.154 11.0602C10.8964 9.93859 11.7274 8.65045 12.4032 7.0141L11.6008 6.6827ZM14.5735 10.581C13.8352 9.46522 13.0447 8.23619 12.4032 6.68273L11.6008 7.01408C12.2765 8.65037 13.1073 9.93847 13.8495 11.06L14.5735 10.581ZM14.6558 10.7053L14.5735 10.5809L13.8496 11.0601L13.9319 11.1845L14.6558 10.7053ZM16.8813 16.2458C16.8813 14.0487 15.9287 12.628 14.6558 10.7053L13.9319 11.1845C15.2221 13.1332 16.0131 14.3461 16.0131 16.2458H16.8813ZM12.0021 21.049C14.6565 21.049 16.8813 18.8793 16.8813 16.2458H16.0131C16.0131 18.3851 14.192 20.1809 12.0021 20.1809V21.049ZM7.12183 16.2458C7.12183 18.8801 9.34634 21.049 12.0021 21.049V20.1809C9.8107 20.1809 7.98996 18.3857 7.98996 16.2458H7.12183ZM9.34774 10.7054C8.07456 12.6281 7.12183 14.0487 7.12183 16.2458H7.98996C7.98996 14.3463 8.78116 13.1334 10.0716 11.1847L9.34774 10.7054ZM9.43012 10.581L9.34772 10.7054L10.0716 11.1847L10.154 11.0602L9.43012 10.581ZM10.9063 10.2377C10.8543 10.4308 10.7983 10.6289 10.7397 10.8367L11.5751 11.0726C11.6335 10.8658 11.6909 10.6625 11.7446 10.4635L10.9063 10.2377ZM10.9198 10.3217C10.9057 10.3025 10.8968 10.2732 10.9062 10.2379L11.7446 10.4633C11.8062 10.2342 11.7556 9.99229 11.6185 9.80643L10.9198 10.3217ZM11.1144 10.2808C11.0715 10.3526 11.0065 10.3616 10.9889 10.3613C10.9718 10.361 10.944 10.3543 10.9204 10.3225L11.6179 9.8056C11.4631 9.59672 11.2253 9.49729 11.0044 9.49334C10.7828 9.48937 10.5199 9.58388 10.3696 9.83481L11.1144 10.2808ZM10.2604 11.5144C10.5659 11.1022 10.8672 10.6929 11.1142 10.2811L10.3698 9.83449C10.148 10.2041 9.87214 10.5803 9.56297 10.9974L10.2604 11.5144ZM8.26213 16.3816C8.26213 14.2387 9.28229 12.8397 10.2609 11.5137L9.56244 10.9982C8.58665 12.3204 7.394 13.926 7.394 16.3816H8.26213ZM8.31988 16.6805C8.28131 16.5863 8.26169 16.4853 8.26213 16.3835L7.39401 16.3797C7.39307 16.5956 7.43467 16.8095 7.5164 17.0093L8.31988 16.6805ZM8.4869 16.9328C8.4152 16.8605 8.35845 16.7748 8.31988 16.6805L7.5164 17.0093C7.59814 17.209 7.71843 17.3908 7.8704 17.544L8.4869 16.9328ZM8.73776 17.102C8.64384 17.0626 8.5586 17.0051 8.4869 16.9328L7.8704 17.544C8.02236 17.6973 8.20303 17.8192 8.40209 17.9026L8.73776 17.102ZM9.03427 17.1623C8.93243 17.1619 8.83168 17.1414 8.73776 17.102L8.40209 17.9026C8.60115 17.9861 8.81469 18.0295 9.03054 18.0304L9.03427 17.1623ZM9.80267 16.168C9.80267 16.6077 9.67511 16.8429 9.54776 16.9685C9.41625 17.0982 9.23309 17.1623 9.0324 17.1623V18.0304C9.41305 18.0304 9.83205 17.9075 10.1574 17.5866C10.4869 17.2616 10.6708 16.7827 10.6708 16.168H9.80267ZM10.7102 10.9411C10.2936 12.4205 9.80267 14.1562 9.80267 16.168H10.6708C10.6708 14.2913 11.1272 12.6631 11.5458 11.1764L10.7102 10.9411ZM10.7107 10.9393L10.7102 10.9411L11.5459 11.1763L11.5464 11.1745L10.7107 10.9393ZM10.7397 10.8367C10.7301 10.8706 10.7204 10.9047 10.7108 10.9391L11.5463 11.1747C11.5559 11.1406 11.5655 11.1065 11.5751 11.0726L10.7397 10.8367Z" fill="black" mask="url(#path-1-inside-1)"/>
</svg>
