<svg width="25" height="25" viewBox="0 0 25 25" fill="none" xmlns="http://www.w3.org/2000/svg">
<path d="M12.2126 2.16859C12.1845 1.94464 11.8168 1.94464 11.7897 2.16859C10.8699 9.57162 6.16684 11.0976 6.16684 16.2434C6.16684 19.4236 8.83764 22.0006 12.0011 22.0006C15.1636 22.0006 17.8344 19.4225 17.8344 16.2434C17.8344 11.0976 13.1324 9.57162 12.2126 2.16859V2.16859ZM11.3241 10.3529C11.2626 10.581 11.1959 10.8154 11.1272 11.0591C10.7095 12.5424 10.2355 14.2247 10.2355 16.1695C10.2355 17.2236 9.61263 17.5976 9.03139 17.5976C8.87257 17.5969 8.71544 17.5649 8.56898 17.5035C8.42251 17.4421 8.28958 17.3524 8.17776 17.2397C8.06595 17.1269 7.97744 16.9932 7.9173 16.8462C7.85715 16.6992 7.82655 16.5418 7.82723 16.383C7.82723 14.0841 8.93347 12.582 9.91054 11.2581C10.2178 10.8435 10.5064 10.4508 10.7407 10.0602C10.848 9.88099 11.1366 9.88932 11.2678 10.0664C11.3293 10.1497 11.3501 10.256 11.3241 10.3529V10.3529Z" fill="black"/>
</svg>
