<svg width="49" height="49" viewBox="0 0 49 49" fill="none" xmlns="http://www.w3.org/2000/svg">
<path fill-rule="evenodd" clip-rule="evenodd" d="M24.002 48.0039C37.2579 48.0039 48.0039 37.2579 48.0039 24.002C48.0039 10.746 37.2579 0 24.002 0C10.746 0 0 10.746 0 24.002C0 37.2579 10.746 48.0039 24.002 48.0039ZM23.8035 14.7481C23.829 14.5373 24.1751 14.5373 24.2016 14.7481C24.6513 18.368 26.0619 20.495 27.3136 22.3823C28.4712 24.1278 29.4928 25.6683 29.4928 27.9954C29.4928 30.9876 26.9791 33.4141 24.0025 33.4141C21.025 33.4141 18.5113 30.9886 18.5113 27.9954C18.5113 25.6684 19.5331 24.1278 20.691 22.3824C21.9429 20.495 23.3538 18.368 23.8035 14.7481ZM23.2072 23.0195C23.2623 22.8245 23.3156 22.6357 23.3653 22.4512C23.3898 22.36 23.3702 22.26 23.3123 22.1816C23.1888 22.0149 22.9172 22.007 22.8162 22.1757C22.5957 22.5433 22.3241 22.9129 22.0349 23.3031C21.1152 24.5492 20.074 25.963 20.074 28.1268C20.0734 28.2762 20.1022 28.4244 20.1588 28.5627C20.2154 28.7011 20.2987 28.8269 20.404 28.9331C20.5092 29.0392 20.6343 29.1236 20.7722 29.1814C20.91 29.2392 21.0579 29.2693 21.2074 29.2699C21.7545 29.2699 22.3407 28.9179 22.3407 27.9258C22.3407 26.0961 22.7865 24.5133 23.1795 23.1176L23.18 23.1159C23.1891 23.0836 23.1982 23.0515 23.2072 23.0195Z" fill="#23A1F5"/>
</svg>
