<svg width="24" height="25" viewBox="0 0 24 25" fill="none" xmlns="http://www.w3.org/2000/svg">
<path d="M12.2123 2.17038C12.1842 1.94642 11.8165 1.94642 11.7894 2.17038C10.8696 9.57341 6.16656 11.0994 6.16656 16.2452C6.16656 19.4254 8.83736 22.0024 12.0009 22.0024C15.1633 22.0024 17.8341 19.4243 17.8341 16.2452C17.8341 11.0994 13.1321 9.57341 12.2123 2.17038ZM11.3238 10.3546C11.2623 10.5828 11.1957 10.8171 11.1269 11.0609C10.7092 12.5442 10.2353 14.2265 10.2353 16.1712C10.2353 17.2254 9.61235 17.5993 9.03111 17.5993C8.8723 17.5987 8.71517 17.5667 8.5687 17.5053C8.42224 17.4439 8.2893 17.3542 8.17749 17.2415C8.06567 17.1287 7.97716 16.995 7.91702 16.848C7.85688 16.701 7.82627 16.5436 7.82696 16.3848C7.82696 14.0858 8.9332 12.5838 9.91027 11.2598C10.2176 10.8453 10.5061 10.4526 10.7405 10.0619C10.8478 9.88278 11.1363 9.89111 11.2675 10.0682C11.329 10.1515 11.3498 10.2578 11.3238 10.3546Z" fill="black"/>
</svg>
