<svg width="50" height="49" viewBox="0 0 50 49" fill="none" xmlns="http://www.w3.org/2000/svg">
<circle cx="25" cy="24.002" r="24.002" fill="#274690"/>
<path d="M25.1994 14.7481C25.173 14.5373 24.8269 14.5373 24.8014 14.7481C23.9357 21.7158 19.5092 23.1521 19.5092 27.9953C19.5092 30.9885 22.0229 33.4141 25.0004 33.4141C27.9769 33.4141 30.4907 30.9876 30.4907 27.9953C30.4907 23.1521 26.0652 21.7158 25.1994 14.7481V14.7481ZM24.3632 22.4511C24.3053 22.6658 24.2426 22.8864 24.1779 23.1159C23.7847 24.512 23.3386 26.0953 23.3386 27.9257C23.3386 28.9179 22.7523 29.2699 22.2053 29.2699C22.0558 29.2692 21.9079 29.2392 21.7701 29.1814C21.6322 29.1236 21.5071 29.0392 21.4018 28.933C21.2966 28.8269 21.2133 28.701 21.1567 28.5627C21.1001 28.4243 21.0713 28.2762 21.0719 28.1267C21.0719 25.963 22.1131 24.5492 23.0327 23.3031C23.322 22.9129 23.5935 22.5433 23.8141 22.1756C23.9151 22.007 24.1867 22.0149 24.3102 22.1815C24.3681 22.26 24.3877 22.36 24.3632 22.4511V22.4511Z" fill="white"/>
</svg>
