<svg width="33" height="33" viewBox="0 0 33 33" fill="none" xmlns="http://www.w3.org/2000/svg">
<path d="M27.7073 3.52637H4.53391C3.97661 3.52637 3.52637 3.97661 3.52637 4.53391V27.7073C3.52637 28.2646 3.97661 28.7148 4.53391 28.7148H27.7073C28.2646 28.7148 28.7148 28.2646 28.7148 27.7073V4.53391C28.7148 3.97661 28.2646 3.52637 27.7073 3.52637ZM24.798 10.8783H22.7861C21.2087 10.8783 20.9033 11.6276 20.9033 12.7296V15.1571H24.6689L24.1778 18.9574H20.9033V28.7148H16.977V18.9606H13.6931V15.1571H16.977V12.3549C16.977 9.10246 18.9637 7.32983 21.8667 7.32983C23.2584 7.32983 24.4517 7.43373 24.8012 7.48096V10.8783H24.798Z" fill="white"/>
</svg>
