<svg width="49" height="49" viewBox="0 0 49 49" fill="none" xmlns="http://www.w3.org/2000/svg">
<path fill-rule="evenodd" clip-rule="evenodd" d="M24.002 48.0059C37.2579 48.0059 48.0039 37.2598 48.0039 24.0039C48.0039 10.748 37.2579 0.00195312 24.002 0.00195312C10.746 0.00195312 0 10.748 0 24.0039C0 37.2598 10.746 48.0059 24.002 48.0059ZM19.0647 35.2989H28.2854C28.3249 34.947 28.3639 34.6201 28.3991 34.3279C28.4759 33.6901 28.6167 32.3374 28.5039 31.7051C28.3031 30.5801 27.6947 28.3604 27.1775 26.4732L27.1774 26.4731C27.036 25.9571 26.9014 25.4659 26.7838 25.0288C26.3632 23.4668 25.7811 21.6833 25.2534 20.0664L25.2534 20.0662C24.8908 18.9553 24.5539 17.923 24.3126 17.0952C24.1417 16.5087 23.9603 15.6814 23.7914 14.9111L23.7914 14.911L23.7914 14.911L23.7914 14.911L23.7914 14.911C23.562 13.8648 23.3557 12.9238 23.2299 12.8338C22.7764 12.5079 20.7697 12.8683 20.3612 13.354C19.9298 13.8665 20.1913 15.0997 20.469 15.5924C20.5788 15.7867 20.8928 15.8753 21.208 15.9642C21.5534 16.0616 21.9002 16.1594 21.9816 16.3973C22.5538 18.0693 23.4782 22.8234 23.8805 25.5568C24.0271 26.5524 24.0448 27.757 24.0619 28.9157C24.0778 29.9985 24.0932 31.0412 24.2126 31.8358C23.2404 32.4732 21.8947 33.3259 20.777 33.924C20.777 33.924 19.541 34.1278 19.0647 35.2989ZM20.7898 32.8018C21.9381 32.8018 22.9828 32.3521 23.7563 31.6197C23.7483 31.5497 23.7012 30.672 23.6426 29.5807L23.6426 29.5806L23.6426 29.5805L23.6426 29.58C23.5438 27.7387 23.4125 25.29 23.3808 25.0874L23.3707 25.0234C22.6504 24.4849 21.757 24.1664 20.7898 24.1664C18.4068 24.1664 16.4722 26.101 16.4722 28.4841C16.4722 30.8671 18.4068 32.8018 20.7898 32.8018Z" fill="#23A1F5"/>
</svg>
