<svg width="25" height="24" viewBox="0 0 25 24" fill="none" xmlns="http://www.w3.org/2000/svg">
<g clip-path="url(#clip0)">
<path d="M13.0589 17.2183C13.0758 18.3688 13.0921 19.4766 13.2189 20.3207C12.1861 20.9979 10.7564 21.9038 9.56901 22.5393C9.56901 22.5393 6.36336 23.0677 8.03914 27.2192C8.85188 29.2329 10.3191 35.6339 9.83896 37.4787C9.15069 40.1246 22.1748 39.2822 20.9087 37.3888C20.1528 36.2586 19.3609 34.8781 18.6789 33.6893C18.3764 33.1619 18.0955 32.6722 17.849 32.2589C16.7918 30.4875 17.3614 25.4997 17.6668 22.9683C17.7484 22.2908 17.898 20.8536 17.7781 20.1818C17.5648 18.9866 16.9184 16.6284 16.3689 14.6234C16.2186 14.0751 16.0756 13.5533 15.9506 13.0889C15.5038 11.4294 14.8854 9.53457 14.3248 7.81672C13.9395 6.63642 13.5816 5.53965 13.3253 4.66012C13.1437 4.03702 12.951 3.15805 12.7715 2.33963C12.5278 1.22818 12.3086 0.228381 12.175 0.132724C11.6932 -0.213476 9.56118 0.169405 9.12719 0.685408C8.66889 1.22985 8.94667 2.54005 9.24177 3.06347C9.35839 3.26996 9.69195 3.36404 10.0268 3.45848C10.3938 3.56197 10.7623 3.6659 10.8487 3.91867C11.4566 5.69501 12.4388 10.7458 12.8662 13.6498C13.0219 14.7076 13.0407 15.9873 13.0589 17.2183Z" fill="black"/>
<path d="M9.5826 21.347C10.8025 21.347 11.9124 20.8693 12.7343 20.0912C12.7257 20.0168 12.6757 19.0843 12.6135 17.9249C12.5085 15.9686 12.3689 13.3664 12.3353 13.1511L12.3246 13.0831C11.5592 12.511 10.6101 12.1727 9.5826 12.1727C7.05081 12.1727 4.99545 14.228 4.99545 16.7598C4.99545 19.2916 7.05081 21.347 9.5826 21.347Z" fill="black"/>
</g>
<defs>
<clipPath id="clip0">
<rect width="24" height="24" fill="white" transform="translate(0.995453)"/>
</clipPath>
</defs>
</svg>
