<svg width="25" height="25" viewBox="0 0 25 25" fill="none" xmlns="http://www.w3.org/2000/svg">
<path d="M16.4929 3.80241H16.4937C18.9658 3.80241 20.9723 5.80074 20.9836 8.27188C20.9695 9.16157 20.7051 10.0292 20.2205 10.7751L20.2166 10.7811L20.2128 10.7873C19.972 11.1729 19.3568 11.9336 18.5124 12.9095C17.6841 13.8668 16.6775 14.9834 15.6928 16.0579C14.1285 17.7648 12.6277 19.3565 12.001 20.0184C11.3778 19.3627 9.8742 17.7696 8.30567 16.058C7.32096 14.9835 6.31499 13.8671 5.48773 12.9099C4.64412 11.9338 4.03107 11.1738 3.79266 10.7893L3.78825 10.7822L3.78369 10.7752C3.29932 10.0294 3.03489 9.16209 3.02074 8.27291C3.03134 6.73844 3.82375 5.31487 5.12297 4.49746L5.12302 4.49743C7.22529 3.17459 10.0021 3.80652 11.325 5.90901L12.0028 6.9863L12.6796 5.90837C13.5032 4.59664 14.944 3.80092 16.4929 3.80241Z" stroke="black" stroke-width="1.6"/>
</svg>
