<svg width="20" height="18" viewBox="0 0 20 18" fill="none" xmlns="http://www.w3.org/2000/svg">
<path fill-rule="evenodd" clip-rule="evenodd" d="M14.6586 1.6H14.6571C13.3837 1.59877 12.1992 2.25297 11.5221 3.33136L10.1684 5.48722L8.81278 3.33264C7.72519 1.6041 5.44232 1.08461 3.71403 2.17213L3.71393 2.17219C2.64841 2.84256 1.99752 4.00889 1.98574 5.26692C1.99915 6.00258 2.21873 6.71987 2.61956 7.33707L2.62868 7.35111L2.6375 7.36533C2.83653 7.6863 3.40532 8.39785 4.25794 9.38437C5.07788 10.3331 6.07793 11.443 7.0604 12.5151C8.25461 13.8182 9.41 15.0513 10.1652 15.8516C10.9228 15.0472 12.0771 13.8144 13.2679 12.515C14.2505 11.4428 15.2513 10.3326 16.0724 9.38365C16.9257 8.39752 17.4973 7.68439 17.6991 7.36116L17.7068 7.34894L17.7146 7.33686C18.1157 6.7195 18.3352 6.00165 18.3485 5.26504C18.3349 3.2379 16.6876 1.6 14.6586 1.6ZM19.9486 5.27411C19.9335 6.31681 19.6244 7.33407 19.0563 8.20852C17.9375 10.0005 10.7541 17.5593 10.4487 17.8803C10.4454 17.8839 10.4423 17.8872 10.4387 17.8905C10.283 18.0404 10.0354 18.0359 9.88531 17.8803C9.57231 17.5595 2.38887 10.0005 1.27771 8.20852C0.709805 7.33407 0.400518 6.31681 0.385651 5.27411C0.395041 3.46319 1.32897 1.78236 2.8619 0.81792C4.85564 -0.436636 7.36439 -0.198551 9.07965 1.23443C9.49476 1.58123 9.8634 1.99801 10.167 2.48056C10.4661 2.00413 10.8344 1.5855 11.2542 1.23437C12.1958 0.44677 13.3968 -0.00121527 14.6586 2.47617e-06C17.574 2.47617e-06 19.9398 2.35888 19.9486 5.27411Z" fill="black"/>
</svg>
