<svg width="25" height="25" viewBox="0 0 25 25" fill="none" xmlns="http://www.w3.org/2000/svg">
<path d="M16.4937 3.00241C14.6692 3.00065 12.9722 3.9379 12.0021 5.48297C10.4439 3.00652 7.1732 2.26216 4.69695 3.82033C3.16402 4.78477 2.23009 6.4656 2.2207 8.27652C2.23557 9.31922 2.54486 10.3365 3.11276 11.2109C4.22393 13.0029 11.4074 20.5619 11.7204 20.8827C11.8704 21.0383 12.1181 21.0428 12.2738 20.8929C12.2773 20.8896 12.2804 20.8863 12.2838 20.8827C12.5891 20.5617 19.7726 13.0029 20.8914 11.2109C21.4595 10.3365 21.7686 9.31922 21.7836 8.27652C21.7748 5.36129 19.4091 3.00241 16.4937 3.00241Z" fill="black"/>
</svg>
