<!-- Generated by IcoMoon.io -->
<svg version="1.1" xmlns="http://www.w3.org/2000/svg" width="32" height="32" viewBox="0 0 32 32">
<title>home-filled</title>
<path d="M29.574 15.784l-12.87-12.86c-0.093-0.093-0.203-0.167-0.324-0.217s-0.251-0.076-0.382-0.076c-0.131 0-0.261 0.026-0.382 0.076s-0.231 0.124-0.324 0.217l-12.87 12.86c-0.375 0.375-0.587 0.884-0.587 1.415 0 1.103 0.897 2 2 2h1.356v9.177c0 0.553 0.447 1 1 1h7.808v-6.999h3.499v6.999h8.308c0.553 0 1-0.447 1-1v-9.177h1.356c0.531 0 1.040-0.209 1.415-0.587 0.778-0.781 0.778-2.047-0.003-2.828z"></path>
</svg>
