<svg width="25" height="25" viewBox="0 0 25 25" fill="none" xmlns="http://www.w3.org/2000/svg">
<path d="M22.6767 11.8383L13.619 2.78541L13.0119 2.17829C12.8736 2.04087 12.6865 1.96375 12.4915 1.96375C12.2965 1.96375 12.1095 2.04087 11.9711 2.17829L2.30639 11.8383C2.16464 11.9795 2.05262 12.1477 1.97693 12.3329C1.90124 12.5181 1.86342 12.7166 1.8657 12.9166C1.87507 13.7418 2.5619 14.4005 3.38702 14.4005H4.38327V22.0352H20.5998V14.4005H21.6171C22.018 14.4005 22.3954 14.2434 22.679 13.9598C22.8187 13.8206 22.9293 13.655 23.0046 13.4727C23.0798 13.2905 23.1181 13.0951 23.1174 12.8979C23.1174 12.4994 22.9603 12.122 22.6767 11.8383ZM13.8042 20.3475H11.1788V15.5655H13.8042V20.3475ZM18.912 12.7127V20.3475H15.3045V15.0029C15.3045 14.4848 14.8849 14.0652 14.3668 14.0652H10.6162C10.0982 14.0652 9.6786 14.4848 9.6786 15.0029V20.3475H6.07102V12.7127H3.82068L12.4939 4.04654L13.0354 4.58803L21.1647 12.7127H18.912Z" fill="black"/>
</svg>
