<!-- Generated by IcoMoon.io -->
<svg version="1.1" xmlns="http://www.w3.org/2000/svg" width="32" height="32" viewBox="0 0 32 32">
<title>home-outlined</title>
<path d="M29.674 15.152l-12.371-12.365c-0.177-0.176-0.416-0.275-0.666-0.275s-0.489 0.099-0.666 0.275l-12.371 12.365c-0.181 0.181-0.325 0.396-0.422 0.633s-0.145 0.491-0.142 0.747c0.012 1.056 0.891 1.899 1.947 1.899h1.275v9.773h20.757v-9.773h1.302c0.513 0 0.996-0.201 1.359-0.564 0.179-0.178 0.32-0.39 0.417-0.623s0.145-0.483 0.144-0.736c0-0.51-0.201-0.993-0.564-1.356zM18.318 26.044h-3.361v-6.121h3.361v6.121zM24.856 16.271v9.772h-4.618v-6.841c0-0.663-0.537-1.2-1.2-1.2h-4.801c-0.663 0-1.2 0.537-1.2 1.2v6.841h-4.618v-9.772h-2.88l11.102-11.093 11.099 11.093h-2.883z"></path>
</svg>
