<svg width="33" height="33" viewBox="0 0 33 33" fill="none" xmlns="http://www.w3.org/2000/svg">
<path d="M16.4522 11.9234C14.1412 11.9234 12.2552 13.8093 12.2552 16.1204C12.2552 18.4314 14.1412 20.3174 16.4522 20.3174C18.7632 20.3174 20.6492 18.4314 20.6492 16.1204C20.6492 13.8093 18.7632 11.9234 16.4522 11.9234ZM29.0401 16.1204C29.0401 14.3824 29.0559 12.6601 28.9583 10.9253C28.8607 8.91019 28.401 7.12181 26.9275 5.64829C25.4508 4.17161 23.6655 3.71507 21.6505 3.61747C19.9125 3.51986 18.1902 3.5356 16.4554 3.5356C14.7173 3.5356 12.9951 3.51986 11.2602 3.61747C9.24515 3.71507 7.45677 4.17476 5.98325 5.64829C4.50657 7.12496 4.05003 8.91019 3.95243 10.9253C3.85482 12.6633 3.87057 14.3855 3.87057 16.1204C3.87057 17.8552 3.85482 19.5807 3.95243 21.3155C4.05003 23.3306 4.50972 25.119 5.98325 26.5925C7.45992 28.0692 9.24515 28.5257 11.2602 28.6233C12.9982 28.7209 14.7205 28.7052 16.4554 28.7052C18.1934 28.7052 19.9156 28.7209 21.6505 28.6233C23.6655 28.5257 25.4539 28.066 26.9275 26.5925C28.4041 25.1158 28.8607 23.3306 28.9583 21.3155C29.059 19.5807 29.0401 17.8584 29.0401 16.1204ZM16.4522 22.5781C12.8786 22.5781 9.99451 19.694 9.99451 16.1204C9.99451 12.5468 12.8786 9.6627 16.4522 9.6627C20.0258 9.6627 22.9099 12.5468 22.9099 16.1204C22.9099 19.694 20.0258 22.5781 16.4522 22.5781ZM23.1744 10.9064C22.34 10.9064 21.6662 10.2326 21.6662 9.39822C21.6662 8.56385 22.34 7.89006 23.1744 7.89006C24.0087 7.89006 24.6825 8.56385 24.6825 9.39822C24.6828 9.59634 24.6439 9.79257 24.5682 9.97566C24.4925 10.1588 24.3815 10.3251 24.2414 10.4652C24.1013 10.6053 23.9349 10.7164 23.7518 10.7921C23.5687 10.8678 23.3725 10.9066 23.1744 10.9064Z" fill="white"/>
</svg>
