<svg width="25" height="25" viewBox="0 0 25 25" fill="none" xmlns="http://www.w3.org/2000/svg">
<path fill-rule="evenodd" clip-rule="evenodd" d="M20.6087 3.00327H9.20978C8.97111 3.00327 8.74221 3.09808 8.57344 3.26684C8.40468 3.43561 8.30987 3.66451 8.30987 3.90318V15.3021C8.30987 15.5407 8.40468 15.7696 8.57344 15.9384C8.74221 16.1072 8.97111 16.202 9.20978 16.202H20.6087C20.8473 16.202 21.0762 16.1072 21.245 15.9384C21.4138 15.7696 21.5086 15.5407 21.5086 15.3021V3.90318C21.5086 3.66451 21.4138 3.43561 21.245 3.26684C21.0762 3.09808 20.8473 3.00327 20.6087 3.00327ZM20.3087 15.0021H9.50975V4.20315H20.3087V15.0021ZM7.11083 17.4027V5.40388H5.91095V17.7027C5.91095 17.9414 6.00576 18.1702 6.17453 18.339C6.3433 18.5078 6.57219 18.6026 6.81086 18.6026H19.1097V17.4027H7.11083ZM4.71021 7.80279V19.8016H16.709V21.0015H4.41024C4.17157 21.0015 3.94267 20.9067 3.77391 20.7379C3.60514 20.5692 3.51033 20.3403 3.51033 20.1016V7.80279H4.71021Z" fill="black"/>
</svg>
