<svg width="24" height="24" viewBox="0 0 24 24" fill="none" xmlns="http://www.w3.org/2000/svg">
<path fill-rule="evenodd" clip-rule="evenodd" d="M18.5901 2.49835H5.41013C4.59241 2.49835 3.92967 3.16109 3.92967 3.97903V20.0212C3.92967 20.8393 4.59262 21.5017 5.41013 21.5017H18.5898C19.4078 21.5017 20.0703 20.8389 20.0703 20.0212V3.97903C20.0703 3.16109 19.4078 2.49835 18.5901 2.49835ZM18.9515 19.4921C18.9515 20.0374 18.5099 20.4794 17.9651 20.4794H6.03492C5.48963 20.4794 5.04787 20.0374 5.04787 19.4921V4.5085C5.04787 3.96342 5.48963 3.52167 6.03492 3.52167H17.9653C18.5106 3.52167 18.9521 3.96342 18.9521 4.5085V19.4921H18.9515ZM17.4264 7.5489H9.09546C8.985 7.5489 8.89546 7.63845 8.89546 7.7489V8.57633C8.89546 8.68679 8.985 8.77633 9.09546 8.77633H17.4264C17.5369 8.77633 17.6264 8.68679 17.6264 8.57633V7.7489C17.6264 7.63845 17.5369 7.5489 17.4264 7.5489ZM9.09546 4.99454H17.4264C17.5369 4.99454 17.6264 5.08408 17.6264 5.19454V6.02218C17.6264 6.13263 17.5369 6.22218 17.4264 6.22218H9.09546C8.985 6.22218 8.89546 6.13263 8.89546 6.02218V5.19454C8.89546 5.08408 8.985 4.99454 9.09546 4.99454ZM17.4264 10.1035H9.09546C8.985 10.1035 8.89546 10.193 8.89546 10.3035V11.1309C8.89546 11.2414 8.985 11.3309 9.09546 11.3309H17.4264C17.5369 11.3309 17.6264 11.2414 17.6264 11.1309V10.3035C17.6264 10.193 17.5369 10.1035 17.4264 10.1035ZM9.09546 12.6073H17.4264C17.5369 12.6073 17.6264 12.6968 17.6264 12.8073V13.6345C17.6264 13.7449 17.5369 13.8345 17.4264 13.8345H9.09546C8.985 13.8345 8.89546 13.7449 8.89546 13.6345V12.8073C8.89546 12.6968 8.985 12.6073 9.09546 12.6073ZM17.4264 15.0619H9.09546C8.985 15.0619 8.89546 15.1515 8.89546 15.2619V16.0891C8.89546 16.1996 8.985 16.2891 9.09546 16.2891H17.4264C17.5369 16.2891 17.6264 16.1996 17.6264 16.0891V15.2619C17.6264 15.1515 17.5369 15.0619 17.4264 15.0619ZM7.52549 5.30915L7.23176 4.61394L6.93824 5.30915L6.1863 5.37367L6.75668 5.86772L6.58568 6.60279L7.23176 6.2129L7.87784 6.60279L7.70704 5.86772L8.27742 5.37367L7.52549 5.30915ZM7.23176 7.1683L7.52549 7.86352L8.27742 7.92804L7.70704 8.42209L7.87784 9.15694L7.23176 8.76727L6.58568 9.15694L6.75668 8.42209L6.1863 7.92804L6.93824 7.86352L7.23176 7.1683ZM7.52549 10.4177L7.23176 9.72247L6.93824 10.4177L6.1863 10.4824L6.75668 10.9765L6.58568 11.7113L7.23176 11.3217L7.87784 11.7113L7.70704 10.9765L8.27742 10.4824L7.52549 10.4177ZM7.23176 12.2771L7.52549 12.9723L8.27742 13.0366L7.70704 13.5306L7.87784 14.2657L7.23176 13.876L6.58568 14.2657L6.75668 13.5306L6.1863 13.0366L6.93824 12.9723L7.23176 12.2771ZM7.52549 15.5264L7.23176 14.8312L6.93824 15.5264L6.1863 15.5912L6.75668 16.0848L6.58568 16.8201L7.23176 16.4304L7.87784 16.8201L7.70704 16.0848L8.27742 15.5912L7.52549 15.5264Z" fill="black"/>
</svg>
