<svg width="24" height="24" viewBox="0 0 24 24" fill="none" xmlns="http://www.w3.org/2000/svg">
<path fill-rule="evenodd" clip-rule="evenodd" d="M5.41015 2.49835H18.5901C19.4078 2.49835 20.0703 3.16109 20.0703 3.97903V20.0212C20.0703 20.8389 19.4078 21.5017 18.5899 21.5017H5.41015C4.59264 21.5017 3.92969 20.8393 3.92969 20.0212V3.97903C3.92969 3.16109 4.59243 2.49835 5.41015 2.49835ZM7.23176 4.61395L7.52549 5.30916L8.27743 5.37369L7.70705 5.86774L7.87784 6.6028L7.23176 6.21292L6.58568 6.6028L6.75669 5.86774L6.18631 5.37369L6.93824 5.30916L7.23176 4.61395ZM17.431 5.00089H9.10007C8.98961 5.00089 8.90007 5.09043 8.90007 5.20089V6.02852C8.90007 6.13898 8.98961 6.22852 9.10007 6.22852H17.431C17.5415 6.22852 17.631 6.13898 17.631 6.02852V5.20089C17.631 5.09043 17.5415 5.00089 17.431 5.00089ZM17.431 7.55524H9.10007C8.98961 7.55524 8.90007 7.64478 8.90007 7.75524V8.58266C8.90007 8.69312 8.98961 8.78266 9.10007 8.78266H17.431C17.5415 8.78266 17.631 8.69312 17.631 8.58266V7.75524C17.631 7.64478 17.5415 7.55524 17.431 7.55524ZM9.10007 10.1098H17.431C17.5415 10.1098 17.631 10.1994 17.631 10.3098V11.1373C17.631 11.2477 17.5415 11.3373 17.431 11.3373H9.10007C8.98961 11.3373 8.90007 11.2477 8.90007 11.1373V10.3098C8.90007 10.1994 8.98961 10.1098 9.10007 10.1098ZM17.431 12.6136H9.10007C8.98961 12.6136 8.90007 12.7032 8.90007 12.8136V13.6408C8.90007 13.7513 8.98961 13.8408 9.10007 13.8408H17.431C17.5415 13.8408 17.631 13.7513 17.631 13.6408V12.8136C17.631 12.7032 17.5415 12.6136 17.431 12.6136ZM9.10007 15.0683H17.431C17.5415 15.0683 17.631 15.1578 17.631 15.2683V16.0955C17.631 16.2059 17.5415 16.2955 17.431 16.2955H9.10007C8.98961 16.2955 8.90007 16.2059 8.90007 16.0955V15.2683C8.90007 15.1578 8.98961 15.0683 9.10007 15.0683ZM7.52549 7.86352L7.23176 7.1683L6.93824 7.86352L6.18631 7.92804L6.75669 8.42209L6.58568 9.15694L7.23176 8.76727L7.87784 9.15694L7.70705 8.42209L8.27743 7.92804L7.52549 7.86352ZM7.23176 9.72247L7.52549 10.4177L8.27743 10.4824L7.70705 10.9765L7.87784 11.7113L7.23176 11.3217L6.58568 11.7113L6.75669 10.9765L6.18631 10.4824L6.93824 10.4177L7.23176 9.72247ZM7.52549 12.9722L7.23176 12.277L6.93824 12.9722L6.18631 13.0366L6.75669 13.5306L6.58568 14.2657L7.23176 13.876L7.87784 14.2657L7.70705 13.5306L8.27743 13.0366L7.52549 12.9722ZM7.23176 14.8312L7.52549 15.5264L8.27743 15.5912L7.70705 16.0848L7.87784 16.8201L7.23176 16.4304L6.58568 16.8201L6.75669 16.0848L6.18631 15.5912L6.93824 15.5264L7.23176 14.8312Z" fill="black"/>
</svg>
