<svg width="34" height="34" viewBox="0 0 34 34" fill="none" xmlns="http://www.w3.org/2000/svg">
<path fill-rule="evenodd" clip-rule="evenodd" d="M17 34C26.3888 34 34 26.3888 34 17C34 7.61116 26.3888 0 17 0C7.61116 0 0 7.61116 0 17C0 26.3888 7.61116 34 17 34ZM16.5942 11.7826H22.942C23.3478 11.7826 23.6667 12.1015 23.6667 12.5073C23.6667 12.9131 23.3478 13.2319 22.942 13.2319H16.5942C16.2754 14.0725 15.4928 14.6812 14.5362 14.6812C13.5797 14.6812 12.7681 14.0725 12.4783 13.2319H11.058C10.6522 13.2319 10.3333 12.9131 10.3333 12.5073C10.3333 12.1015 10.6522 11.7826 11.058 11.7826H12.4783C12.7971 10.942 13.5797 10.3333 14.5362 10.3333C15.4928 10.3333 16.3043 10.942 16.5942 11.7826ZM13.8116 12.5073C13.8116 12.9131 14.1304 13.2319 14.5362 13.2319C14.942 13.2319 15.2609 12.9131 15.2609 12.5073C15.2609 12.1015 14.942 11.7826 14.5362 11.7826C14.1304 11.7826 13.8116 12.1015 13.8116 12.5073ZM11.058 17.7247C10.6522 17.7247 10.3333 17.4058 10.3333 17C10.3333 16.5942 10.6522 16.2754 11.058 16.2754H17.4058C17.7246 15.4348 18.5072 14.8261 19.4638 14.8261C20.4203 14.8261 21.2319 15.4348 21.5217 16.2754H22.942C23.3478 16.2754 23.6667 16.5942 23.6667 17C23.6667 17.4058 23.3478 17.7247 22.942 17.7247H21.5217C21.2029 18.5652 20.4203 19.1739 19.4638 19.1739C18.5072 19.1739 17.6957 18.5652 17.4058 17.7247H11.058ZM19.4638 16.2754C19.058 16.2754 18.7391 16.5942 18.7391 17C18.7391 17.4058 19.058 17.7247 19.4638 17.7247C19.8696 17.7247 20.1884 17.4058 20.1884 17C20.1884 16.5942 19.8696 16.2754 19.4638 16.2754ZM16.5942 20.7681H22.942C23.3478 20.7681 23.6667 21.087 23.6667 21.4928C23.6667 21.8986 23.3478 22.2174 22.942 22.2174H16.5942C16.2754 23.058 15.4928 23.6667 14.5362 23.6667C13.5797 23.6667 12.7681 23.058 12.4783 22.2174H11.058C10.6522 22.2174 10.3333 21.8986 10.3333 21.4928C10.3333 21.087 10.6522 20.7681 11.058 20.7681H12.4783C12.7971 19.9275 13.5797 19.3189 14.5362 19.3189C15.4928 19.3189 16.3043 19.9275 16.5942 20.7681ZM13.8116 21.4928C13.8116 21.8986 14.1304 22.2174 14.5362 22.2174C14.942 22.2174 15.2609 21.8986 15.2609 21.4928C15.2609 21.087 14.942 20.7681 14.5362 20.7681C14.1304 20.7681 13.8116 21.087 13.8116 21.4928Z" fill="#001E3C"/>
</svg>
