<svg width="49" height="49" viewBox="0 0 49 49" fill="none" xmlns="http://www.w3.org/2000/svg">
<path fill-rule="evenodd" clip-rule="evenodd" d="M24.002 48.0039C37.2579 48.0039 48.0039 37.2579 48.0039 24.002C48.0039 10.746 37.2579 0 24.002 0C10.746 0 0 10.746 0 24.002C0 37.2579 10.746 48.0039 24.002 48.0039ZM22.1713 22.7259C22.6569 23.2114 23.3154 23.4842 24.002 23.4842C24.342 23.4842 24.6786 23.4172 24.9927 23.2871C25.3068 23.157 25.5922 22.9663 25.8326 22.7259C26.0731 22.4855 26.2638 22.2001 26.3939 21.886C26.524 21.5719 26.5909 21.2352 26.5909 20.8952C26.5909 20.2086 26.3182 19.5501 25.8326 19.0646C25.3471 18.5791 24.6886 18.3063 24.002 18.3063C23.3154 18.3063 22.6569 18.5791 22.1713 19.0646C21.6858 19.5501 21.4131 20.2086 21.4131 20.8952C21.4131 21.5819 21.6858 22.2404 22.1713 22.7259ZM18.8762 15.7694C20.2356 14.41 22.0794 13.6462 24.002 13.6462C25.9246 13.6462 27.7684 14.41 29.1278 15.7694C30.4873 17.1289 31.251 18.9727 31.251 20.8952C31.251 26.332 24.002 34.3577 24.002 34.3577C24.002 34.3577 16.753 26.332 16.753 20.8952C16.753 18.9727 17.5167 17.1289 18.8762 15.7694Z" fill="#23A1F5"/>
</svg>
