<svg width="34" height="35" viewBox="0 0 34 35" fill="none" xmlns="http://www.w3.org/2000/svg">
<path fill-rule="evenodd" clip-rule="evenodd" d="M17 34.7274C26.3888 34.7274 34 27.1162 34 17.7274C34 8.33855 26.3888 0.727386 17 0.727386C7.61116 0.727386 0 8.33855 0 17.7274C0 27.1162 7.61116 34.7274 17 34.7274ZM14.6995 19.0345C14.3055 19.3957 13.7858 19.6218 13.2111 19.6218C11.9924 19.6218 11.001 18.6304 11.001 17.4117C11.001 16.1929 11.9924 15.2015 13.2111 15.2015C13.5798 15.2021 13.9424 15.2949 14.2659 15.4717C14.5894 15.6484 14.8636 15.9033 15.0633 16.2131L18.6526 14.1614C18.609 13.9878 18.5787 13.8097 18.5787 13.6228C18.5787 12.404 19.5701 11.4126 20.7889 11.4126C22.0076 11.4126 22.999 12.404 22.999 13.6228C22.999 14.8415 22.0076 15.833 20.7889 15.833C20.2142 15.833 19.6945 15.6069 19.2998 15.2457L15.4156 17.4653C15.4125 17.6333 15.3872 17.7943 15.3474 17.9503L19.3005 20.2091C19.6945 19.8479 20.2142 19.6218 20.7889 19.6218C22.0076 19.6218 22.999 20.6132 22.999 21.832C22.999 23.0507 22.0076 24.0422 20.7889 24.0422C19.5701 24.0422 18.5787 23.0507 18.5787 21.832C18.5809 21.6501 18.6058 21.4691 18.6526 21.2933L14.6995 19.0345ZM21.7361 21.832C21.7361 21.3098 21.3111 20.8848 20.7889 20.8848C20.2666 20.8848 19.8416 21.3098 19.8416 21.832C19.8416 22.3542 20.2666 22.7792 20.7889 22.7792C21.3111 22.7792 21.7361 22.3542 21.7361 21.832ZM21.7361 13.6228C21.7361 13.1006 21.3111 12.6756 20.7889 12.6756C20.2666 12.6756 19.8416 13.1006 19.8416 13.6228C19.8416 14.145 20.2666 14.57 20.7889 14.57C21.3111 14.57 21.7361 14.145 21.7361 13.6228ZM14.1584 17.4117C14.1584 16.8894 13.7334 16.4644 13.2111 16.4644C12.6889 16.4644 12.2639 16.8894 12.2639 17.4117C12.2639 17.9339 12.6889 18.3589 13.2111 18.3589C13.7334 18.3589 14.1584 17.9339 14.1584 17.4117Z" fill="#001E3C"/>
</svg>
