<svg width="33" height="33" viewBox="0 0 33 33" fill="none" xmlns="http://www.w3.org/2000/svg">
<path d="M29.882 8.00682C28.9186 8.42243 27.8701 8.72154 26.7901 8.83804C27.9114 8.17192 28.751 7.11956 29.1515 5.8784C28.0994 6.50429 26.9468 6.94319 25.7448 7.1756C25.2424 6.63854 24.6348 6.21069 23.9599 5.91872C23.2849 5.62675 22.5571 5.4769 21.8217 5.47853C18.8463 5.47853 16.4534 7.89032 16.4534 10.85C16.4534 11.2656 16.5038 11.6812 16.5857 12.0811C12.1304 11.8481 8.15696 9.71964 5.51532 6.46088C5.03399 7.28302 4.78175 8.21912 4.78486 9.17179C4.78486 11.0357 5.73257 12.6793 7.17776 13.6459C6.32609 13.6123 5.49436 13.3783 4.75022 12.9627V13.0288C4.75022 15.6389 6.59528 17.802 9.0543 18.2995C8.59259 18.4194 8.11763 18.4807 7.6406 18.4821C7.29111 18.4821 6.96051 18.4474 6.62676 18.4002C7.30685 20.5286 9.28729 22.0746 11.6456 22.125C9.80051 23.5701 7.48947 24.4203 4.98007 24.4203C4.52982 24.4203 4.11421 24.4045 3.68286 24.3541C6.06317 25.8812 8.88743 26.7628 11.9289 26.7628C21.8028 26.7628 27.2057 18.5828 27.2057 11.4828C27.2057 11.2498 27.2057 11.0168 27.19 10.7838C28.2353 10.0187 29.1515 9.07103 29.882 8.00682Z" fill="white"/>
</svg>
