<svg width="25" height="25" viewBox="0 0 25 25" fill="none" xmlns="http://www.w3.org/2000/svg">
<path fill-rule="evenodd" clip-rule="evenodd" d="M12.0043 3.60315L12.0043 3.60315H12.0079C12.539 3.60315 13.0582 3.76065 13.4998 4.05573C13.9414 4.35081 14.2856 4.77021 14.4889 5.26091C14.6921 5.75161 14.7453 6.29155 14.6417 6.81247C14.5381 7.33339 14.2823 7.81189 13.9067 8.18745C13.5312 8.56302 13.0527 8.81878 12.5318 8.9224C12.0108 9.02601 11.4709 8.97283 10.9802 8.76958C10.4895 8.56633 10.0701 8.22213 9.77501 7.78052C9.47994 7.3389 9.32244 6.8197 9.32244 6.28858L9.32244 6.28501C9.32165 5.9326 9.39048 5.58351 9.52498 5.25778C9.65948 4.93204 9.85699 4.63608 10.1062 4.3869C10.3554 4.13771 10.6513 3.94019 10.9771 3.80569C11.3028 3.6712 11.6519 3.60236 12.0043 3.60315ZM10.3664 2.32681C10.8869 2.11189 11.4447 2.0019 12.0079 2.00315C12.8554 2.00315 13.684 2.25449 14.3887 2.72538C15.0934 3.19627 15.6427 3.86556 15.9671 4.64861C16.2914 5.43167 16.3763 6.29333 16.2109 7.12462C16.0456 7.95591 15.6374 8.7195 15.0381 9.31882C14.4388 9.91815 13.6752 10.3263 12.8439 10.4917C12.0126 10.657 11.151 10.5721 10.3679 10.2478C9.58484 9.92343 8.91555 9.37416 8.44466 8.66943C7.97377 7.96469 7.72244 7.13615 7.72244 6.28858C7.72118 5.72545 7.83117 5.16763 8.04609 4.64713C8.26101 4.12663 8.57662 3.65371 8.97481 3.25552C9.373 2.85734 9.84592 2.54172 10.3664 2.32681ZM4.38848 19.0686V18.5163C4.35242 17.2124 4.83228 15.9469 5.72382 14.9947C6.61537 14.0425 7.8466 13.4806 9.15006 13.4309H14.864C16.1615 13.483 17.3869 14.0417 18.2772 14.9872C19.1674 15.9326 19.6515 17.1894 19.6255 18.4877V19.0686C17.5371 20.9564 14.8222 22.0016 12.007 22.0016C9.19182 22.0016 6.4769 20.9564 4.38848 19.0686ZM6.89177 16.0883C7.48898 15.4505 8.31137 15.0713 9.1835 15.0309H14.8287C15.6971 15.0733 16.5158 15.4505 17.1123 16.084C17.6856 16.6928 18.0102 17.4921 18.0259 18.3251C16.3134 19.6665 14.1955 20.4016 12.007 20.4016C9.8181 20.4016 7.69973 19.6662 5.98704 18.3242C6.00066 17.4943 6.32203 16.6968 6.89177 16.0883Z" fill="black"/>
</svg>
