<svg width="25" height="25" viewBox="0 0 25 25" fill="none" xmlns="http://www.w3.org/2000/svg">
<path d="M12.0041 2.00242C12.8517 2.00242 13.6803 2.25378 14.3851 2.7247C15.0899 3.19562 15.6392 3.86496 15.9636 4.64808C16.288 5.4312 16.3728 6.29292 16.2075 7.12427C16.0421 7.95562 15.6339 8.71927 15.0346 9.31864C14.4352 9.91801 13.6715 10.3262 12.8402 10.4916C12.0088 10.6569 11.1471 10.5721 10.364 10.2477C9.58089 9.9233 8.91154 9.37398 8.44062 8.66919C7.9697 7.96441 7.71834 7.1358 7.71834 6.28816C7.71709 5.725 7.82708 5.16713 8.04202 4.6466C8.25695 4.12606 8.57259 3.6531 8.97081 3.25489C9.36902 2.85667 9.84198 2.54103 10.3625 2.3261C10.8831 2.11116 11.4409 2.00117 12.0041 2.00242Z" fill="black"/>
<path d="M19.6232 19.0692C17.5346 20.9571 14.8195 22.0024 12.0041 22.0024C9.18869 22.0024 6.47356 20.9571 4.38499 19.0692V18.5168C4.34893 17.2128 4.82882 15.9472 5.72043 14.995C6.61205 14.0427 7.84337 13.4807 9.14693 13.4311H14.8613C16.1589 13.4831 17.3844 14.0419 18.2747 14.9874C19.165 15.9329 19.6492 17.1898 19.6232 18.4882V19.0692Z" fill="black"/>
</svg>
