<svg fill="none" xmlns="http://www.w3.org/2000/svg" viewBox="0 0 240 84">
  <path d="M68.32 60.98a21.52 21.52 0 011.324-7.554 18.757 18.757 0 013.86-6.296c3.672-3.87 8.426-5.808 14.26-5.813 5.836-.004 10.453 1.825 13.851 5.489 3.28 3.482 4.919 8.015 4.919 13.599 0 5.583-1.686 10.202-5.058 13.856-3.57 3.876-8.296 5.813-14.175 5.813-6.077 0-10.838-1.902-14.28-5.707-3.139-3.469-4.705-7.931-4.701-13.387zm8.706-.211a12.944 12.944 0 00.755 4.376 10.308 10.308 0 002.152 3.621 10.083 10.083 0 007.819 3.264 8.606 8.606 0 007.084-3.19c1.677-2.062 2.516-4.741 2.516-8.038 0-3.297-.863-6-2.59-8.11-1.84-2.207-4.362-3.31-7.567-3.31-3.204 0-5.753 1.175-7.646 3.528a12.407 12.407 0 00-2.523 7.859zM123.436 74.942a25.9 25.9 0 00.285 4.588h-9.004v-37.5h8.719v3.199c3.16-2.609 6.532-3.913 10.116-3.913 3.929 0 7.062 1.324 9.402 3.972 2.339 2.649 3.511 6.16 3.515 10.534v14.307c0 4.043.062 6.47.186 7.283.028.559.194 1.102.483 1.582.198.238.377.457.516.662l-.073.139c-1.933-.166-3.35-.252-4.23-.252h-2.516c-.761 0-1.794.04-3.085.113v-19.57c0-7.014-2.128-10.519-6.383-10.514-3.155 0-5.804 1.626-7.944 4.88l.013 20.49zM182.676 77.523a18.586 18.586 0 01-9.117 2.55 20.454 20.454 0 01-7.944-1.438 17.207 17.207 0 01-5.813-3.972c-3.297-3.451-4.948-7.924-4.952-13.42 0-5.693 1.913-10.431 5.74-14.214 3.826-3.782 8.754-5.696 14.783-5.74a20.769 20.769 0 015.422.715V26.07h8.779V64.42c0 3.185.146 5.297.45 6.25a6.476 6.476 0 001 2.152c.411.502.888.948 1.417 1.324l-6.747 5.958a9.12 9.12 0 01-3.018-2.582zm-7.429-5.707c1.904.022 3.79-.369 5.528-1.145V50.81a14.09 14.09 0 00-5.455-1.04 14.397 14.397 0 00-5.038.788 10.756 10.756 0 00-3.608 2.191 9.937 9.937 0 00-3.158 7.64c0 3.421.955 6.149 2.866 8.183 2.062 2.168 5.017 3.249 8.865 3.244zM198.108 61.085a20.878 20.878 0 011.43-7.786 19.091 19.091 0 014.058-6.276c3.735-3.805 8.614-5.707 14.639-5.707 5.098 0 9.189 1.686 12.274 5.058 3.037 3.257 4.555 7.349 4.555 12.275a11.49 11.49 0 01-.43 3.873c-2.392.67-7.261 1.006-14.605 1.006h-12.632a9.44 9.44 0 004.343 5.959c2.273 1.425 5.228 2.138 8.865 2.138 3.381.09 6.736-.61 9.798-2.046a7.86 7.86 0 001.609-1 136.637 136.637 0 01-.178 3.086l-.391 5.6c-1.819 1.272-4.763 2.128-8.832 2.57a28.468 28.468 0 01-3.443.218c-6.078 0-11.1-1.765-15.068-5.296a17.481 17.481 0 01-5.992-13.672zm27.409-4.515c-.979-5.142-3.778-7.715-8.395-7.72a9.117 9.117 0 00-8.289 4.7c-.585.987-1.03 2.05-1.324 3.159.57 0 1.278.046 2.112.073h10.832l2.952-.12c.788 0 1.49-.046 2.112-.092z" fill="#001E3C"/>
  <path fill-rule="evenodd" clip-rule="evenodd" d="M34.64 55.028c.442 1.379.903 2.857 1.035 4.245.524 5.76-6.223 6.42-10.58 3.379-8.455-3.544-10.54-12.843-12.701-20.602-3.499 3.372-6.088 8.253-7.055 13.29C2.433 70.502 15.14 81.408 28.39 83 46.045 85.108 57.424 69.84 53.94 53.423 49.99 34.803 27.142 31.704 34.64 55.04" fill="url(#paint0_linear)"/>
  <path fill-rule="evenodd" clip-rule="evenodd" d="M5.48 64.476C7.931 74.76 17.988 81.748 28.39 83c6.022.72 11.312-.584 15.534-3.264 3.79-3.818 6.925-8.301 7.383-12.68.762-7.27-4.31-14.515-10.816-3.474-3.011 5.104-7.094 11.743-17.06 11.788-7.561.036-15.658-3.152-17.95-10.882" fill="url(#paint1_linear)"/>
  <path fill-rule="evenodd" clip-rule="evenodd" d="M29.726 64.389c-4.698-.49-10.057-4.8-7.55-11.695 2.952-8.115 10.771-12.508 15.565-19.328C46.443 20.973 39.849-.129 23.445.832c6.832 1.776 3.857 8.166-.723 16.56-3.499 6.399-7.94 14.454-9.771 21.897-.705 2.863-1.045 5.697-.66 8.645.753 5.754 4.102 10.5 9.425 13.94a16.05 16.05 0 008.01 2.53v-.015z" fill="url(#paint2_linear)"/>
  <path fill-rule="evenodd" clip-rule="evenodd" d="M29.725 64.389c-4.697-.49-10.056-4.8-7.548-11.695 2.95-8.115 10.77-12.508 15.564-19.328 5.745-8.175 4.818-20.153-1.205-27.072 2.22 2.61 3.288 6.145 3.478 9.783a23.95 23.95 0 01-1.773 10.334c-4.634 10.912-16.898 16.56-20.8 26.497a9.4 9.4 0 00-.675 4.748 23.58 23.58 0 004.95 4.207 16.049 16.049 0 008.01 2.529v-.003z" fill="url(#paint3_linear)"/>
  <path fill-rule="evenodd" clip-rule="evenodd" d="M24.598 63.329c1.64.622 3.367.98 5.119 1.063a24.446 24.446 0 01-5.12-1.06v-.003zM23.445.832c6.831 1.776 3.857 8.166-.723 16.56-3.499 6.399-7.94 14.454-9.771 21.897-.705 2.863-1.045 5.697-.66 8.645.636 4.847 3.11 8.982 7.061 12.218-2.107-2.213-3.847-2.154-2.312-7.904 2.713-10.162 16.763-22.86 18.24-35.705C36.14 9.055 31.419 1.45 23.446.832z" fill="url(#paint4_linear)"/>
  <path fill-rule="evenodd" clip-rule="evenodd" d="M23.445.832c6.832 1.776 3.857 8.166-.723 16.56-3.499 6.399-7.94 14.454-9.771 21.897-.705 2.863-1.045 5.697-.66 8.645.753 5.754 4.102 10.5 9.425 13.94 1.338.865 2.8 1.521 4.336 1.946.223.057.452.114.68.163a15.658 15.658 0 01-4.257-1.922c-5.324-3.45-8.669-8.199-9.425-13.953-.385-2.948-.045-5.781.66-8.644 1.83-7.435 6.266-15.498 9.77-21.897C26.393 12.241 32.533 3.1 23.446.832z" fill="url(#paint5_linear)"/>
  <defs>
    <linearGradient id="paint0_linear" x1="37.795" y1="38.493" x2="25.536" y2="83.905" gradientUnits="userSpaceOnUse">
      <stop stop-color="#4481EB"/>
      <stop offset="1" stop-color="#04BEFE"/>
    </linearGradient>
    <linearGradient id="paint1_linear" x1="18.164" y1="71.208" x2="58.94" y2="74.628" gradientUnits="userSpaceOnUse">
      <stop stop-color="#86D1FB"/>
      <stop offset="1" stop-color="#86D1FB" stop-opacity="0"/>
    </linearGradient>
    <linearGradient id="paint2_linear" x1="31.639" y1=".8" x2=".016" y2="49.652" gradientUnits="userSpaceOnUse">
      <stop stop-color="#4481EB"/>
      <stop offset="1" stop-color="#04BEFE"/>
    </linearGradient>
    <linearGradient id="paint3_linear" x1="23.578" y1="36.846" x2="45.832" y2="37.287" gradientUnits="userSpaceOnUse">
      <stop stop-color="#86D1FB"/>
      <stop offset="1" stop-color="#86D1FB" stop-opacity="0"/>
    </linearGradient>
    <linearGradient id="paint4_linear" x1="27.526" y1=".832" x2="-6.436" y2="42.269" gradientUnits="userSpaceOnUse">
      <stop stop-color="#4481EB"/>
      <stop offset="1" stop-color="#04BEFE"/>
    </linearGradient>
    <linearGradient id="paint5_linear" x1="16.578" y1="34.041" x2="30.972" y2="34.211" gradientUnits="userSpaceOnUse">
      <stop stop-color="#86D1FB"/>
      <stop offset="1" stop-color="#86D1FB" stop-opacity="0"/>
    </linearGradient>
  </defs>
</svg>